<svg xmlns="http://www.w3.org/2000/svg" viewBox="0 0 99.01 211.01"><g id="background"><path d="M82.81,13.45c-10.74-.37-21.87.39-33,0,0,35.62.4,69.35.4,104.34-1.59.19-21.48,2.43-23.47,2.67" style="fill:none;stroke:#fff;stroke-linecap:round;stroke-linejoin:round;stroke-width:2px"/><path d="M50.59,133.19c.13,3.18.37,6.37.38,9.55Q51,169.4,51,196a16.82,16.82,0,0,1-.76,3.58" style="fill:none;stroke:#fff;stroke-linecap:round;stroke-linejoin:round;stroke-width:2px"/><path d="M30.7,141.94q3.78,23.07,7.57,46.15c.59,3.59,1.31,7.16,2,10.74" style="fill:none;stroke:#fff;stroke-linecap:round;stroke-linejoin:round;stroke-width:2px"/><path d="M14,131.6c-2.91,0-7.15-.39-7.91,3.18-.89,4.2-.06,11.91-.17,16.55-.13,5.7-.39,12.23-.25,17.93.07,2.81,1.84,5.14,3.28,7.16l5.42,1.67,1.89,15c2.62,1.59,7.28,4.39,8.88,5.37" style="fill:none;stroke:#fff;stroke-linecap:round;stroke-linejoin:round;stroke-width:2px"/><path d="M83.61,133.19c.53,2.25,1.5,4.51,1.52,6.76.13,15,.07,30,.06,45,0,.54-.08,1.08-.12,1.6-3.32,0-6.5-.55-9.39.13-4.11,1-3.36,11.85-6.39,13.79" style="fill:none;stroke:#fff;stroke-linecap:round;stroke-linejoin:round;stroke-width:2px"/><path d="M71.27,141.94c-2.25,12.6-4.57,25.19-6.73,37.8-1.09,6.34-1.89,12.72-2.81,19.09" style="fill:none;stroke:#fff;stroke-linecap:round;stroke-linejoin:round;stroke-width:2px"/><path d="M81.22,132.39a11.67,11.67,0,0,0,2.78.37c4.46-.43,9.29,1,9.34,5,.14,11.67-.06,23.45,0,35.12,0,.4-4.17,3.28-3.78,3.68" style="fill:none;stroke:#fff;stroke-linecap:round;stroke-linejoin:round;stroke-width:2px"/><path d="M49.79,13.45c-5.7-.26-11.4-.69-17.1-.75-6-.06-11.94.22-17.9.35" style="fill:none;stroke:#fff;stroke-linecap:round;stroke-linejoin:round;stroke-width:2px"/><path d="M82.81,13.45c-3.71,16.44-7,36.86-10.73,53.31q-3,13.51-6,27.05c-.08.36-1.35,2-1.22,2.39" style="fill:none;stroke:#fff;stroke-linecap:round;stroke-linejoin:round;stroke-width:2px"/><path d="M20,150.3l-5.17,2.57c0,6.58,0,13.74,0,20.9,0,1.32-.25,2.65-.38,4" style="fill:none;stroke:#fff;stroke-linecap:round;stroke-linejoin:round;stroke-width:2px"/><path d="M84.4,17l-1.28-3.84,2.08-1.72c1.2.59,1.85,5.27.77,5.39-2.89.35-1.48,2.28-1.5,3.36-.12,8.35-.07,25.26-.07,33.81" style="fill:none;stroke:#fff;stroke-linecap:round;stroke-linejoin:round;stroke-width:2px"/><path d="M86.39,17.43V45.28" style="fill:none;stroke:#fff;stroke-linecap:round;stroke-linejoin:round;stroke-width:2px"/><path d="M14.79,13.05C17.44,25.39,22.5,40.9,25.12,53.23c3.08,14.45,6.22,28.89,9.08,43.38.68,3.47.34,7.14.48,10.72" style="fill:none;stroke:#fff;stroke-linecap:round;stroke-linejoin:round;stroke-width:2px"/><path d="M86,117.28q.21-12.73.38-25.46c0-.8,0-3.56-.38-3.78-2.46-1.27-1.52-1.91-1.59-3.78" style="fill:none;stroke:#fff;stroke-linecap:round;stroke-linejoin:round;stroke-width:2px"/><path d="M26.72,120.46c0-.66.28-7.52,0-7.92-4.21-5.28-6-11.56-7.53-17.93a4.75,4.75,0,0,0-.81-2c-1.06-1.18-2.07-5-3.55-6.39,0,9.57-.2,21.87-.2,31.41l12.13,2.8" style="fill:none;stroke:#fff;stroke-linecap:round;stroke-linejoin:round;stroke-width:2px"/><path d="M71.67,199.23c-2.31,3.67-6.21,3-9.55,3.09-8.74.26-17.5.08-26.25.09a17.32,17.32,0,0,1-10.74-4" style="fill:none;stroke:#fff;stroke-linecap:round;stroke-linejoin:round;stroke-width:2px"/><path d="M16,14.8C15.83,24,16,34.54,16,43.68c-.07,12.73,0,25.46,0,38.77" style="fill:none;stroke:#fff;stroke-linecap:round;stroke-linejoin:round;stroke-width:2px"/><path d="M16.78,12.66l-.93-1.88-1.24.66-.62,35" style="fill:none;stroke:#fff;stroke-linecap:round;stroke-linejoin:round;stroke-width:2px"/><path d="M34.68,96.19c7.16,0,23.07,0,30.23,0" style="fill:none;stroke:#fff;stroke-linecap:round;stroke-linejoin:round;stroke-width:2px"/><path d="M27,119.8c1.56-2.86,5.63-8.65,7.28-11.67H64.91" style="fill:none;stroke:#fff;stroke-linecap:round;stroke-linejoin:round;stroke-width:2px"/><path d="M49.79,138.76c-6.23.8-12.45,1.7-18.7,2.34a56.75,56.75,0,0,1-8.35,0c-3-.14-6.1-.5-9.15-.77" style="fill:none;stroke:#fff;stroke-linecap:round;stroke-linejoin:round;stroke-width:2px"/><path d="M29.5,126.43a32.5,32.5,0,0,1-3.57-.42c-5.94-1.3-10.54,1.7-11.54,7.58" style="fill:none;stroke:#fff;stroke-linecap:round;stroke-linejoin:round;stroke-width:2px"/><path d="M21.15,149.5c1.3,8.65,4.27,24,5.57,32.62" style="fill:none;stroke:#fff;stroke-linecap:round;stroke-linejoin:round;stroke-width:2px"/><path d="M78.07,157.86c-1,7-2.18,18.36-3.19,24.26-.28,1.57-.29,3.18-.42,4.77" style="fill:none;stroke:#fff;stroke-linecap:round;stroke-linejoin:round;stroke-width:2px"/><path d="M79.63,141.15c-5.83.79-11.43-.74-17.12-1.52-3.92-.53-7.94-.34-11.92-.47" style="fill:none;stroke:#fff;stroke-linecap:round;stroke-linejoin:round;stroke-width:2px"/><path d="M62.92,131.2c-.93.66-1.85,1.88-2.79,1.89a81.28,81.28,0,0,1-8.35-.7" style="fill:none;stroke:#fff;stroke-linecap:round;stroke-linejoin:round;stroke-width:2px"/><path d="M27.92,195.07c0-1.33,0-6.46,0-8.7L16,186.89" style="fill:none;stroke:#fff;stroke-linecap:round;stroke-linejoin:round;stroke-width:2px"/><path d="M85.2,117.68c-2.26.53-4.49,1.38-6.77,1.51a5.84,5.84,0,0,0-5.58,4c-.86,2.09-1.82,4.14-2.77,6.28l8.75,2.08" style="fill:none;stroke:#fff;stroke-linecap:round;stroke-linejoin:round;stroke-width:2px"/><path d="M51,199.23l18.3,1.19" style="fill:none;stroke:#fff;stroke-linecap:round;stroke-linejoin:round;stroke-width:2px"/><path d="M86,87.05c-1.85.39-3.91.41-5.53,1.26C75.19,91,70.08,94.07,64.91,97" style="fill:none;stroke:#fff;stroke-linecap:round;stroke-linejoin:round;stroke-width:2px"/><path d="M50.59,131.6c-3.31.45-7.43,1.46-10.74,1.46-1.33,0-2.65-1.46-4-2.26" style="fill:none;stroke:#fff;stroke-linecap:round;stroke-linejoin:round;stroke-width:2px"/><path d="M20.75,148.7l-1.24-5.22c-3.28-1-5.8-1.31-7.08,1.66a5.19,5.19,0,0,0,2,6.75" style="fill:none;stroke:#fff;stroke-linecap:round;stroke-linejoin:round;stroke-width:2px"/><path d="M64.91,97c.16,2.91.72,7.41.94,11.44l6.22,9.25" style="fill:none;stroke:#fff;stroke-linecap:round;stroke-linejoin:round;stroke-width:2px"/><path d="M50.19,130.41c-3-.28-8.49-.27-11.54-.4" style="fill:none;stroke:#fff;stroke-linecap:round;stroke-linejoin:round;stroke-width:2px"/><path d="M84,187.29l-.58,5.28-5,3.87" style="fill:none;stroke:#fff;stroke-linecap:round;stroke-linejoin:round;stroke-width:2px"/><path d="M75.65,182.52H84.4" style="fill:none;stroke:#fff;stroke-linecap:round;stroke-linejoin:round;stroke-width:2px"/><path d="M93.29,53.52V75.91" style="fill:none;stroke:#fff;stroke-linecap:round;stroke-linejoin:round;stroke-width:2px"/><path d="M84.4,54c0,6.5,0,13,0,19.49,0,.93-.15,9.81,0,10.74" style="fill:none;stroke:#fff;stroke-linecap:round;stroke-linejoin:round;stroke-width:2px"/><path d="M15.58,182.52c3.71,0,6.76-1.05,11-1.05-.19,1.35,1.48,3.58,1.29,4.9" style="fill:none;stroke:#fff;stroke-linecap:round;stroke-linejoin:round;stroke-width:2px"/><path d="M16,82.67v4.18c5.33,2.66,11.22,5.6,17.1,8.55" style="fill:none;stroke:#fff;stroke-linecap:round;stroke-linejoin:round;stroke-width:2px"/><path d="M29.9,200.82l1-1.2H50.19" style="fill:none;stroke:#fff;stroke-linecap:round;stroke-linejoin:round;stroke-width:2px"/><path d="M74.05,119.27c-1.45-.19-21.19-1.17-23.32-1.44.23,4.1.05,10.47.26,14.31" style="fill:none;stroke:#fff;stroke-linecap:round;stroke-linejoin:round;stroke-width:2px"/><path d="M19.56,128c.13,1.06,0,2.29.45,3.15,1.73,3.05,1.28,6.09.35,9.18" style="fill:none;stroke:#fff;stroke-linecap:round;stroke-linejoin:round;stroke-width:2px"/><path d="M13.59,47.27C12.43,49.2,9.33,51,7.83,53.52" style="fill:none;stroke:#fff;stroke-linecap:round;stroke-linejoin:round;stroke-width:2px"/><path d="M79.23,132.79c1.06,2.26,1.14,6.83,1.9,9.18.38,1.16,0,2.65-.33,3.95-.87,4-1.86,8-2.73,11.94" style="fill:none;stroke:#fff;stroke-linecap:round;stroke-linejoin:round;stroke-width:2px"/><path d="M13.19,148.7c2.39-1.19,4.78-.9,7.24,0" style="fill:none;stroke:#fff;stroke-linecap:round;stroke-linejoin:round;stroke-width:2px"/><path d="M27.12,127.22l1.61,4.21c1.43-.53,9.25-1.17,9.92-1.42" style="fill:none;stroke:#fff;stroke-linecap:round;stroke-linejoin:round;stroke-width:2px"/><path d="M50.19,130.41c2.92.26,10.21.13,13.13.39" style="fill:none;stroke:#fff;stroke-linecap:round;stroke-linejoin:round;stroke-width:2px"/><path d="M27,119.8c1.44,3.18,3.87,7.71,5.2,10.63" style="fill:none;stroke:#fff;stroke-linecap:round;stroke-linejoin:round;stroke-width:2px"/><path d="M13.19,134.78v8" style="fill:none;stroke:#fff;stroke-linecap:round;stroke-linejoin:round;stroke-width:2px"/><path d="M7.83,53.52c-.59,4.49-.1,19.71,0,25" style="fill:none;stroke:#fff;stroke-linecap:round;stroke-linejoin:round;stroke-width:2px"/><path d="M24.73,197.63l3.19-2.56,2.78,4.16" style="fill:none;stroke:#fff;stroke-linecap:round;stroke-linejoin:round;stroke-width:2px"/><path d="M86.39,45.28c.5,1.15,6.4,7.08,6.9,8.24" style="fill:none;stroke:#fff;stroke-linecap:round;stroke-linejoin:round;stroke-width:2px"/><path d="M89.57,176.55,86,177.74" style="fill:none;stroke:#fff;stroke-linecap:round;stroke-linejoin:round;stroke-width:2px"/><path d="M70.28,130.41l-7,.39" style="fill:none;stroke:#fff;stroke-linecap:round;stroke-linejoin:round;stroke-width:2px"/><path d="M18,147.51H14.79" style="fill:none;stroke:#fff;stroke-linecap:round;stroke-linejoin:round;stroke-width:2px"/><path d="M13.59,134l7.16-.4" style="fill:none;stroke:#fff;stroke-linecap:round;stroke-linejoin:round;stroke-width:2px"/><path d="M20,130.8c1.32,0,2.65-.05,4,0s2.66.25,4,.38" style="fill:none;stroke:#fff;stroke-linecap:round;stroke-linejoin:round;stroke-width:2px"/><path d="M78.43,196.44c-2.17,1.37-4.9,3.5-7.73,4" style="fill:none;stroke:#fff;stroke-linecap:round;stroke-linejoin:round;stroke-width:2px"/><path d="M7.83,78.54c.27,1.2,6.69,6.52,7,7.71" style="fill:none;stroke:#fff;stroke-linecap:round;stroke-linejoin:round;stroke-width:2px"/><path d="M93.29,75.91c-.93,1.46-6.37,9.68-7.3,11.14" style="fill:none;stroke:#fff;stroke-linecap:round;stroke-linejoin:round;stroke-width:2px"/><path d="M80.42,132.79H79.23" style="fill:none;stroke:#fff;stroke-linecap:round;stroke-linejoin:round;stroke-width:2px"/></g><g id="bucket-forward"><polygon points="15.22 13.6 85.63 14 86.43 117.83 15.02 118.2 15.22 13.6" style="fill:none"/></g><g id="bucket-reverse"><polygon points="14.79 13.05 85.2 13.45 85.99 117.28 14.59 117.66 14.79 13.05" style="fill:none"/></g><g id="right_wheels-forward"><path id="aa" d="M7.56,133.79c1.77-1.16,6-1.24,6-1.15.61,13.31-.41,17.72.1,31,0,1,.31,12-.1,13.07C12.5,176.08,9.5,176,8.86,175c-.77-1.16-2-2.57-2-4,.17-10.66-.64-20-.24-30.69A27.58,27.58,0,0,1,7.56,133.79Z" style="fill:none"/></g><g id="right_wheels-reverse"><path id="right-wheel-reverse" d="M14.79,46.92s.43,27.83,0,37.6c0,.92-5.95-5-5.93-6C9,72.4,8,59.47,8.69,54,8.8,53.09,14.79,46.92,14.79,46.92Z" style="fill:none"/></g><g id="left_wheels-reverse"><path id="left-wheel-reverse" d="M85.33,85.93l6.83-10.54s.11-10,.11-15.41c0-8.63-.51-6.67-.51-6.67l-6.43-7.75" style="fill:none"/></g><g id="left_wheels-forward"><path d="M84.94,133.83s.68,34.53.68,42.85c0,2,3.94-1.48,4.52-2.19s2.13-2.11,2.13-2.11.18-26.71.3-34.6c0-1.88-2-3.46-3.82-3.95Z" style="fill:none"/></g></svg>