<svg xmlns="http://www.w3.org/2000/svg" viewBox="0 0 95.05 193.68"><g id="background"><path d="M15.21,190c10.74.37,21.87-.39,33,0,0-35.62-.4-69.35-.4-104.34,1.59-.19,21.48-2.43,23.47-2.67" style="fill:none;stroke:#fff;stroke-linecap:round;stroke-linejoin:round;stroke-width:2px"/><path d="M47.43,70.27c-.13-3.18-.37-6.37-.38-9.55q0-26.65,0-53.3a17.46,17.46,0,0,1,.76-3.58" style="fill:none;stroke:#fff;stroke-linecap:round;stroke-linejoin:round;stroke-width:2px"/><path d="M67.32,61.52q-3.76-23.07-7.56-46.15c-.6-3.59-1.32-7.16-2-10.74" style="fill:none;stroke:#fff;stroke-linecap:round;stroke-linejoin:round;stroke-width:2px"/><path d="M84,71.86c2.92,0,7.15.39,7.91-3.18.89-4.2.06-11.91.17-16.55.13-5.7.39-12.23.25-17.93-.07-2.81-1.84-5.14-3.28-7.16l-5.41-1.67-1.9-15C79.15,8.81,74.49,6,72.89,5" style="fill:none;stroke:#fff;stroke-linecap:round;stroke-linejoin:round;stroke-width:2px"/><path d="M14.42,70.27c-.53-2.26-1.5-4.51-1.52-6.76-.14-15-.08-30-.07-45,0-.53.08-1.07.12-1.59,3.32,0,6.5.55,9.39-.13C26.45,15.87,25.71,5,28.74,3" style="fill:none;stroke:#fff;stroke-linecap:round;stroke-linejoin:round;stroke-width:2px"/><path d="M26.75,61.52c2.25-12.6,4.57-25.19,6.73-37.8C34.57,17.38,35.37,11,36.3,4.63" style="fill:none;stroke:#fff;stroke-linecap:round;stroke-linejoin:round;stroke-width:2px"/><path d="M16.8,71.06A12.12,12.12,0,0,0,14,70.7c-4.45.43-9.29-1-9.34-5-.13-11.67.06-23.45,0-35.12,0-.4,4.17-3.28,3.77-3.68" style="fill:none;stroke:#fff;stroke-linecap:round;stroke-linejoin:round;stroke-width:2px"/><path d="M48.23,190c5.7.26,11.4.69,17.11.75,6,.06,11.93-.22,17.9-.35" style="fill:none;stroke:#fff;stroke-linecap:round;stroke-linejoin:round;stroke-width:2px"/><path d="M15.21,190c3.72-16.44,7.05-36.86,10.74-53.31q3-13.51,5.94-27c.08-.36,1.36-2,1.22-2.39" style="fill:none;stroke:#fff;stroke-linecap:round;stroke-linejoin:round;stroke-width:2px"/><path d="M78.07,53.16l5.17-2.57c0-6.58,0-13.74,0-20.9,0-1.32.25-2.65.38-4" style="fill:none;stroke:#fff;stroke-linecap:round;stroke-linejoin:round;stroke-width:2px"/><path d="M13.62,186.43l1.28,3.84L12.82,192c-1.2-.59-1.84-5.27-.77-5.39,2.89-.35,1.49-2.28,1.5-3.36.13-8.35.07-25.26.07-33.81" style="fill:none;stroke:#fff;stroke-linecap:round;stroke-linejoin:round;stroke-width:2px"/><path d="M11.63,186V158.18" style="fill:none;stroke:#fff;stroke-linecap:round;stroke-linejoin:round;stroke-width:2px"/><path d="M83.24,190.41c-2.66-12.34-7.72-27.85-10.34-40.18-3.07-14.45-6.22-28.89-9.07-43.38-.69-3.47-.35-7.14-.48-10.72" style="fill:none;stroke:#fff;stroke-linecap:round;stroke-linejoin:round;stroke-width:2px"/><path d="M12,86.18c-.13,8.49-.28,17-.38,25.46,0,.79-.05,3.56.38,3.78,2.46,1.27,1.52,1.91,1.59,3.78" style="fill:none;stroke:#fff;stroke-linecap:round;stroke-linejoin:round;stroke-width:2px"/><path d="M71.3,83c0,.66-.28,7.52,0,7.92,4.2,5.28,6,11.56,7.52,17.93a4.64,4.64,0,0,0,.82,2c1,1.18,2.06,5,3.55,6.39,0-9.57.2-21.87.2-31.41L71.3,83" style="fill:none;stroke:#fff;stroke-linecap:round;stroke-linejoin:round;stroke-width:2px"/><path d="M26.35,4.23c2.31-3.67,6.21-3,9.55-3.09,8.74-.26,17.5-.08,26.25-.09A17.32,17.32,0,0,1,72.89,5" style="fill:none;stroke:#fff;stroke-linecap:round;stroke-linejoin:round;stroke-width:2px"/><path d="M82.06,188.66c.13-9.15-.08-19.74,0-28.89.06-12.72,0-25.45,0-38.76" style="fill:none;stroke:#fff;stroke-linecap:round;stroke-linejoin:round;stroke-width:2px"/><path d="M81.25,190.8l.92,1.88,1.24-.66L84,157" style="fill:none;stroke:#fff;stroke-linecap:round;stroke-linejoin:round;stroke-width:2px"/><path d="M63.35,107.26c-7.16,0-23.08,0-30.24,0" style="fill:none;stroke:#fff;stroke-linecap:round;stroke-linejoin:round;stroke-width:2px"/><path d="M71,83.66c-1.56,2.86-5.62,8.65-7.28,11.67H33.11" style="fill:none;stroke:#fff;stroke-linecap:round;stroke-linejoin:round;stroke-width:2px"/><path d="M48.23,64.7c6.23-.8,12.45-1.7,18.7-2.34a56.76,56.76,0,0,1,8.35,0c3.06.14,6.1.5,9.15.77" style="fill:none;stroke:#fff;stroke-linecap:round;stroke-linejoin:round;stroke-width:2px"/><path d="M68.52,77a32.5,32.5,0,0,1,3.57.42c6,1.3,10.54-1.7,11.54-7.58" style="fill:none;stroke:#fff;stroke-linecap:round;stroke-linejoin:round;stroke-width:2px"/><path d="M76.87,54c-1.29-8.65-4.27-24-5.57-32.62" style="fill:none;stroke:#fff;stroke-linecap:round;stroke-linejoin:round;stroke-width:2px"/><path d="M20,45.6c1-7,2.18-18.36,3.2-24.26.27-1.57.28-3.18.42-4.77" style="fill:none;stroke:#fff;stroke-linecap:round;stroke-linejoin:round;stroke-width:2px"/><path d="M18.39,62.31c5.83-.79,11.43.74,17.12,1.52,3.92.53,8,.34,11.92.47" style="fill:none;stroke:#fff;stroke-linecap:round;stroke-linejoin:round;stroke-width:2px"/><path d="M35.1,72.26c.93-.66,1.85-1.88,2.79-1.89,2.78,0,5.57.43,8.35.69" style="fill:none;stroke:#fff;stroke-linecap:round;stroke-linejoin:round;stroke-width:2px"/><path d="M70.11,8.39v8.7L82,16.57" style="fill:none;stroke:#fff;stroke-linecap:round;stroke-linejoin:round;stroke-width:2px"/><path d="M12.83,85.78c2.25-.53,4.49-1.38,6.76-1.51a5.84,5.84,0,0,0,5.58-4c.86-2.09,1.82-4.14,2.77-6.28l-8.75-2.08" style="fill:none;stroke:#fff;stroke-linecap:round;stroke-linejoin:round;stroke-width:2px"/><path d="M47,4.23,28.74,3" style="fill:none;stroke:#fff;stroke-linecap:round;stroke-linejoin:round;stroke-width:2px"/><path d="M12,116.41c1.86-.39,3.91-.42,5.53-1.26,5.27-2.73,10.38-5.76,15.55-8.68" style="fill:none;stroke:#fff;stroke-linecap:round;stroke-linejoin:round;stroke-width:2px"/><path d="M47.43,71.86c3.31-.45,7.43-1.46,10.75-1.46,1.32,0,2.65,1.46,4,2.26" style="fill:none;stroke:#fff;stroke-linecap:round;stroke-linejoin:round;stroke-width:2px"/><path d="M77.27,54.75,78.52,60c3.28,1,5.8,1.31,7.07-1.66a5.19,5.19,0,0,0-2-6.75" style="fill:none;stroke:#fff;stroke-linecap:round;stroke-linejoin:round;stroke-width:2px"/><path d="M33.11,106.47c-.16-2.91-.71-7.41-.94-11.44L26,85.78" style="fill:none;stroke:#fff;stroke-linecap:round;stroke-linejoin:round;stroke-width:2px"/><path d="M47.83,73.05c3,.28,8.49.27,11.54.4" style="fill:none;stroke:#fff;stroke-linecap:round;stroke-linejoin:round;stroke-width:2px"/><path d="M14,16.17l.59-5.28,5-3.87" style="fill:none;stroke:#fff;stroke-linecap:round;stroke-linejoin:round;stroke-width:2px"/><path d="M22.37,20.94H13.62" style="fill:none;stroke:#fff;stroke-linecap:round;stroke-linejoin:round;stroke-width:2px"/><path d="M1,157V117" style="fill:none;stroke:#fff;stroke-linecap:round;stroke-linejoin:round;stroke-width:2px"/><path d="M13.62,149.43c0-6.5,0-13,0-19.49,0-.93.15-9.81,0-10.74" style="fill:none;stroke:#fff;stroke-linecap:round;stroke-linejoin:round;stroke-width:2px"/><path d="M82.44,20.94c-3.71,0-6.76,1-11,1,.19-1.35-1.48-3.58-1.29-4.9" style="fill:none;stroke:#fff;stroke-linecap:round;stroke-linejoin:round;stroke-width:2px"/><path d="M82,120.79v-4.18l-17.1-8.55" style="fill:none;stroke:#fff;stroke-linecap:round;stroke-linejoin:round;stroke-width:2px"/><path d="M68.12,2.64l-1,1.2H47.83" style="fill:none;stroke:#fff;stroke-linecap:round;stroke-linejoin:round;stroke-width:2px"/><path d="M24,84.19c1.45.19,21.2,1.17,23.33,1.44-.23-4.1-.06-10.47-.27-14.31" style="fill:none;stroke:#fff;stroke-linecap:round;stroke-linejoin:round;stroke-width:2px"/><path d="M78.46,75.44c-.13-1.06,0-2.29-.45-3.15-1.73-3.05-1.27-6.09-.34-9.18" style="fill:none;stroke:#fff;stroke-linecap:round;stroke-linejoin:round;stroke-width:2px"/><path d="M84.43,156.19H94" style="fill:none;stroke:#fff;stroke-linecap:round;stroke-linejoin:round;stroke-width:2px"/><path d="M18.79,70.67c-1.06-2.26-1.13-6.83-1.9-9.18-.38-1.16.05-2.65.33-4,.87-4,1.86-7.95,2.73-11.94" style="fill:none;stroke:#fff;stroke-linecap:round;stroke-linejoin:round;stroke-width:2px"/><path d="M84.83,54.75c-2.39,1.2-4.78.91-7.24,0" style="fill:none;stroke:#fff;stroke-linecap:round;stroke-linejoin:round;stroke-width:2px"/><path d="M70.9,76.24,69.29,72c-1.42.53-9.25,1.17-9.92,1.42" style="fill:none;stroke:#fff;stroke-linecap:round;stroke-linejoin:round;stroke-width:2px"/><path d="M47.83,73.05c-2.91-.26-10.21-.13-13.13-.39" style="fill:none;stroke:#fff;stroke-linecap:round;stroke-linejoin:round;stroke-width:2px"/><path d="M71,83.66C69.58,80.48,67.15,76,65.83,73" style="fill:none;stroke:#fff;stroke-linecap:round;stroke-linejoin:round;stroke-width:2px"/><path d="M84.83,68.68v-8" style="fill:none;stroke:#fff;stroke-linecap:round;stroke-linejoin:round;stroke-width:2px"/><path d="M94,156.19c.12-6.25,0-34.46-.12-39.78" style="fill:none;stroke:#fff;stroke-linecap:round;stroke-linejoin:round;stroke-width:2px"/><path d="M73.29,5.83,70.11,8.39,67.32,4.23" style="fill:none;stroke:#fff;stroke-linecap:round;stroke-linejoin:round;stroke-width:2px"/><path d="M11.63,158.18H1" style="fill:none;stroke:#fff;stroke-linecap:round;stroke-linejoin:round;stroke-width:2px"/><path d="M8.45,26.91,12,25.72" style="fill:none;stroke:#fff;stroke-linecap:round;stroke-linejoin:round;stroke-width:2px"/><path d="M27.74,73.05l7-.39" style="fill:none;stroke:#fff;stroke-linecap:round;stroke-linejoin:round;stroke-width:2px"/><path d="M80.05,56h3.19" style="fill:none;stroke:#fff;stroke-linecap:round;stroke-linejoin:round;stroke-width:2px"/><path d="M84.43,69.47l-7.16.4" style="fill:none;stroke:#fff;stroke-linecap:round;stroke-linejoin:round;stroke-width:2px"/><path d="M78.07,72.66c-1.33,0-2.66,0-4,0s-2.65-.25-4-.38" style="fill:none;stroke:#fff;stroke-linecap:round;stroke-linejoin:round;stroke-width:2px"/><path d="M19.59,7c2.17-1.37,4.91-3.5,7.74-4" style="fill:none;stroke:#fff;stroke-linecap:round;stroke-linejoin:round;stroke-width:2px"/><path d="M93.9,117.48c-2-.27-7.59-.27-10.66-.27" style="fill:none;stroke:#fff;stroke-linecap:round;stroke-linejoin:round;stroke-width:2px"/><path d="M1,117a93.59,93.59,0,0,0,11-.56" style="fill:none;stroke:#fff;stroke-linecap:round;stroke-linejoin:round;stroke-width:2px"/><path d="M17.6,70.67h1.19" style="fill:none;stroke:#fff;stroke-linecap:round;stroke-linejoin:round;stroke-width:2px"/></g><g id="bucket-forward"><polygon points="82.8 189.86 12.39 189.46 11.59 85.63 83 85.25 82.8 189.86" style="fill:none"/></g><g id="bucket-reverse"><polygon points="83.24 190.41 12.83 190.01 12.03 86.18 83.44 85.8 83.24 190.41" style="fill:none"/></g><g id="right_wheels-forward"><path id="aa" d="M90.46,69.67c-1.77,1.16-6,1.24-6,1.15-.61-13.31.41-17.72-.1-31,0-1-.3-12,.1-13.07,1.09.66,4.1.76,4.73,1.72.78,1.16,2,2.57,2,4-.17,10.66.64,20,.24,30.69A27.58,27.58,0,0,1,90.46,69.67Z" style="fill:none"/></g><g id="right_wheels-reverse"><path id="right-wheel-reverse" d="M82.11,156.58l1.13-39.37,10.66.27c-.1,6.14.1,38.71.1,38.71Z" style="fill:none"/></g><g id="left_wheels-reverse"><polyline id="left-wheel-reverse" points="13.2 116.41 1 116.97 1 158.18 12.69 157.9" style="fill:none"/></g><g id="left_wheels-forward"><path d="M13.08,69.63S12.4,35.1,12.4,26.78c0-2-3.94,1.48-4.52,2.19a29.75,29.75,0,0,1-2.13,2.11s-.17,26.71-.29,34.6c0,1.88,2,3.46,3.81,3.95Z" style="fill:none"/></g></svg>