<svg xmlns="http://www.w3.org/2000/svg" viewBox="0 0 129.13 331.71"><g id="background"><path d="M112.72,181.25c4.61.68,6.53,4.7,6.52,10.08,0,37.95-.09,75.89.08,113.83,0,4.56-1.62,7.17-5.59,8.92-3,1.34-5.87,3.16-8.92,4.48a11.74,11.74,0,0,1-4.56.65q-37.33.06-74.66.05a15.81,15.81,0,0,1-8.88-2.77c-.81-.53-1.64-1-2.44-1.54-1.24-.8-3.46-1.57-3.5-2.45-.2-4.31-.86-38.5-.79-34.88" style="fill:none;stroke:#fff;stroke-linecap:round;stroke-linejoin:round;stroke-width:2px"/><path d="M118.92,250.08h-104c-.62,0-1.23,0-1.84,0-3.37-.27-3.34-.28-3.37,3.06-.09,8.88.25,15.61.31,24.48" style="fill:none;stroke:#fff;stroke-linecap:round;stroke-linejoin:round;stroke-width:2px"/><path d="M118.92,277.62H10" style="fill:none;stroke:#fff;stroke-linecap:round;stroke-linejoin:round;stroke-width:2px"/><path d="M71.18,42.92c1.33-.1,2.2-.08,2.21,1.84,0,5.2.53,10.4.51,15.6q-.21,58-.61,116c0,2.16.24,3.46,2.79,2.45" style="fill:none;stroke:#fff;stroke-linecap:round;stroke-linejoin:round;stroke-width:2px"/><path d="M115.24,310.67a22.3,22.3,0,0,0-4.28-.88q-48-.07-96.08,0a19.46,19.46,0,0,0-4,.88" style="fill:none;stroke:#fff;stroke-linecap:round;stroke-linejoin:round;stroke-width:2px"/><path d="M51.9,184.91c-.3,2.85-.78,5.7-.87,8.57-.1,3.25.26,6.52.22,9.79,0,2.07,1.07,3.26,2.79,3.26s2.79-1.2,2.82-3.26c0-1.69-1.08-3.85,1.43-5,.35-.15.33-1.35.33-2.06q0-63.34,0-126.69c0-8.16.06-16.32,0-24.48,0-1.78.5-2.4,2.19-2.14" style="fill:none;stroke:#fff;stroke-linecap:round;stroke-linejoin:round;stroke-width:2px"/><path d="M36.3,217.65c3.75,1.11,5.8-.17,5.81-3.67,0-4.19,0-8.37,0-12.55,0-3-1-4-4-4q-9.18,0-18.36,0c-3,0-4,1-4,4,0,4.18,0,8.36,0,12.55,0,3.62,0,3.61,3.67,3.67L36,218" style="fill:none;stroke:#fff;stroke-linecap:round;stroke-linejoin:round;stroke-width:2px"/><path d="M63.84,40.78c.3,12.75,1.72,25.59.67,38.23-1.79,21.45-.26,42.87-1,64.28-.33,9.49-.79,19-1.25,28.46,0,.62-.58,1.22-.88,1.83-.31-.61-.88-1.22-.88-1.83-.06-8.37,0-16.73,0-25.09,0-1.32-.13-2.85,1.84-1.23" style="fill:none;stroke:#fff;stroke-linecap:round;stroke-linejoin:round;stroke-width:2px"/><path d="M69,152.47c-.21-22.24.25-44.51-.92-66.69-.51-9.6-.65-19.19-.84-28.78-.11-5.3.48-10.61.9-15.91.07-.87-.25-3.29,2.08-1.53" style="fill:none;stroke:#fff;stroke-linecap:round;stroke-linejoin:round;stroke-width:2px"/><path d="M9.67,249.17a13.58,13.58,0,0,1-.58-2.76q-.06-28.75,0-57.53c-.27-4.18,3-6.69,6-7.45" style="fill:none;stroke:#fff;stroke-linecap:round;stroke-linejoin:round;stroke-width:2px"/><path d="M58,214.59c-4.25,0-4.19,0-3.7,4.59a18.79,18.79,0,0,1,0,5.19c-.44,2.48.53,3.13,2.81,3.1,6.12-.08,12.25-.11,18.36,0,2.17.05,2.94-.63,2.79-2.8a44.59,44.59,0,0,1,0-7c.24-2.49-.62-3.49-3.1-3.07a7.21,7.21,0,0,1-1.23,0" style="fill:none;stroke:#fff;stroke-linecap:round;stroke-linejoin:round;stroke-width:2px"/><path d="M70,153.39c-.11,6.32-.23,12.65-.27,19,0,.41.57.82.88,1.22.3-.4.87-.81.88-1.22,0-5.71.12-11.43,0-17.13,0-2-1.43-2.42-3.33-2.21a28.82,28.82,0,0,1-4.89-.24" style="fill:none;stroke:#fff;stroke-linecap:round;stroke-linejoin:round;stroke-width:2px"/><path d="M75.77,32.52c2.86-.31,5.71-.79,8.57-.88,3.89-.11,3.76.18,3.66-3.71q-.27-11-.63-22c0-.42-.38-.82-.58-1.23" style="fill:none;stroke:#fff;stroke-linecap:round;stroke-linejoin:round;stroke-width:2px"/><path d="M35.68,186.41c3.27.07,6.54.18,9.79,0,2.7-.17,3.45.72,3.43,3.41-.12,13.87-.06,27.75-.06,41.62,0,4.69-.08,9.38,0,14.07.06,2.32-.75,3.13-3.1,3.11-10.81-.1-21.62,0-32.43,0a8.25,8.25,0,0,0-1.53.29" style="fill:none;stroke:#fff;stroke-linecap:round;stroke-linejoin:round;stroke-width:2px"/><path d="M30.79,214.89c.1-4.38.18-8.77.32-13.15.05-1.6-.83-1.85-2.16-1.86-1.57,0-2.66.66-2.71,2.16-.13,3.67-.19,7.35,0,11,.14,2.8,2.48,2.07,4.23,2.14" style="fill:none;stroke:#fff;stroke-linecap:round;stroke-linejoin:round;stroke-width:2px"/><path d="M34.15,202.35c0,3.57,0,7.14,0,10.71,0,1.36.24,2.2,1.86,2.17,1.44,0,3,0,3-1.87.12-3.77.15-7.55-.06-11.31,0-.75-1.21-1.77-2.07-2.08-1.7-.62-2.67.42-3,2.07" style="fill:none;stroke:#fff;stroke-linecap:round;stroke-linejoin:round;stroke-width:2px"/><path d="M118.92,242.74H49.45" style="fill:none;stroke:#fff;stroke-linecap:round;stroke-linejoin:round;stroke-width:2px"/><path d="M118.92,204.18q-15.76,0-31.52,0c-1.33,0-2.65.19-4,.29" style="fill:none;stroke:#fff;stroke-linecap:round;stroke-linejoin:round;stroke-width:2px"/><path d="M118.92,225.91l-35.19-.31" style="fill:none;stroke:#fff;stroke-linecap:round;stroke-linejoin:round;stroke-width:2px"/><path d="M82.5,234.78h-33" style="fill:none;stroke:#fff;stroke-linecap:round;stroke-linejoin:round;stroke-width:2px"/><path d="M74.24,60.36c4.18,0,8.37-.08,12.54,0,1.54,0,1.93-.48,1.86-1.88-.25-4.59-.56-9.18-.59-13.77,0-3.26.43-6.53.53-9.8A13.75,13.75,0,0,0,88,31.91" style="fill:none;stroke:#fff;stroke-linecap:round;stroke-linejoin:round;stroke-width:2px"/><path d="M45.17,4.67a6.8,6.8,0,0,0-.59,1.84c0,8.16.06,16.32,0,24.48-.12,9.18-.37,18.36-.62,27.54" style="fill:none;stroke:#fff;stroke-linecap:round;stroke-linejoin:round;stroke-width:2px"/><path d="M103.31,236c.1.41.17,1.16.31,1.17,2.44.28,4.95.8,7.3.42.57-.09.78-3.21.92-5s-1.29-1.51-2.41-1.53h-.92c-4.88,0-4.88,0-5.51,4.59" style="fill:none;stroke:#fff;stroke-linecap:round;stroke-linejoin:round;stroke-width:2px"/><path d="M103.31,211.83c0,5.21,0,5.24,5.51,5.18,1,0,2.82-.2,2.92-.62a18.76,18.76,0,0,0,.1-4.86c0-.22-.59-.6-.88-.58-2.55.15-5.1.37-7.65.58" style="fill:none;stroke:#fff;stroke-linecap:round;stroke-linejoin:round;stroke-width:2px"/><path d="M73.63,199c-.1,4.9-.41,9.8-.26,14.69.19,5.82.36,5.81-5.25,5.81-2.45,0-4.9-.1-7.34,0-1.73.1-2.22-.46-2.19-2.18.11-5.71,0-11.42,0-17.13a5.49,5.49,0,0,0-.29-1.23" style="fill:none;stroke:#fff;stroke-linecap:round;stroke-linejoin:round;stroke-width:2px"/><path d="M73.63,179.4q-.15,9-.31,18c2.53,1.85,1.5,4.61,2,7,.16.86,1.92,2.18,2.59,2,1.08-.3,2.65-1.66,2.67-2.59.14-6.12-.08-12.24-.19-18.36a1.65,1.65,0,0,0-.3-.61" style="fill:none;stroke:#fff;stroke-linecap:round;stroke-linejoin:round;stroke-width:2px"/><path d="M74.55,38.64c1.56-3.88-.1-7.76,0-11.63.11-3.57.38-7.14.59-10.71" style="fill:none;stroke:#fff;stroke-linecap:round;stroke-linejoin:round;stroke-width:2px"/><path d="M57.41,38.64c.1-4.9.28-9.79.27-14.69,0-2.45-.37-4.9-.58-7.34" style="fill:none;stroke:#fff;stroke-linecap:round;stroke-linejoin:round;stroke-width:2px"/><path d="M86.17,4.06H45.78" style="fill:none;stroke:#fff;stroke-linecap:round;stroke-linejoin:round;stroke-width:2px"/><path d="M70,22.73c.3-4.19.71-8.36.87-12.55a36.91,36.91,0,0,0-.57-5.51" style="fill:none;stroke:#fff;stroke-linecap:round;stroke-linejoin:round;stroke-width:2px"/><path d="M45.48,60.67a44.26,44.26,0,0,0,.37,6.11,1.15,1.15,0,0,0,2.25.29,33.26,33.26,0,0,0,.13-6.4" style="fill:none;stroke:#fff;stroke-linecap:round;stroke-linejoin:round;stroke-width:2px"/><path d="M83.73,60.67c0,2-.06,4.08,0,6.12,0,.32.76.85,1.17.85a1.54,1.54,0,0,0,1.18-.86,45.84,45.84,0,0,0,.64-5.5" style="fill:none;stroke:#fff;stroke-linecap:round;stroke-linejoin:round;stroke-width:2px"/><path d="M16.41,231.72c1.34,2.62,3.7,1,5.51,1.1s1.19-1.8,1.19-2.93.09-3.39-.33-3.51a19.4,19.4,0,0,0-5.46-.41c-.31,0-.83.74-.87,1.17-.12,1.31,0,2.65,0,4" style="fill:none;stroke:#fff;stroke-linecap:round;stroke-linejoin:round;stroke-width:2px"/><path d="M57.1,198.68c-.1-3.47-.16-6.94-.33-10.41a26,26,0,0,0-.58-3.36" style="fill:none;stroke:#fff;stroke-linecap:round;stroke-linejoin:round;stroke-width:2px"/><path d="M63.22,25.17c-.4-2.5-.92-5-1.18-7.5a26.06,26.06,0,0,1,.26-4.12c.12-2.15.21-4.29.31-6.43" style="fill:none;stroke:#fff;stroke-linecap:round;stroke-linejoin:round;stroke-width:2px"/><path d="M74.85,198.37c.1-3.47.17-6.94.33-10.4a21.73,21.73,0,0,1,.59-3.06" style="fill:none;stroke:#fff;stroke-linecap:round;stroke-linejoin:round;stroke-width:2px"/><path d="M83.42,206.94c-.1,3.87-.26,7.75-.29,11.63,0,5.1,0,10.2,0,15.3v8.26" style="fill:none;stroke:#fff;stroke-linecap:round;stroke-linejoin:round;stroke-width:2px"/><path d="M39.66,185.82c-3.06-3-5.81-5.09-11-4.93-.47,0-12.26-.27-13.55.54" style="fill:none;stroke:#fff;stroke-linecap:round;stroke-linejoin:round;stroke-width:2px"/><path d="M112.72,181.25c-.51.2-7.17.14-10.65.18a12.46,12.46,0,0,0-9.78,4.39" style="fill:none;stroke:#fff;stroke-linecap:round;stroke-linejoin:round;stroke-width:2px"/><path d="M64.14,51.8c-4,0-4.24-.37-3.4-4.3a20.87,20.87,0,0,0-.88-11.62" style="fill:none;stroke:#fff;stroke-linecap:round;stroke-linejoin:round;stroke-width:2px"/><path d="M67.81,51.8c4,0,3.92-.35,3.5-4.3-.4-3.71.44-7.54.44-11.31s-.34-7.75-.61-11.63c0-.42-.57-.81-.88-1.22" style="fill:none;stroke:#fff;stroke-linecap:round;stroke-linejoin:round;stroke-width:2px"/><path d="M56.49,32.52c-2.55-.31-5.09-.67-7.65-.9-1.32-.12-2.65,0-4,0" style="fill:none;stroke:#fff;stroke-linecap:round;stroke-linejoin:round;stroke-width:2px"/><path d="M74.55,15.38A60.48,60.48,0,0,1,74,9c0-2.47-1.11-2-2.49-1.23" style="fill:none;stroke:#fff;stroke-linecap:round;stroke-linejoin:round;stroke-width:2px"/><path d="M96.27,186.41c-3.67.07-7.34,0-11,0-1.19,0-2.12-.43-2,1.84a162.78,162.78,0,0,1-.22,16.82c-.08,1.94,1.38,1.35,2.2,1.84" style="fill:none;stroke:#fff;stroke-linecap:round;stroke-linejoin:round;stroke-width:2px"/><path d="M58,67.1c-2.8,1.08-2.94,1-3.05-1.84-.06-1.53,0-3.06,0-4.59" style="fill:none;stroke:#fff;stroke-linecap:round;stroke-linejoin:round;stroke-width:2px"/><path d="M61.08,19.05a23.3,23.3,0,0,0-.58,3.37c-.08,3.16,0,6.32,0,9.49,0,3.37,0,3.37-3.37,3.06" style="fill:none;stroke:#fff;stroke-linecap:round;stroke-linejoin:round;stroke-width:2px"/><path d="M70.87,153.39c.21-2.55.58-5.1.55-7.65,0-1.27-1-1.21-1.77-.31" style="fill:none;stroke:#fff;stroke-linecap:round;stroke-linejoin:round;stroke-width:2px"/><path d="M76.08,206c.1,1-.08,2.74.36,2.92.93.37,2.19-.06,3.31-.17l-.31-2.44" style="fill:none;stroke:#fff;stroke-linecap:round;stroke-linejoin:round;stroke-width:2px"/><path d="M52.21,206c.1,1-.16,2.43.41,2.95a3.05,3.05,0,0,0,2.88,0c.48-.28.28-1.72.38-2.63" style="fill:none;stroke:#fff;stroke-linecap:round;stroke-linejoin:round;stroke-width:2px"/><path d="M61.08,5.9c-2.19,1.22-2.73,3.1-2.5,5.51a16.67,16.67,0,0,1-.56,4" style="fill:none;stroke:#fff;stroke-linecap:round;stroke-linejoin:round;stroke-width:2px"/><path d="M78.52,179.7c2.15-1.38,1.41-3.57,1.5-5.51,0-.29-.34-.84-.58-.87-1.93-.28-3.87-.45-5.81-.65" style="fill:none;stroke:#fff;stroke-linecap:round;stroke-linejoin:round;stroke-width:2px"/><path d="M73.93,67.1c2.71,1.06,3,.91,3.06-1.84,0-1.53,0-3.06,0-4.59" style="fill:none;stroke:#fff;stroke-linecap:round;stroke-linejoin:round;stroke-width:2px"/><path d="M118.92,202.35H83.73" style="fill:none;stroke:#fff;stroke-linecap:round;stroke-linejoin:round;stroke-width:2px"/><path d="M57.72,60.36c-3.68,0-7.35,0-11,0a12.82,12.82,0,0,1-2.6-.59" style="fill:none;stroke:#fff;stroke-linecap:round;stroke-linejoin:round;stroke-width:2px"/><path d="M58,172.67c-1.83.3-4,.14-5.39,1.09-.85.58-1.08,3.11-.59,4.36.63,1.58,1,2.76.26,4.38-.26.56.38,1.7.89,2.36a1.8,1.8,0,0,0,1.7,0,5,5,0,0,0,.66-2.4c.07-3,0-5.92,0-8.88" style="fill:none;stroke:#fff;stroke-linecap:round;stroke-linejoin:round;stroke-width:2px"/><path d="M118.92,240.29c-1.71-.45-3.76,1-5.21-.92" style="fill:none;stroke:#fff;stroke-linecap:round;stroke-linejoin:round;stroke-width:2px"/><path d="M118.92,220.71c-1.71-.46-3.76,1-5.21-.92" style="fill:none;stroke:#fff;stroke-linecap:round;stroke-linejoin:round;stroke-width:2px"/><path d="M118.92,228.66,114,229" style="fill:none;stroke:#fff;stroke-linecap:round;stroke-linejoin:round;stroke-width:2px"/><path d="M118.92,223.77c-4.19-.21-8.37-.47-12.55-.59-3.06-.1-6.12,0-9.18,0" style="fill:none;stroke:#fff;stroke-linecap:round;stroke-linejoin:round;stroke-width:2px"/><path d="M118.92,200.21H114" style="fill:none;stroke:#fff;stroke-linecap:round;stroke-linejoin:round;stroke-width:2px"/><path d="M76.38,173.58c.41,2-.95,4.32.92,6.12" style="fill:none;stroke:#fff;stroke-linecap:round;stroke-linejoin:round;stroke-width:2px"/><path d="M118.92,206.63l-4.9.31" style="fill:none;stroke:#fff;stroke-linecap:round;stroke-linejoin:round;stroke-width:2px"/><path d="M89.85,223.77H83.73" style="fill:none;stroke:#fff;stroke-linecap:round;stroke-linejoin:round;stroke-width:2px"/><path d="M67.81,21.2l-4.28-.31" style="fill:none;stroke:#fff;stroke-linecap:round;stroke-linejoin:round;stroke-width:2px"/><path d="M78.22,180.62a10.11,10.11,0,0,1,1.17,2.16c.15.54,0,1.64-.28,1.74a3.9,3.9,0,0,1-2.39,0c-.28-.1-.44-1.2-.29-1.74a10.62,10.62,0,0,1,1.18-2.16" style="fill:none;stroke:#fff;stroke-linecap:round;stroke-linejoin:round;stroke-width:2px"/><path d="M69.65,6.81a38.23,38.23,0,0,1-5.51.55,2.35,2.35,0,0,1-2.45-2.69" style="fill:none;stroke:#fff;stroke-linecap:round;stroke-linejoin:round;stroke-width:2px"/><path d="M61.08,28.54l1.84-2.75" style="fill:none;stroke:#fff;stroke-linecap:round;stroke-linejoin:round;stroke-width:2px"/><path d="M68.43,15.69c-.31-1.74-.7-3.46-.89-5.21a13.7,13.7,0,0,1,.27-2.75" style="fill:none;stroke:#fff;stroke-linecap:round;stroke-linejoin:round;stroke-width:2px"/><path d="M63.53,16c.31-1.83.69-3.66.88-5.51a13,13,0,0,0-.27-2.75" style="fill:none;stroke:#fff;stroke-linecap:round;stroke-linejoin:round;stroke-width:2px"/><path d="M67.81,40.78c-.51-.2-1.06-.65-1.52-.57-1.24.23-2.59,1.18-3.13-.94,0,0-1,.18-1.47.29" style="fill:none;stroke:#fff;stroke-linecap:round;stroke-linejoin:round;stroke-width:2px"/><path d="M67.51,26.09H64.14" style="fill:none;stroke:#fff;stroke-linecap:round;stroke-linejoin:round;stroke-width:2px"/><path d="M67.2,10.79H64.75" style="fill:none;stroke:#fff;stroke-linecap:round;stroke-linejoin:round;stroke-width:2px"/><path d="M44,221.63c-.23-1.77-1.57-1.53-2.76-1.53-8.36,0-16.73,0-25.09,0-2,0-2.84.76-2.78,2.78q.13,4.59,0,9.18c-.06,2,.76,2.79,2.78,2.78q12.7-.09,25.4,0c1.89,0,2.54-.59,2.48-2.48-.12-3.47,0-6.94,0-10.41" style="fill:none;stroke:#fff;stroke-linecap:round;stroke-linejoin:round;stroke-width:2px"/><path d="M32.93,260.79c-.88-1.58-2.16-2.73-3.94-1.76-1.21.66-2.48,2-1.22,3.56a4.28,4.28,0,0,0,2.71,1.77c1.85,0,2.78-1.3,2.45-3.26" style="fill:none;stroke:#fff;stroke-linecap:round;stroke-linejoin:round;stroke-width:2px"/><path d="M79.14,266.61c-.11-.21-.2-.58-.31-.59-3.47-.13-6.94-.27-10.4-.25-.31,0-.81,1.12-.89,1.76-.81,6-.43,6.42,5.48,6.42,6.12,0,6.12,0,6.12-6.12v-.92" style="fill:none;stroke:#fff;stroke-linecap:round;stroke-linejoin:round;stroke-width:2px"/><path d="M23.75,201.43c-.79-1.89-2.59-1.84-3.92-1.37-.63.21-.89,2.08-.93,3.21-.13,3.16,0,6.32-.08,9.48-.07,1.9.59,2.51,2.48,2.51s2.54-.62,2.48-2.51c-.11-3.67,0-7.34,0-11" style="fill:none;stroke:#fff;stroke-linecap:round;stroke-linejoin:round;stroke-width:2px"/></g><g id="bucket-forward"><rect x="44.24" y="4.32" width="42.85" height="55.08" transform="translate(131.34 63.73) rotate(180)" style="fill:none"/></g><g id="bucket-reverse"><rect x="44.78" y="4.67" width="42.85" height="55.08" transform="translate(132.42 64.42) rotate(180)" style="fill:none"/></g><g id="right_wheels-forward"><rect x="92.29" y="171.3" width="33.13" height="78.79" rx="3.09" transform="translate(217.72 421.38) rotate(180)" style="fill:none"/></g><g id="right_wheels-reverse"><rect x="92.29" y="250.08" width="33.09" height="74.01" rx="2.99" transform="translate(217.68 574.18) rotate(180)" style="fill:none"/></g><g id="left_wheels-reverse"><rect x="9.06" y="247.92" width="30.6" height="76.44" rx="2.93" transform="translate(48.73 572.28) rotate(180)" style="fill:none"/></g><g id="left_wheels-forward"><rect x="9.06" y="171.47" width="30.6" height="76.04" rx="2.92" transform="translate(48.73 418.99) rotate(180)" style="fill:none"/></g></svg>