<svg xmlns="http://www.w3.org/2000/svg" viewBox="0 0 129.13 331.71"><g id="background"><path d="M18.13,147.17c-4.61-.67-6.53-4.7-6.52-10.08,0-37.95.09-75.89-.08-113.83,0-4.56,1.62-7.17,5.59-8.92C20.16,13,23,11.18,26,9.86a11.74,11.74,0,0,1,4.56-.65q37.34-.06,74.66-.05a15.89,15.89,0,0,1,8.88,2.77c.81.53,1.64,1,2.44,1.54,1.24.8,3.46,1.57,3.5,2.45.2,4.31.86,38.5.79,34.88" style="fill:none;stroke:#fff;stroke-linecap:round;stroke-linejoin:round;stroke-width:2px"/><path d="M11.93,78.34H116c.62,0,1.23,0,1.84,0,3.37.27,3.34.28,3.37-3.06.09-8.88-.25-15.61-.31-24.48" style="fill:none;stroke:#fff;stroke-linecap:round;stroke-linejoin:round;stroke-width:2px"/><path d="M11.93,50.8H120.87" style="fill:none;stroke:#fff;stroke-linecap:round;stroke-linejoin:round;stroke-width:2px"/><path d="M59.67,285.5c-1.33.1-2.2.08-2.21-1.84,0-5.2-.53-10.4-.51-15.6q.21-58,.61-116c0-2.16-.24-3.46-2.79-2.45" style="fill:none;stroke:#fff;stroke-linecap:round;stroke-linejoin:round;stroke-width:2px"/><path d="M15.61,17.75a22.3,22.3,0,0,0,4.28.88q48,.07,96.08,0a18.82,18.82,0,0,0,4-.88" style="fill:none;stroke:#fff;stroke-linecap:round;stroke-linejoin:round;stroke-width:2px"/><path d="M79,143.51c.3-2.85.78-5.7.87-8.56.1-3.26-.27-6.53-.22-9.8,0-2.06-1.07-3.26-2.79-3.26S74,123.09,74,125.15c0,1.69,1.08,3.85-1.43,5-.36.16-.33,1.35-.33,2.06q0,63.34,0,126.69c0,8.16-.06,16.32,0,24.48,0,1.78-.5,2.4-2.19,2.14" style="fill:none;stroke:#fff;stroke-linecap:round;stroke-linejoin:round;stroke-width:2px"/><path d="M94.55,110.77c-3.75-1.11-5.8.18-5.81,3.67,0,4.19,0,8.37,0,12.55,0,3,1,4,4,4q9.18,0,18.36,0c3,0,4-1,4-4q0-6.27,0-12.55c0-3.61,0-3.61-3.67-3.67l-16.52-.3" style="fill:none;stroke:#fff;stroke-linecap:round;stroke-linejoin:round;stroke-width:2px"/><path d="M67,287.64c-.3-12.75-1.72-25.59-.67-38.23,1.78-21.45.26-42.87,1-64.28.33-9.49.79-19,1.25-28.46,0-.62.58-1.22.88-1.83.31.61.88,1.22.88,1.83.06,8.37,0,16.73,0,25.09,0,1.32.13,2.86-1.84,1.23" style="fill:none;stroke:#fff;stroke-linecap:round;stroke-linejoin:round;stroke-width:2px"/><path d="M61.81,176c.21,22.24-.25,44.51.92,66.69.51,9.61.65,19.19.84,28.78.11,5.3-.48,10.62-.9,15.91-.07.87.25,3.29-2.08,1.54" style="fill:none;stroke:#fff;stroke-linecap:round;stroke-linejoin:round;stroke-width:2px"/><path d="M121.18,79.25a13.58,13.58,0,0,1,.58,2.76q.06,28.76,0,57.53c.27,4.18-3,6.69-6,7.45" style="fill:none;stroke:#fff;stroke-linecap:round;stroke-linejoin:round;stroke-width:2px"/><path d="M72.83,113.83c4.25,0,4.19,0,3.7-4.59a18.79,18.79,0,0,1,0-5.19c.44-2.48-.53-3.13-2.81-3.1-6.12.09-12.25.11-18.36,0-2.17,0-2.94.63-2.79,2.8a44.59,44.59,0,0,1,0,7c-.24,2.49.62,3.49,3.1,3.07a7.21,7.21,0,0,1,1.23,0" style="fill:none;stroke:#fff;stroke-linecap:round;stroke-linejoin:round;stroke-width:2px"/><path d="M60.89,175c.11-6.32.23-12.65.27-19,0-.41-.57-.82-.88-1.22-.3.4-.87.81-.88,1.22,0,5.71-.12,11.43,0,17.14.05,2,1.43,2.41,3.33,2.2a28.82,28.82,0,0,1,4.89.24" style="fill:none;stroke:#fff;stroke-linecap:round;stroke-linejoin:round;stroke-width:2px"/><path d="M55.08,295.9c-2.86.31-5.71.79-8.57.88-3.89.12-3.76-.18-3.66,3.71q.27,11,.63,22c0,.42.38.82.58,1.23" style="fill:none;stroke:#fff;stroke-linecap:round;stroke-linejoin:round;stroke-width:2px"/><path d="M95.17,142c-3.27-.07-6.54-.18-9.79,0-2.7.17-3.45-.72-3.43-3.41.12-13.87.06-27.75.06-41.62,0-4.69.08-9.38,0-14.07-.06-2.32.75-3.13,3.1-3.11,10.81.1,21.62.05,32.43,0a8.25,8.25,0,0,0,1.53-.29" style="fill:none;stroke:#fff;stroke-linecap:round;stroke-linejoin:round;stroke-width:2px"/><path d="M100.06,113.53c-.1,4.38-.18,8.77-.32,13.15,0,1.6.83,1.85,2.16,1.87,1.57,0,2.66-.67,2.71-2.17.13-3.67.19-7.35,0-11-.14-2.8-2.48-2.07-4.23-2.14" style="fill:none;stroke:#fff;stroke-linecap:round;stroke-linejoin:round;stroke-width:2px"/><path d="M96.7,126.07c0-3.57,0-7.14,0-10.71,0-1.36-.24-2.2-1.86-2.16-1.44,0-3,0-3,1.86-.11,3.77-.14,7.55.07,11.31,0,.75,1.21,1.77,2.07,2.08,1.7.62,2.67-.42,3-2.07" style="fill:none;stroke:#fff;stroke-linecap:round;stroke-linejoin:round;stroke-width:2px"/><path d="M11.93,85.68H81.4" style="fill:none;stroke:#fff;stroke-linecap:round;stroke-linejoin:round;stroke-width:2px"/><path d="M11.93,124.24q15.77,0,31.52,0c1.33,0,2.65-.19,4-.29" style="fill:none;stroke:#fff;stroke-linecap:round;stroke-linejoin:round;stroke-width:2px"/><path d="M11.93,102.51l35.19.31" style="fill:none;stroke:#fff;stroke-linecap:round;stroke-linejoin:round;stroke-width:2px"/><path d="M48.35,93.64H81.4" style="fill:none;stroke:#fff;stroke-linecap:round;stroke-linejoin:round;stroke-width:2px"/><path d="M56.61,268.06c-4.18,0-8.37.08-12.54,0-1.54,0-1.93.48-1.86,1.87.25,4.59.56,9.18.59,13.77,0,3.27-.43,6.53-.54,9.8a14.47,14.47,0,0,0,.58,3.06" style="fill:none;stroke:#fff;stroke-linecap:round;stroke-linejoin:round;stroke-width:2px"/><path d="M85.68,323.75a6.8,6.8,0,0,0,.59-1.84c0-8.16-.06-16.32,0-24.48.12-9.18.37-18.36.62-27.54" style="fill:none;stroke:#fff;stroke-linecap:round;stroke-linejoin:round;stroke-width:2px"/><path d="M27.54,92.41c-.1-.41-.17-1.15-.31-1.17-2.44-.28-4.95-.8-7.3-.42-.57.09-.78,3.21-.92,5s1.29,1.51,2.41,1.53h.92c4.88,0,4.88,0,5.51-4.59" style="fill:none;stroke:#fff;stroke-linecap:round;stroke-linejoin:round;stroke-width:2px"/><path d="M27.54,116.59c0-5.21,0-5.24-5.51-5.18-1,0-2.83.21-2.92.62a18.76,18.76,0,0,0-.1,4.86c0,.22.59.6.88.58,2.55-.15,5.1-.37,7.65-.58" style="fill:none;stroke:#fff;stroke-linecap:round;stroke-linejoin:round;stroke-width:2px"/><path d="M57.22,129.44c.1-4.9.41-9.8.26-14.69-.19-5.82-.36-5.81,5.25-5.81,2.45,0,4.9.1,7.34,0,1.73-.1,2.22.46,2.19,2.18-.11,5.71-.05,11.42,0,17.13a5.49,5.49,0,0,0,.29,1.23" style="fill:none;stroke:#fff;stroke-linecap:round;stroke-linejoin:round;stroke-width:2px"/><path d="M57.22,149q.15-9,.31-18.05c-2.53-1.85-1.5-4.61-2-7-.16-.85-1.92-2.18-2.59-2-1.08.31-2.65,1.66-2.67,2.6-.14,6.11.08,12.23.19,18.35a1.65,1.65,0,0,0,.3.61" style="fill:none;stroke:#fff;stroke-linecap:round;stroke-linejoin:round;stroke-width:2px"/><path d="M56.3,289.78c-1.56,3.88.1,7.76,0,11.63-.11,3.57-.38,7.14-.59,10.71" style="fill:none;stroke:#fff;stroke-linecap:round;stroke-linejoin:round;stroke-width:2px"/><path d="M73.44,289.78c-.1,4.9-.29,9.8-.27,14.69,0,2.45.37,4.9.58,7.35" style="fill:none;stroke:#fff;stroke-linecap:round;stroke-linejoin:round;stroke-width:2px"/><path d="M44.68,324.36H85.07" style="fill:none;stroke:#fff;stroke-linecap:round;stroke-linejoin:round;stroke-width:2px"/><path d="M60.89,305.7c-.3,4.18-.71,8.36-.87,12.54a36.91,36.91,0,0,0,.57,5.51" style="fill:none;stroke:#fff;stroke-linecap:round;stroke-linejoin:round;stroke-width:2px"/><path d="M85.37,267.75a44.26,44.26,0,0,0-.37-6.11,1.15,1.15,0,0,0-2.25-.29,33.26,33.26,0,0,0-.13,6.4" style="fill:none;stroke:#fff;stroke-linecap:round;stroke-linejoin:round;stroke-width:2px"/><path d="M47.12,267.75c0-2,.06-4.08,0-6.12,0-.32-.76-.85-1.17-.85a1.54,1.54,0,0,0-1.18.86,46.08,46.08,0,0,0-.64,5.5" style="fill:none;stroke:#fff;stroke-linecap:round;stroke-linejoin:round;stroke-width:2px"/><path d="M114.44,96.7c-1.34-2.62-3.7-1-5.51-1.1s-1.19,1.8-1.19,2.93-.09,3.39.33,3.51a19.4,19.4,0,0,0,5.46.41c.31,0,.83-.74.87-1.17.12-1.31,0-2.65,0-4" style="fill:none;stroke:#fff;stroke-linecap:round;stroke-linejoin:round;stroke-width:2px"/><path d="M73.75,129.74c.1,3.47.16,6.94.33,10.41a26,26,0,0,0,.58,3.36" style="fill:none;stroke:#fff;stroke-linecap:round;stroke-linejoin:round;stroke-width:2px"/><path d="M67.63,303.25c.4,2.5.92,5,1.18,7.5a26.26,26.26,0,0,1-.26,4.13c-.12,2.14-.21,4.28-.31,6.42" style="fill:none;stroke:#fff;stroke-linecap:round;stroke-linejoin:round;stroke-width:2px"/><path d="M56,130.05c-.1,3.47-.17,6.94-.33,10.4a21.73,21.73,0,0,1-.59,3.06" style="fill:none;stroke:#fff;stroke-linecap:round;stroke-linejoin:round;stroke-width:2px"/><path d="M47.43,121.48c.1-3.87.25-7.75.29-11.63.05-5.1,0-10.2,0-15.3V86.29" style="fill:none;stroke:#fff;stroke-linecap:round;stroke-linejoin:round;stroke-width:2px"/><path d="M91.19,142.6c3.06,3,5.81,5.1,11,4.93.47,0,12.26.27,13.55-.54" style="fill:none;stroke:#fff;stroke-linecap:round;stroke-linejoin:round;stroke-width:2px"/><path d="M18.13,147.17c.51-.2,7.17-.14,10.65-.18a12.46,12.46,0,0,0,9.78-4.39" style="fill:none;stroke:#fff;stroke-linecap:round;stroke-linejoin:round;stroke-width:2px"/><path d="M66.71,276.63c4.05,0,4.24.36,3.4,4.29A20.86,20.86,0,0,0,71,292.54" style="fill:none;stroke:#fff;stroke-linecap:round;stroke-linejoin:round;stroke-width:2px"/><path d="M63,276.63c-4,0-3.92.34-3.5,4.29.4,3.71-.44,7.54-.44,11.31s.34,7.75.61,11.63c0,.42.57.82.88,1.22" style="fill:none;stroke:#fff;stroke-linecap:round;stroke-linejoin:round;stroke-width:2px"/><path d="M74.36,295.9c2.55.31,5.09.67,7.65.9,1.32.12,2.65,0,4,0" style="fill:none;stroke:#fff;stroke-linecap:round;stroke-linejoin:round;stroke-width:2px"/><path d="M56.3,313a60.48,60.48,0,0,1,.57,6.42c0,2.47,1.11,2,2.49,1.23" style="fill:none;stroke:#fff;stroke-linecap:round;stroke-linejoin:round;stroke-width:2px"/><path d="M34.58,142c3.67-.07,7.34,0,11,0,1.19,0,2.12.43,2-1.84a162.82,162.82,0,0,1,.22-16.82c.08-1.93-1.38-1.34-2.2-1.84" style="fill:none;stroke:#fff;stroke-linecap:round;stroke-linejoin:round;stroke-width:2px"/><path d="M72.83,261.32c2.8-1.08,2.94-1,3,1.84.06,1.53,0,3.06,0,4.59" style="fill:none;stroke:#fff;stroke-linecap:round;stroke-linejoin:round;stroke-width:2px"/><path d="M69.77,309.37a23.06,23.06,0,0,0,.58-3.37c.08-3.16,0-6.32,0-9.48,0-3.38,0-3.38,3.37-3.06" style="fill:none;stroke:#fff;stroke-linecap:round;stroke-linejoin:round;stroke-width:2px"/><path d="M60,175c-.21,2.55-.58,5.1-.55,7.65,0,1.27,1,1.21,1.77.31" style="fill:none;stroke:#fff;stroke-linecap:round;stroke-linejoin:round;stroke-width:2px"/><path d="M54.77,122.4c-.1-1,.08-2.74-.36-2.91-.93-.38-2.19.05-3.31.16l.31,2.44" style="fill:none;stroke:#fff;stroke-linecap:round;stroke-linejoin:round;stroke-width:2px"/><path d="M78.64,122.4c-.1-1,.16-2.43-.41-3a3.05,3.05,0,0,0-2.88,0c-.48.28-.28,1.72-.38,2.63" style="fill:none;stroke:#fff;stroke-linecap:round;stroke-linejoin:round;stroke-width:2px"/><path d="M69.77,322.53c2.19-1.23,2.73-3.11,2.5-5.52a16.74,16.74,0,0,1,.56-4" style="fill:none;stroke:#fff;stroke-linecap:round;stroke-linejoin:round;stroke-width:2px"/><path d="M52.33,148.72c-2.15,1.38-1.41,3.57-1.5,5.51a1.11,1.11,0,0,0,.58.88c1.93.27,3.87.44,5.81.64" style="fill:none;stroke:#fff;stroke-linecap:round;stroke-linejoin:round;stroke-width:2px"/><path d="M56.92,261.32c-2.71-1.06-3-.91-3.06,1.84,0,1.53,0,3.06,0,4.59" style="fill:none;stroke:#fff;stroke-linecap:round;stroke-linejoin:round;stroke-width:2px"/><path d="M11.93,126.07H47.12" style="fill:none;stroke:#fff;stroke-linecap:round;stroke-linejoin:round;stroke-width:2px"/><path d="M73.13,268.06c3.68,0,7.35,0,11,0a13.53,13.53,0,0,1,2.6.59" style="fill:none;stroke:#fff;stroke-linecap:round;stroke-linejoin:round;stroke-width:2px"/><path d="M72.83,155.75c1.83-.3,4-.14,5.39-1.09.85-.58,1.08-3.1.59-4.36-.63-1.58-1-2.76-.26-4.38.26-.56-.38-1.7-.89-2.35a1.77,1.77,0,0,0-1.7,0,5,5,0,0,0-.66,2.4c-.07,3,0,5.92,0,8.88" style="fill:none;stroke:#fff;stroke-linecap:round;stroke-linejoin:round;stroke-width:2px"/><path d="M11.93,88.13c1.71.45,3.76-1,5.21.92" style="fill:none;stroke:#fff;stroke-linecap:round;stroke-linejoin:round;stroke-width:2px"/><path d="M11.93,107.71c1.71.46,3.76-1,5.21.92" style="fill:none;stroke:#fff;stroke-linecap:round;stroke-linejoin:round;stroke-width:2px"/><path d="M11.93,99.76l4.9-.31" style="fill:none;stroke:#fff;stroke-linecap:round;stroke-linejoin:round;stroke-width:2px"/><path d="M11.93,104.65c4.19.21,8.37.47,12.55.6,3.06.09,6.12,0,9.18,0" style="fill:none;stroke:#fff;stroke-linecap:round;stroke-linejoin:round;stroke-width:2px"/><path d="M11.93,128.21h4.9" style="fill:none;stroke:#fff;stroke-linecap:round;stroke-linejoin:round;stroke-width:2px"/><path d="M54.47,154.84c-.41-2,1-4.32-.92-6.12" style="fill:none;stroke:#fff;stroke-linecap:round;stroke-linejoin:round;stroke-width:2px"/><path d="M11.93,121.79l4.9-.31" style="fill:none;stroke:#fff;stroke-linecap:round;stroke-linejoin:round;stroke-width:2px"/><path d="M41,104.65h6.12" style="fill:none;stroke:#fff;stroke-linecap:round;stroke-linejoin:round;stroke-width:2px"/><path d="M63,307.23l4.28.3" style="fill:none;stroke:#fff;stroke-linecap:round;stroke-linejoin:round;stroke-width:2px"/><path d="M52.63,147.8a10.11,10.11,0,0,1-1.17-2.16c-.15-.54,0-1.64.28-1.74a4.06,4.06,0,0,1,2.39,0c.28.1.44,1.2.29,1.74a10.62,10.62,0,0,1-1.18,2.16" style="fill:none;stroke:#fff;stroke-linecap:round;stroke-linejoin:round;stroke-width:2px"/><path d="M61.2,321.61a38.23,38.23,0,0,1,5.51-.55,2.35,2.35,0,0,1,2.45,2.69" style="fill:none;stroke:#fff;stroke-linecap:round;stroke-linejoin:round;stroke-width:2px"/><path d="M69.77,299.88l-1.84,2.76" style="fill:none;stroke:#fff;stroke-linecap:round;stroke-linejoin:round;stroke-width:2px"/><path d="M62.42,312.73c.31,1.74.7,3.46.89,5.21a13.63,13.63,0,0,1-.27,2.75" style="fill:none;stroke:#fff;stroke-linecap:round;stroke-linejoin:round;stroke-width:2px"/><path d="M67.32,312.43c-.31,1.83-.69,3.66-.88,5.51a13,13,0,0,0,.27,2.75" style="fill:none;stroke:#fff;stroke-linecap:round;stroke-linejoin:round;stroke-width:2px"/><path d="M63,287.64c.51.21,1.06.65,1.52.57,1.24-.23,2.59-1.18,3.13,1,0,0,1-.19,1.47-.29" style="fill:none;stroke:#fff;stroke-linecap:round;stroke-linejoin:round;stroke-width:2px"/><path d="M63.34,302.33h3.37" style="fill:none;stroke:#fff;stroke-linecap:round;stroke-linejoin:round;stroke-width:2px"/><path d="M63.65,317.63H66.1" style="fill:none;stroke:#fff;stroke-linecap:round;stroke-linejoin:round;stroke-width:2px"/><path d="M86.9,106.79c.23,1.77,1.57,1.53,2.76,1.53,8.36,0,16.73,0,25.09,0,2,0,2.84-.76,2.78-2.78q-.14-4.59,0-9.18c.06-2-.76-2.79-2.78-2.78q-12.7.09-25.4,0c-1.89,0-2.54.59-2.48,2.49.12,3.46,0,6.93,0,10.4" style="fill:none;stroke:#fff;stroke-linecap:round;stroke-linejoin:round;stroke-width:2px"/><path d="M97.92,67.63c.88,1.58,2.16,2.73,3.94,1.76,1.21-.65,2.48-2,1.22-3.56a4.32,4.32,0,0,0-2.71-1.77c-1.85,0-2.78,1.31-2.45,3.26" style="fill:none;stroke:#fff;stroke-linecap:round;stroke-linejoin:round;stroke-width:2px"/><path d="M51.71,61.81c.11.21.2.58.31.59,3.47.13,6.94.28,10.4.25.31,0,.81-1.12.89-1.76.81-6,.43-6.42-5.48-6.42-6.12,0-6.12,0-6.12,6.12v.92" style="fill:none;stroke:#fff;stroke-linecap:round;stroke-linejoin:round;stroke-width:2px"/><path d="M107.1,127c.79,1.89,2.59,1.84,3.92,1.38.63-.22.89-2.09.93-3.22.13-3.15,0-6.32.08-9.48.07-1.89-.59-2.51-2.48-2.51s-2.54.62-2.48,2.51c.11,3.67,0,7.34,0,11" style="fill:none;stroke:#fff;stroke-linecap:round;stroke-linejoin:round;stroke-width:2px"/></g><g id="bucket-forward"><rect x="43.75" y="269.02" width="42.85" height="55.08" style="fill:none"/></g><g id="bucket-reverse"><rect x="43.21" y="268.67" width="42.85" height="55.08" style="fill:none"/></g><g id="right_wheels-forward"><rect x="5.43" y="4.24" width="14.36" height="152.89" rx="2.83" style="fill:none"/></g><g id="right_wheels-reverse"><rect x="5.47" y="4.33" width="14.36" height="152.89" rx="2.83" style="fill:none"/></g><g id="left_wheels-reverse"><rect x="111.07" y="4.06" width="14.36" height="152.89" rx="2.83" style="fill:none"/></g><g id="left_wheels-forward"><rect x="111.07" y="4.06" width="14.36" height="152.89" rx="2.83" style="fill:none"/></g></svg>