<svg xmlns="http://www.w3.org/2000/svg" viewBox="0 0 107.16 247.52"><g id="background"><path d="M92.44,90.66v21.65c0,1.39-.17,1.52-1.53,1.5-.91,0-1.83.1-2.75.15a4.6,4.6,0,0,0-1.24.05,1.19,1.19,0,0,0-.64.78,12,12,0,0,0,0,1.9A1.15,1.15,0,0,1,85,118c-4.73,0-9.46,0-14.19,0-.76,0-1.08-.77-1.19-1.43s.31-1.86-1.19-1.24c-.2.08-.47,0-.7,0-.65.07-.91-.18-.9-.86a3.67,3.67,0,0,0-.32-1.06c-.16.06-.44.12-.45.19-.06.93-.1,1.86-.1,2.8a5.3,5.3,0,0,0,.19,1.64,1,1,0,0,0,.8.51q2.15.09,4.29,0a3.06,3.06,0,0,1,2.56,1.57,5.14,5.14,0,0,1,.77,3.37c0,2.76,0,5.51,0,8.27,0,1.55,0,1.59,1.67,1.59h4.19c1.14,0,1.45.32,1.45,1.44,0,7.15,0,14.29,0,21.44a5,5,0,0,0,.34,1.5c0,.11.33.2.5.21.86,0,1.71,0,2.56,0a.82.82,0,0,1,.93.93c0,.86,0,1.71,0,2.56,0,.68.24,1.13,1.09,1.12,1.39,0,2.78.1,4.16.19.89.06,7,.79,7,1.41,0,3.82,0,32.85,0,43.53,0,1-6.62,1.54-7.64,1.54H87.88c-1.36,0-1.64.27-1.63,1.6,0,.95,0,1.89.06,2.83,0,.67-.47,1-1.4,1-3.4,0-6.81,0-10.22,0a1.75,1.75,0,0,0-.82.23.54.54,0,0,0-.09.5,3.18,3.18,0,0,0,1,.72c2.26.67,2.77,3.29,2,5.11a6.91,6.91,0,0,0-.21,1.22c-.29,1.2-.56,2.4-.9,3.59s-.8,2.45-1.15,3.7-.55,2.44-.92,3.63A7.5,7.5,0,0,1,71.48,237a15.47,15.47,0,0,1-2.08,1.74,10.23,10.23,0,0,1-2.6.94c-4.6,1.14-9.27.42-13.91.54s-9.36.12-14,0a11,11,0,0,1-4.24-1,11.34,11.34,0,0,1-3.53-2.74,4,4,0,0,1-.74-1.31c-.34-1-.58-2.07-.91-3.09s-.83-2.17-1.14-3.29c-.37-1.31-.59-2.67-.93-4-.13-.52-.45-1-.58-1.52a14.44,14.44,0,0,1-.61-4.85,3.27,3.27,0,0,1,2.09-2.34c.43-.12.77-.58,1.14-.91,0,0-.16-.31-.28-.34a7,7,0,0,0-1.43-.22c-3.06,0-6.13,0-9.19,0-1.72,0-1.88-.16-1.88-1.93V210.2a.83.83,0,0,0-1-1c-1.16,0-2.33-.08-3.48,0s-7.08-.84-7.09-1.67c0-1.74,0-35.67,0-42.91,0-1.42,6.07-2,7.45-2,.92,0,1.83-.16,2.75-.16,1.17,0,1.33-.16,1.37-1.36a14.73,14.73,0,0,1,.23-2.58,1.15,1.15,0,0,1,.86-.63,9.11,9.11,0,0,1,2.39,0c1,.12,1.2-.56,1.23-1.17a14.69,14.69,0,0,0-.28-2.87.79.79,0,0,0-.59-.42c-1.07-.05-2.14,0-3.21,0A1.07,1.07,0,0,1,16.19,152a2.3,2.3,0,0,0,.1-.69c0-4,0-7.91,0-11.87a10.06,10.06,0,0,1,0-1.9,1.2,1.2,0,0,1,.89-.63c1-.08,2,0,3,0s1.18-.37.92-1.19a1.65,1.65,0,0,1,1.69-2.3h4.46A1.23,1.23,0,0,0,28.7,132c0-3.36,0-6.72,0-10.07,0-1.43,1.74-3.46,3.36-3.32,1.35.11,2.72,0,4.08,0,.77,0,1-.37,1-1,0-1.25,0-2.5,0-3.75,0-.24-.24-.47-.37-.7-.18.23-.5.45-.54.71-.19,1.47-.17,1.51-1.65,1.44-.84,0-1.15.24-1.11,1.08a1.43,1.43,0,0,1-1.6,1.63H18.18a1.39,1.39,0,0,1-1.54-1.5c0-.61,0-1.23,0-1.85s-.5-.85-1.09-.84a21.55,21.55,0,0,1-4.18-.14c-.36-.06-.77-1.11-.78-1.71-.07-3.61,0-7.22,0-10.83q0-7.33,0-14.69c0-5.73,0-11.46,0-17.2,0-1.48.55-2,2-2,4-.08,8,0,12.07,0,1.38,0,1.79.42,1.79,1.78V85.74c0,1.57,0,1.6,1.56,1.6.63,0,1.27,0,1.9,0,.78.06,1-.29,1-1,0-5.22,0-10.44,0-15.67,0-1.07.44-1.39,1.51-1.28.22,0,.51-.33.72-.56s0-.31,0-.48q0-7.91,0-15.83c0-.82-.25-1-1-.74a.89.89,0,0,1-1.24-.92c0-1.07,0-2.14,0-3.21,0-.76-.25-1-1-1-7.12,0-14.25,0-21.37,0-1.14,0-1.45-.31-1.45-1.44V35.12c0-1.43,0-2.87,0-4.3,0-3-.13-6.08-.18-9.12A4.79,4.79,0,0,1,7,20.58a.94.94,0,0,0-.83-1.13A1.29,1.29,0,0,1,5.09,18c0-3.3,0-6.6,0-9.9A1.31,1.31,0,0,1,6.41,6.69,1.76,1.76,0,0,1,8,8.1c0,.8,0,1.6,0,2.4,0,.64.28,1,.94,1H19.68c.65,0,1-.3,1-1,0-.87,0-1.74,0-2.61s.46-1.17,1.14-1.18.86.56.86,1.19c0,.87,0,1.74,0,2.61a.81.81,0,0,0,.92.94h7.83c.59,0,.81-.32.81-.85V8.07A1.39,1.39,0,0,1,33.32,6.7,1.17,1.17,0,0,1,34.48,8c0,.85,0,1.7,0,2.55,0,.59.22.91.87.91h7.77a.82.82,0,0,0,.92-1c0-.87,0-1.74,0-2.61,0-.66.27-1.2,1-1.21A1.08,1.08,0,0,1,46.2,7.9c0,.87,0,1.74,0,2.61a.84.84,0,0,0,.95,1c3.12,0,6.24,0,9.36,0a1.1,1.1,0,0,0,.75-.73,5.45,5.45,0,0,0,0-1.89A2.3,2.3,0,0,1,58,6.94a.9.9,0,0,1,.86-.18,2.29,2.29,0,0,1,.91,1.16,18.81,18.81,0,0,1,0,2.71c0,.57.25.86.86.85q3.75,0,7.51,0c.49,0,.68-.19.67-.68a9.47,9.47,0,0,1,0-2.44A3,3,0,0,1,70,6.78c.58-.43,1.68.41,1.69,1.22s0,1.74,0,2.61c0,.59.22.89.88.88,2.46,0,4.93,0,7.39,0,.72,0,1-.32,1-1s0-1.53,0-2.29.35-1.38,1-1.43c.43,0,.93.52,1.34.89.11.1,0,.46,0,.7a16.59,16.59,0,0,0,0,2.34c0,.28.48.73.74.73q5.48.08,10.93,0c.26,0,.7-.46.74-.74a19,19,0,0,0,0-2.39,1.45,1.45,0,0,1,1.41-1.62,1.47,1.47,0,0,1,1.44,1.6v8.49c0,.53,0,1.06,0,1.58,0,.77-.59,1-1.12,1a1,1,0,0,0-1,1.09c0,4.22,0,8.45,0,12.68s-.07,8.4,0,12.6c0,.62-.36.84-.88.87s-1.16,0-1.74,0H73.52c-1.07,0-1.18.15-1.12,1.16s0,1.85,0,2.77a1.5,1.5,0,0,1-2,1.19c-.63-.25-.82,0-.82.58,0,5.35,0,10.7,0,16,0,1,.23,1.14,1.15.93s1.66.71,1.66,1.85V85.85a2.23,2.23,0,0,0,0,.86c.12.26.4.58.63.61a22,22,0,0,0,2.81.12.75.75,0,0,0,.55-.44,5.8,5.8,0,0,0,.22-1.55q0-8.16,0-16.32c0-1.34.58-1.93,1.9-1.93h12a1.72,1.72,0,0,1,1.89,1.86C92.41,76.25,92.44,83.46,92.44,90.66ZM72.86,190.57c0-5.72,0-11.43,0-17.14,0-.79-.47-1-1-1-.82,0-1.64.13-2.46.12-1.46,0-2.92-.17-4.38-.17-1.3,0-2.6.17-3.89.16-1.91,0-3.83-.15-5.74-.16-1.5,0-3,.16-4.49.17q-9.14,0-18.27,0a4.09,4.09,0,0,1-.85-.09c-1-.19-1.52.22-1.52,1.21V207.6c0,.79.34,1.23,1.18,1.19.25,0,.55.09.75,0s.67-.43.74-.72a1.69,1.69,0,0,0-.16-1.14,2.52,2.52,0,0,1-.09-2.24,3.34,3.34,0,0,1,1.6-1.88,2.43,2.43,0,0,1,2.42-.18,3.46,3.46,0,0,1,1.53,5c-.11.17-.1.66,0,.71a3.09,3.09,0,0,0,1.34.45q16,0,32,0c1,0,1.35-.32,1.35-1.37Q72.87,199,72.86,190.57ZM51.62,124.76H30.42c-.57,0-.93.16-.93.77,0,1.07,0,2.15,0,3.22q0,13.17,0,26.33c0,.65.26.94,1,.94q21,0,42.08,0c.86,0,1.15-.29,1.15-1.13q0-14.64,0-29.27c0-.67-.21-.87-.88-.87Q62.2,124.78,51.62,124.76ZM9,21.19H9v7.56c0,.84.38,1.22,1.23,1.22h3.64c1.06,0,1.26-.43,1.12-1.51a4.52,4.52,0,0,1,.33-2.33c.14-.3,1.08-.38,1.61-.3s1,.67.89,1.43,0,1.27,0,1.9a.7.7,0,0,0,.8.8h7.29c.53,0,.75-.28.74-.78,0-.66,0-1.31,0-2a1.23,1.23,0,0,1,.81-1.4c.58-.26,1.9,0,2,.48a11.73,11.73,0,0,1,.1,2.51c0,.6.23,1.14.78,1.15h7.34c.57,0,.87-.24.86-.85a23.8,23.8,0,0,1,0-2.39c.07-1,.82-1,1.59-1s1.13.25,1.12,1,0,1.38,0,2.07S41.45,30,42.41,30c2.28-.08,4.56-.05,6.85,0,.74,0,1-.37,1-1s0-1.38,0-2.07a1,1,0,0,1,.6-1.07,1.54,1.54,0,0,1,2.24,1.23c0,.72-.05,1.45,0,2.17,0,.26.39.68.61.68q3.72.07,7.45,0c.25,0,.66-.48.7-.77a20.26,20.26,0,0,0,0-2.34c0-.2.06-.54.18-.58a4.35,4.35,0,0,1,1.79-.41,1.11,1.11,0,0,1,.95,1.38c-.08.61,0,1.23,0,1.85s.28.92.91.92c2.37,0,4.75,0,7.12,0,.59,0,.82-.27.81-.83a13.22,13.22,0,0,1,0-2.44c.07-.37.6-.92.91-.91.62,0,1.54.18,1.77.6a5.33,5.33,0,0,1,.14,2.21c0,.54-.12,1.31.61,1.33,2.56.08,5.12.06,7.67,0,.28,0,.68-.52.8-.87a4.94,4.94,0,0,0,0-1.27c0-1.73.41-2,2.11-1.71.18,0,.46.22.47.36a9.29,9.29,0,0,1,.09,2.23c-.1.81.19,1.3,1,1.3,1.26,0,2.53,0,3.8,0s1.45-.1,1.45-1.48V20.27c0-2.27,0-4.53,0-6.8,0-.5.15-1.32-.78-1.33-3.14,0-6.27,0-9.41,0a1.13,1.13,0,0,0-.84.68c-.14,1.37-.17,2.74-.21,4.11,0,.3.16.6.15.9,0,1-.52,1.57-1.35,1.56s-1.12-.38-1.12-1.53c0-1.47,0-2.93,0-4.4a1.2,1.2,0,0,0-1.37-1.35c-2.42,0-4.84,0-7.27,0a.49.49,0,0,0-.36.3,5.43,5.43,0,0,0-.21,1.33c0,1.52,0,3.05,0,4.57a1.12,1.12,0,0,1-.43.77,1.53,1.53,0,0,1-2.37-1.39V13c0-.59-.24-.89-.89-.88-2.25,0-4.49,0-6.74,0-1,0-1.4.42-1.4,1.42,0,1.59,0,3.19,0,4.79,0,.24-.1.64-.26.7-.43.17-1,.42-1.35.24A1.9,1.9,0,0,1,57.35,18c-.1-1.59-.06-3.19,0-4.79a.93.93,0,0,0-1-1.05c-3,0-5.91-.06-8.86,0a1.16,1.16,0,0,0-1.25,1.26c0,1.57,0,3.16,0,4.73a1,1,0,0,1-1.15,1.22c-.7,0-1.08-.39-1-1.2,0-1.63,0-3.26,0-4.89,0-1-.79-1.38-1.67-1a2.59,2.59,0,0,1-1.15.06c-.31,0-.61-.2-.92-.2-1.47,0-2.94,0-4.41,0a1.35,1.35,0,0,0-1.42,1.4c0,1.61,0,3.23,0,4.84,0,.83-.46,1-1.07,1s-1.25-.14-1.24-1c0-1.63,0-3.26,0-4.89,0-.92-.34-1.31-1.25-1.32-2.29,0-4.57-.05-6.86,0a1.43,1.43,0,0,0-1.47,1.51c.06,1.33,0,2.65,0,4,0,.32.32.83.2.93a3,3,0,0,1-1.39.79c-.54.08-.83-.33-.81-.95,0-1.52.08-3.05,0-4.57-.07-1.06-.44-1.77-1.69-1.74-2.81.08-5.62,0-8.43,0A1.42,1.42,0,0,0,9,13.63Q9,17.41,9,21.19ZM51.23,235.13h8.21c2.1,0,4.2,0,6.12-1.07a6.25,6.25,0,0,0,2.67-2.39c.74-1.44,1.47-2.89,2.08-4.38a18.72,18.72,0,0,0,.71-2.72,49.37,49.37,0,0,0,1.36-5.42,66.94,66.94,0,0,0,.47-6.8c.07-1.78,0-1.81-1.83-1.8-11.25.06-22.5.14-33.75.18-2,0-4-.12-6-.17-.7,0-1.14.23-1.09,1.09.08,1.14,0,2.29.06,3.43s.26,2.47.41,3.7a6.18,6.18,0,0,0,.3,1.85c.69,1.45.46,3.15,1.36,4.53.18.28.07.75.19,1.1.36,1,.74,2.07,1.17,3.08a10.79,10.79,0,0,0,1.23,2.39A12.71,12.71,0,0,0,37,233.54a6.79,6.79,0,0,0,4.34,1.59C44.63,235.15,47.93,235.13,51.23,235.13ZM84,45.33H94.83c.57,0,.88-.17.88-.81q0-4.32,0-8.65c0-.55-.23-.79-.78-.79-2,0-4,0-5.93,0-.55,0-.8.23-.79.78s0,1,0,1.47a1.37,1.37,0,0,1-1.6,1A2.07,2.07,0,0,1,85.55,36c.27-.8-.13-.93-.76-.93H77.67c-1.2,0-1.22,0-1.21,1.23,0,1.49,0,1.52-1.52,1.51-1.29,0-1.3,0-1.3-1.3,0-.24,0-.48,0-.71,0-.54-.17-.74-.72-.73-2.08,0-4.16,0-6.25,0-1.84,0-1.83,0-1.87,1.85,0,.13,0,.29,0,.38s-.27.42-.45.46c-1.88.49-2.43.07-2.43-1.82a1,1,0,0,1,0-.17c.06-.52-.18-.7-.69-.7-2.05,0-4.1,0-6.14,0s-1.91,0-2,1.94a1,1,0,0,1-.57.75c-1.74.43-2.23,0-2.23-1.72V36c.08-.69-.25-.92-.92-.92-2,0-4,0-6,0s-2,0-2.05,2c0,0,0,.09,0,.11-.21.22-.41.62-.63.63-2.37.08-2.07.21-2.09-1.79v-.16c.08-.57-.18-.76-.74-.76-2.45,0-4.9,0-7.34,0-.86,0-1.09.34-.86,1.17a1.16,1.16,0,0,1-1.11,1.59c-1.79,0-1.79,0-1.79-1.76a2.43,2.43,0,0,1,0-.27c.06-.55-.18-.73-.72-.73-2.1,0-4.21,0-6.31,0-1.79,0-1.79,0-1.8,1.75,0,.13,0,.29,0,.38s-.33.52-.54.56c-1.92.36-2.34,0-2.35-1.92,0-.06,0-.13,0-.16-.19-.21-.39-.58-.6-.58-1.81,0-3.63,0-5.44,0-.57,0-.84.26-.84.87q0,4.24,0,8.49c0,.64.3.88.89.88H30.07c.58,0,.81-.24.8-.82,0-1.34,0-2.68,0-4,0-.31.32-.83.54-.85.51-.06,1.31-.06,1.52.24a5.11,5.11,0,0,1,.5,2c0,.19-.11.42-.13.63a3.13,3.13,0,0,1-.06.93c-.51,1.08,0,1.91,1.15,1.92.4,0,.8,0,1.19,0,.58,0,.83-.23.82-.81,0-1.27,0-2.54,0-3.8,0-.85.33-1.19,1.16-1.17s1.35.33,1.36,1.19c0,1.26,0,2.51,0,3.76a.71.71,0,0,0,.78.82q3.78,0,7.56,0a.71.71,0,0,0,.8-.86,4.35,4.35,0,0,1,0-1.35,1.72,1.72,0,0,1,.64-1c.17-.12.62.09.9.24.93.5.57,1.4.58,2.15s.21.81.82.81c2.33,0,2.06,0,2-2,0-.8.5-1,1-1.18s1.27.59,1.28,1.2a6.74,6.74,0,0,0,0,1.35c.06.25.39.61.61.61,2.41.05,4.82,0,7.23,0,.6,0,.86-.23.84-.84,0-1.27,0-2.54,0-3.81,0-.82.37-1.12,1.33-1.14.81,0,1.15.42,1.17,1.16s0,1.64,0,2.45c0,2.29-.33,2.18,2.27,2.18.55,0,.8-.24.79-.79,0-1.2,0-2.39,0-3.59A1.24,1.24,0,0,1,71,39.55,1.42,1.42,0,0,1,72.41,41c0,1.18,0,2.36,0,3.54,0,.59.2.79.79.78C76.8,45.32,80.4,45.33,84,45.33ZM51.55,158H37.63c-2.19,0-4.38,0-6.58,0-.26,0-.7.29-.73.49a10.76,10.76,0,0,0-.08,2c.05,2.76.21,5.53.14,8.29,0,1.06.36,1.09,1.15,1.08q16,0,31.91,0c2.74,0,5.47,0,8.21,0,.79,0,1.23-.27,1.22-1.18,0-3.19,0-6.38,0-9.57,0-.81-.26-1.12-1.1-1.12C65,158,58.29,158,51.55,158Zm33.93,30.83q0-9.41,0-18.82c0-.49-.12-.76-.66-.73s-.87,0-1.3,0c-3,0-6,0-9,0a1.21,1.21,0,0,0-.81.38,2.63,2.63,0,0,0-.45,1.07,2,2,0,0,0,.07.83,6.79,6.79,0,0,1,.3,1.22q0,17.35,0,34.7c0,.74.25,1,1,1q4.92,0,9.84,0c.76,0,1.06-.26,1.06-1.05C85.47,201.22,85.48,195,85.48,188.81ZM24.67,176.24c0-2.09,0-4.18,0-6.26,0-.52-.17-.72-.69-.71h-5c-1.2,0-1.2,0-1.13,1.13a5.76,5.76,0,0,1,0,.59c-.06,1.2-.15,2.38-.17,3.58,0,.58.17,1.18.16,1.77,0,.95-.16,1.91-.16,2.86s.16,1.69.16,2.53-.14,1.8-.15,2.7c0,.75.11,1.5.11,2.25,0,.9-.11,1.8-.12,2.69,0,.56.16,1.11.15,1.66,0,1.09-.13,2.17-.14,3.25,0,.52.16,1,.15,1.55,0,1.07-.14,2.14-.16,3.21s0,2,0,2.94c0,.64,0,1.27,0,1.91a15.61,15.61,0,0,1,0,2.82c-.24,1.32,0,1.75,1.37,1.75,3.11,0,6.23,0,9.35,0,.79,0,1.12-.24,1.12-1.1q0-17.2,0-34.39c0-.47.38-.92.51-1.4a1.78,1.78,0,0,0,0-1,5,5,0,0,0-.59-1.05c-.06-.1-.17-.24-.26-.25-.71,0-1.43-.07-2.14-.08s-.64.36-.64.84c0,2.14,0,4.28,0,6.42,0,1.93,0,3.85,0,5.77,0,.47-.26,1.18-.59,1.33-.72.33-1.12-.1-1.12-1C24.66,180.44,24.67,178.34,24.67,176.24Zm25.06-71.11c-.08.93-.22,1.87-.22,2.8S49,109,48.23,109s-.93-.43-.93-1.07c0-2.8,0-5.59,0-8.38,0-.92-.35-1.17-1.19-1.16-2.08,0-4.16,0-6.25,0-1.73,0-1.73,0-1.73,1.66q0,6.47,0,13c0,.48-.12,1-.14,1.44a.59.59,0,0,0,.2.47,3.28,3.28,0,0,0,1.16.34H63.73c.2,0,.44.06.58,0a1.65,1.65,0,0,0,.67-.69c.09-.21-.15-.53-.15-.81,0-1.77,0-3.55,0-5.33.07-2.91.17-5.83.32-8.74,0-1.06-.37-1.25-1.32-1.26-2.06,0-4.13,0-6.19,0C56,98.42,56,98.42,56,100v7.4c0,1.52-.14,1.71-1.62,1.56a1.25,1.25,0,0,1-.82-.82,13.46,13.46,0,0,1,0-2.11,4.42,4.42,0,0,0-.13-.71c-.1.2-.21.4-.32.59a.71.71,0,0,1-.17.21C51.62,107.06,50.37,106.64,49.73,105.13Zm1.85,131.09c-2.27,0-4.54.08-6.8,0-1.8-.08-3.61.38-5.42-.44A18,18,0,0,1,35.88,234a10.39,10.39,0,0,1-3.53-5.28c-.43-1.27-.81-2.56-1.13-3.86-.38-1.52-.67-3.06-1-4.59,0-.19,0-.4-.08-.59a12.45,12.45,0,0,1-.45-1.85c-.08-1-.51-1.31-1.37-.85a2.49,2.49,0,0,0-1.46,2.59,20.81,20.81,0,0,0,.65,2.81c.39,1.39.86,2.75,1.24,4.14.16.58,0,1.43.31,1.76,1,.91.68,2.19,1.07,3.25.62,1.67.89,3.41,2.17,4.83a7.4,7.4,0,0,0,3.84,2.31,24.58,24.58,0,0,0,5.36.46q6.91.09,13.81,0c3.66,0,7.31-.14,11-.23a1.34,1.34,0,0,0,.63-.12c1-.51,2.08-1,3.06-1.6a6.2,6.2,0,0,0,2.43-3.43c.57-1.68.88-3.46,1.36-5.18.37-1.32.85-2.61,1.24-3.92s.75-2.68,1.1-4c.14-.55.48-1.23.29-1.64a7.24,7.24,0,0,0-1.65-2.1.66.66,0,0,0-1.07.41c-.3,1.56-.52,3.13-.81,4.69a19.45,19.45,0,0,1-.56,2.28c-.35,1-.77,2.07-1.16,3.09a28.6,28.6,0,0,1-1.69,4.24,8.83,8.83,0,0,1-5.12,4,8.34,8.34,0,0,1-2.25.6C58.57,236.25,55.08,236.22,51.58,236.22Zm0-112.63c7.07,0,14.14,0,21.21,0,.54,0,.83-.1.83-.74,0-2.33-1.23-3.62-3.56-3.62q-17.65,0-35.29,0c-.9,0-1.81.25-2.71.25-1.67,0-2.48,1.61-2.61,3-.07.74.18,1.12,1,1.12C37.54,123.58,44.58,123.59,51.61,123.59ZM36.21,58.15h0c0,1.9,0,3.81,0,5.71,0,1,.34,1.37,1.36,1.37h6.09c.95,0,1.35-.39,1.35-1.33,0-2,0-3.91,0-5.87,0-1.36.26-1.63,1.59-1.61.71,0,.9-.29.91-1,0-.26.27-.7.49-.75a2.1,2.1,0,0,1,1.44,0c.5.28.64.11.74-.26a4,4,0,0,0,0-1c0-1-.46-1.42-1.4-1.67a1.3,1.3,0,0,1-.74-.93,20.1,20.1,0,0,1,0-3.2.85.85,0,0,0-.95-1q-3.65,0-7.28,0c-.56,0-1,.25-.93,1,.06,1,0,1.95,0,2.93a1.21,1.21,0,0,1-1.7,1.2c-.74-.24-1,0-1,.73Zm30.36.07c0-2,0-4,0-6,0-.59-.1-.73-.69-.45A1.29,1.29,0,0,1,64,50.52c0-1,0-2.07,0-3.1,0-.52-.2-.79-.73-.79H56.08c-.52,0-.76.24-.75.77,0,1.14.07,2.29,0,3.42a1.37,1.37,0,0,1-.79,1c-1.29.35-1.45.46-1.45,1.77,0,.22,0,.44,0,.65,0,.49.17.73.7.42.73-.42,2,0,1.95.71,0,1.12.63,1.11,1.41,1.09.24,0,.62.14.69.32A3.56,3.56,0,0,1,58.05,58c0,2,.07,4,0,5.93,0,1,.46,1.26,1.23,1.27,2.1,0,4.2,0,6.3,0,.66,0,1-.29,1-1.07C66.54,62.17,66.57,60.2,66.57,58.22ZM25,117h6.15c.2,0,.48.06.57-.05a3,3,0,0,0,.42-.79c-.16-.07-.34-.23-.48-.2-.84.16-1.22-.14-1.22-1,0-3.28,0-6.57,0-9.85,0-.86-.4-1.17-1.18-1.17H20.67a14.29,14.29,0,0,0-2.07,0c-.33,0-.87.41-.87.64,0,1.57.05,3.15.08,4.72,0,1.36,0,2.72,0,4.08,0,.16-.06.32-.07.48a12.38,12.38,0,0,0-.08,2.1,1.09,1.09,0,0,0,1.2,1C20.91,117,23,117,25,117Zm60.48-6.67h0c0-1.83,0-3.66,0-5.49,0-.6-.25-.89-.83-.89-3.6,0-7.21,0-10.81,0-.61,0-1.1.24-1,1a8.66,8.66,0,0,1,0,1.14v8.91a.93.93,0,0,1-1.31,1c-.1,0-.32,0-.33.06a2.63,2.63,0,0,0,0,.74c0,.08.3.21.34.17.58-.49,1.14,0,1.71,0,3.79-.15,7.61.39,11.39-.28.59-.1.87-.3.86-.93C85.47,114,85.48,112.18,85.48,110.37Zm-4.57,35.68c0-3.6,0-7.21,0-10.82,0-.8-.39-1.1-1.15-.93a3.55,3.55,0,0,1-.65,0c-1.22,0-2.43,0-3.64,0-.53,0-1,.18-1,.83,0,.43.11.86.11,1.29q0,10.35,0,20.72c0,.58.16.8.77.79,1.35,0,2.71,0,4.07,0s1.49-.2,1.49-1.46ZM28.7,144.86v-9.3c0-.67-.33-1.17-1-1.2-1.54-.05-3.08,0-4.62,0a1,1,0,0,0-.67.59,17.87,17.87,0,0,0-.22,2.74c0,5,0,9.9,0,14.85,0,.09,0,.18,0,.27.06,1.64.13,3.28.18,4.93,0,.23-.07.65,0,.66a4.71,4.71,0,0,0,1.6.24,1.08,1.08,0,0,0,.7-.78c.09-1,0-2.1,0-3.15a.77.77,0,0,1,.92-.82c.23,0,.62.31.63.51.11,1.14.1,2.3.21,3.45a1.08,1.08,0,0,0,.58.79,7.86,7.86,0,0,0,1.94,0c.31,0,.5-.15.2-.56a2.64,2.64,0,0,1-.45-1.31c-.06-.93,0-1.87,0-2.81ZM54.25,91.09h0c0,1.63,0,3.26,0,4.89,0,.94.29,1.43,1.23,1.45,2.75,0,5.5,0,8.25,0,.48,0,1.29-.46,1.35-.81a16.27,16.27,0,0,0,0-3.2c0-.3-.21-.6-.2-.9s.22-.83.22-1.24c0-1.88,0-3.77,0-5.65a1.16,1.16,0,0,0-1.27-1.31H56.09c-1.91,0-2,.07-1.84,2,0,.16,0,.33,0,.49ZM49,90.88c0-1.79,0-3.59,0-5.38,0-.76-.29-1.24-1.19-1.23-2.63,0-5.25,0-7.88,0-1.57,0-1.81.25-1.81,1.77,0,2.2,0,4.39,0,6.59,0,1.31-.12,2.62-.14,3.93a.73.73,0,0,0,.46.52c1.63.14,3.26.26,4.88.32.59,0,1.19-.25,1.79-.24.86,0,1.73.2,2.59.25A1.12,1.12,0,0,0,49,96.16Zm30.49,67.86c-1.71,0-3.41,0-5.11,0-.26,0-.73.36-.73.55-.05,2.65-.06,5.3,0,7.94,0,.42,0,1.08.82,1.07,3.35,0,6.7,0,10,0,.66,0,.94-.27.93-.95,0-2.56,0-5.11,0-7.67,0-.73-.31-1-1-1C82.85,158.75,81.18,158.74,79.52,158.74Zm-37-84.46c1.83,0,3.66,0,5.49,0,.62,0,1-.19,1-.89,0-.36.37-.69.58-1s.55-.61.56-.92c.06-1.54,0-3.08,0-4.62a.75.75,0,0,0-.13-.5,2.35,2.35,0,0,0-2.6.2c-.35.45-1.85.68-2.07.25-.34-.68-.88-.57-1.42-.57-2.19,0-4.38,0-6.58,0-1.14,0-1.22,0-1.22,1.18,0,2,0,3.95,0,5.93,0,.72.25,1,1,1C39,74.26,40.77,74.28,42.56,74.28Zm17.93,0c1.78,0,3.55,0,5.33,0,.55,0,.77-.17.76-.75,0-2,0-4,0-6a1.21,1.21,0,0,1,0-.54c.45-.87-.22-.81-.7-.81q-3.56,0-7.11,0a1.66,1.66,0,0,0-1,.44,1.85,1.85,0,0,1-2,0,2.54,2.54,0,0,0-1.06-.64c-1.2-.27-1.69.16-1.69,1.37s0,2.64,0,4a2.54,2.54,0,0,0,.45,1.05c.2.36.58.68.66,1.06.13.66.51.8,1.08.79C57,74.27,58.75,74.28,60.49,74.28Zm-17.23,3H38.37c-.58,0-.87.22-.86.84,0,1.46,0,2.93,0,4.4,0,.52.23.77.75.77h10c.57,0,.84-.27.83-.88,0-1.39,0-2.79,0-4.19,0-.69-.3-.94-.95-.94Zm16.6,0H54.92c-.48,0-.68.17-.67.67,0,1.56,0,3.12,0,4.67,0,.49.17.68.67.68H64.8c.52,0,.77-.22.77-.75,0-1.49,0-3,0-4.46,0-.57-.24-.81-.82-.81C63.12,77.32,61.49,77.31,59.86,77.31Zm7.77,3.59h0v32.64a1.89,1.89,0,0,0,.1.63c0,.1.23.23.3.2.24-.08.62-.2.64-.35a12.54,12.54,0,0,0,.09-2c0-1.16-.14-2.31-.13-3.45,0-2.24.16-4.48.17-6.72,0-1.66-.17-3.32-.17-5q0-15.06,0-30.14V49.23a5.77,5.77,0,0,0,0-1.25c0-.19-.36-.32-.55-.48-.13.16-.34.32-.36.49a10.3,10.3,0,0,0,0,1.36Zm-43,83.19V161c0-1.15-.39-1.54-1.55-1.54-.72,0-1.45.12-2-.58a.74.74,0,0,0-.5-.17,14.86,14.86,0,0,0-2.11,0,1,1,0,0,0-.71.61c-.13,1.07-.17,2.16-.2,3.24s0,2,0,3a11.18,11.18,0,0,0,.05,1.53c.06.44-.09,1.13.65,1.14,1.86,0,3.73,0,5.59,0a1.08,1.08,0,0,0,.72-.76C24.72,166.37,24.67,165.23,24.67,164.09Zm26.87-45.52c4.13,0,8.26,0,12.39,0,1.26,0,.65-1.12,1.07-1.62a1.06,1.06,0,0,0-.41-.52,1.92,1.92,0,0,0-.83-.15H42.08c-1,0-1.93-.06-2.88,0A1.71,1.71,0,0,0,38,117a1.28,1.28,0,0,0,.22,1.13,1.39,1.39,0,0,0,1,.46C43.35,118.58,47.44,118.57,51.54,118.57ZM27.83,98.67v-.08c-1.58.07-3.17.19-4.75.21s-3-.12-4.58-.11c-.23,0-.58.43-.66.72a15.59,15.59,0,0,0-.21,1.82c-.17,1.26.15,1.69,1.44,1.64,4.19-.16,8.44.51,12.55-.78a1.28,1.28,0,0,0,.74-.77,5.9,5.9,0,0,0,0-1.68c0-.61-.22-1-1-1C30.19,98.72,29,98.67,27.83,98.67Zm50.32,0v0c-2.1,0-4.2,0-6.3,0-.18,0-.46,0-.52,0a2,2,0,0,0-.4,1,4.78,4.78,0,0,0,.32,2.31c.3.45,1.24.59,1.91.68a26.47,26.47,0,0,0,3.56.21c2.74,0,5.49-.11,8.23-.2.18,0,.49-.36.51-.56.05-.83,0-1.67,0-2.5s-.3-1-1-1ZM35.21,67.2h.15q-.22-9.41-.45-18.81a4.48,4.48,0,0,0-.22-.93,4.59,4.59,0,0,0-.23.92c-.21,16.88.39,33.77-.3,50.64-.07,1.5,0,3,0,4.52,0,.48.27,1,.26,1.45,0,1.16-.18,2.31-.26,3.47,0,.17.11.34.12.51a7.12,7.12,0,0,1,0,.8c0,.89,0,1.77,0,2.66,0,.35,0,.7,0,1.06,0,.2-.1.5,0,.58a.77.77,0,0,0,.64.13.63.63,0,0,0,.3-.48c0-.62,0-1.25,0-1.88q0-6.7,0-13.42a4.62,4.62,0,0,0-.18-.71,3.46,3.46,0,0,1,0-.85c0-.42.21-.83.22-1.25,0-1.59,0-3.17,0-4.76,0-1,0-2,0-3,0-.6-.24-1.19-.23-1.79s.23-1.29.23-1.94C35.22,78.44,35.21,72.82,35.21,67.2Zm-11.28,142h0c-1.68,0-3.37,0-5.05,0a1.1,1.1,0,0,0-1.24,1.14,15.1,15.1,0,0,0,0,2.33c0,.54.26.92.95.91,3.28,0,6.56,0,9.84,0,.72,0,1-.31,1.05-1a11.43,11.43,0,0,1,.2-2.41c.15-.67,0-.91-.64-.9Zm55.59,0c-1.71,0-3.41,0-5.11,0-.29,0-.81.33-.82.53a20.43,20.43,0,0,0,.06,2.82c0,.47.09,1,.8,1H84.56a.82.82,0,0,0,.92-1V210.2a.84.84,0,0,0-1-1ZM69.59,84.29V97.07c0,1.23,0,1.19,1,.84a1,1,0,0,0,.74-1.12c-.08-1.4-.17-2.81-.17-4.21,0-1.1.15-2.2.15-3.29s-.18-2.09-.17-3.13c0-1.5.16-3,.17-4.49,0-3.46,0-6.92,0-10.39,0-.78-.35-1-1-1s-.73.48-.73,1Zm-36.42-.23c0-4.33,0-8.66,0-13,0-.28-.36-.55-.55-.82-.32.25-.9.49-.9.75-.05,5.27-.05,10.55,0,15.82,0,.41.26.83.25,1.23,0,.69-.24,1.37-.24,2.06s.23,1.29.24,1.94-.23,1.07-.25,1.61c0,1.07,0,2.14,0,3.21a.84.84,0,0,0,.91,1c.68,0,.62-.52.62-1Q33.16,90.49,33.17,84.06ZM20.11,145.29h0v-4.73c0-2,0-2-2-2-.73,0-1,.32-1,1,0,3.26,0,6.53,0,9.79,0,2.35,0,2.34,2.39,2.26.48,0,.67-.19.67-.68C20.1,149.1,20.11,147.19,20.11,145.29Zm31.55,25.32H39.37c-2.28,0-4.56,0-6.84,0a2.29,2.29,0,0,0-.76.29c.26.15.52.3.79.44.06,0,.14,0,.21,0q18.84,0,37.67,0a2.67,2.67,0,0,0,.88-.34,2.39,2.39,0,0,0-.86-.37C64.2,170.6,57.93,170.61,51.66,170.61Zm-22.19-6.67v-2.5c0-1.92.31-2-1.94-1.95a1,1,0,0,0-1.11,1.09c0,2.21,0,4.42,0,6.62,0,.37.39,1,.63,1a9.93,9.93,0,0,0,2.29-.26c.06,0,.09-.37.09-.56C29.47,166.25,29.47,165.09,29.47,163.94ZM81.07,33.36h3.7c.19,0,.55,0,.55-.1a7.56,7.56,0,0,0,.1-1.95c0-.22-.6-.52-.92-.53-2.19,0-4.39,0-6.58,0-1.67-.05-1.62.9-1.34,2.05a1.06,1.06,0,0,0,.8.55C78.61,33.39,79.84,33.36,81.07,33.36ZM45.6,30.75c-1.14,0-2.28,0-3.42,0a.79.79,0,0,0-.93.79,2,2,0,0,0,0,1c.14.32.48.76.75.77,2.47,0,4.95,0,7.43,0,.2,0,.54-.11.56-.21a5,5,0,0,0,.13-1.83c-.07-.26-.76-.5-1.18-.52C47.85,30.7,46.72,30.75,45.6,30.75Zm23.53,2.61H72c1.64,0,1.66,0,1.62-1.67v-.06c0-.59-.24-.89-.88-.88-2.06,0-4.13,0-6.19,0-1.78,0-1.8,0-1.76,1.79,0,.07,0,.17,0,.21.2.21.41.57.63.58C66.67,33.38,67.9,33.36,69.13,33.36Zm-35.21,0c1.23,0,2.46,0,3.69,0a1.09,1.09,0,0,0,.83-.63c.06-.62.33-1.35-.36-1.85a.21.21,0,0,0-.1,0c-.56,0-1.11-.05-1.67-.05-1.9,0-3.8,0-5.7,0a.93.93,0,0,0-1,.74,1.3,1.3,0,0,0,1.24,1.87Zm23.58,0h0c1.25,0,2.5,0,3.75,0,.2,0,.53-.16.58-.32.5-1.48-.09-2.27-1.65-2.27-1.81,0-3.62,0-5.43,0s-1.72-.09-1.69,1.81a.07.07,0,0,0,0,0c.26.25.51.7.8.71C55.07,33.4,56.29,33.36,57.5,33.36Zm-35.26,0c1.09,0,2.17,0,3.26,0,.84,0,1.19-.28,1.16-1.13,0-1.26-.19-1.49-1.22-1.49h-6c-1.56,0-1.62.07-1.6,1.63a.87.87,0,0,0,1,1Zm8.64,62.08c0-.53,0-1.06,0-1.58.05-.69-.21-1-.93-1s-1.6,0-2.39,0-1.13.38-1.14,1.12c0,1,0,2,0,2.93,0,.72.36.94,1,1,.9,0,1.81,0,2.71,0,.59,0,.82-.27.8-.83S30.87,96,30.88,95.44Zm41.61.3h-.08a12.67,12.67,0,0,0,0,1.63.71.71,0,0,0,.46.49c1,0,2.1,0,3.14,0a.85.85,0,0,0,.58-.6,33.48,33.48,0,0,0,0-3.47c0-.59-.39-.91-1.06-.85s-1.65,0-2.46,0c-.3,0-.8.39-.81.63A12.75,12.75,0,0,0,72.49,95.74ZM50,77h0c0,.87,0,1.74,0,2.61,0,.21.07.56.19.6s.45-.11.68-.13a9.79,9.79,0,0,1,1.43,0c.15,0,.29.25.43.38a2.88,2.88,0,0,0,.29-.82c0-1.41,0-2.82,0-4.24,0-2.15.21-2-2-2.06-.77,0-1,.38-1,1C50,75.18,50,76.07,50,77Zm1.47,80.25h21a3.41,3.41,0,0,0,.82-.21,3.39,3.39,0,0,0-.82-.2H30.77c-.25,0-.51,0-.76,0-.09,0-.17.11-.25.17.08.08.16.2.25.22a3,3,0,0,0,.6,0ZM91.85,30.61a21.2,21.2,0,0,0-3.19.51c-.27.08-.38,1-.39,1.48s.23.78.83.77c1.66,0,3.32,0,5,0s1.66-.05,1.61-1.67c0-.06,0-.13,0-.16s-.25-.42-.41-.45C94.15,30.89,93,30.76,91.85,30.61ZM11.57,33.35h2.56c.81.11.92-.46.95-1.05.05-1-.32-1.54-1-1.55-1.47,0-2.94,0-4.4,0S7.92,31,8,32.42c0,.61.3.94.94.94Zm31.08,41.7H37.28a1,1,0,0,0-1.06,1.14c.08.5.31.72.83.4a1.84,1.84,0,0,1,.86-.23c2.47,0,5,0,7.43,0a26.46,26.46,0,0,0,2.82,0c.3,0,.56-.48.83-.74a4,4,0,0,0-.64-.47,1.44,1.44,0,0,0-.59,0ZM37.18,206.93v-1.35a1.71,1.71,0,0,0-1.63-1.75c-.52,0-1.61,1.13-1.64,1.74,0,1-.14,2-.12,3a.92.92,0,0,0,.59.65,16.82,16.82,0,0,0,2,0c.59,0,.82-.26.8-.83S37.18,207.42,37.18,206.93ZM26.42,90.11h0c0,.36-.12.79,0,1.07s.58.79.93.83a22.16,22.16,0,0,0,2.94,0c.11,0,.32-.15.33-.24.07-1.11.13-2.21.14-3.32,0-.12-.38-.33-.58-.33-.92,0-1.84.14-2.76.13s-1.09.32-1,1.07C26.43,89.6,26.42,89.85,26.42,90.11Zm48-2c-.31,0-.62,0-.93,0-.82-.09-1.14.24-1.11,1.08a12.17,12.17,0,0,1-.22,1.89c-.06.44.58.94,1,.9a7.14,7.14,0,0,1,2.26,0c.93.23,1-.34,1.17-.91a2.34,2.34,0,0,0,0-.7C76.66,88.11,76.66,88.11,74.43,88.11ZM60.27,75.05h-5.1c-.49,0-.91.09-.91.73s.48.57.88.57c3.42,0,6.84,0,10.26,0a3.07,3.07,0,0,1,.91.34.79.79,0,0,1,.15.12,1.17,1.17,0,0,0,.09-.24c.2-1.11-.14-1.52-1.28-1.53ZM50,91.74h0c0,2.27,0,4.53,0,6.8,0,.22.31.43.47.65a2.94,2.94,0,0,0,.43-.82c0-.28-.12-.59-.12-.89q0-5.06,0-10.11c0-.92,0-1.84,0-2.76,0-.17-.18-.34-.28-.5a2,2,0,0,0-.44.47,1.43,1.43,0,0,0,0,.59C50,87.36,50,89.55,50,91.74Zm3,0h0c0-2.32,0-4.64,0-7a1.78,1.78,0,0,0-.26-.61,1.65,1.65,0,0,0-.27.55,17.5,17.5,0,0,0-.19,2.16c0,3.35,0,6.7,0,10,0,.52.06,1,.09,1.54,0,.26,0,.52.06.77a.54.54,0,0,0,.31,0,1.84,1.84,0,0,0,.27-.7C53.07,96.25,53.07,94,53.07,91.69ZM40.45,32.76h0c0-1.16,0-2.32,0-3.48,0-.35-.38-.69-.59-1-.19.35-.54.69-.54,1,0,2.33,0,4.67,0,7,0,.25.36.49.56.74.2-.24.56-.48.57-.74C40.48,35.12,40.45,33.94,40.45,32.76ZM50.56,61.58a7.93,7.93,0,0,0,0,1.89,1.22,1.22,0,0,0,.9.73c.37,0,1-.39,1.06-.65a33.29,33.29,0,0,0,.09-3.87c0-.18-.3-.45-.51-.51a2,2,0,0,0-1,0,.87.87,0,0,0-.54.58A14.07,14.07,0,0,0,50.56,61.58ZM28.7,32.78c0-1.13.07-2.26,0-3.37,0-.4-.48-.76-.74-1.13-.16.3-.45.6-.47.92a23.82,23.82,0,0,0,0,2.39c0,1.12.1,2.24.12,3.36,0,.5-.12,1-.08,1.49,0,.2.33.37.51.55.23-.24.64-.48.66-.74C28.74,35.1,28.7,33.93,28.7,32.78Zm47,.12h0c0-.94-.06-1.89,0-2.82a1.55,1.55,0,0,0-.7-1.57c-.07-.05-.37.06-.37.1-.05,1-.09,2-.09,3s0,2.23,0,3.35a7.66,7.66,0,0,0-.1,1.33c0,.23.44.47.72.54.12,0,.49-.37.5-.58C75.71,35.11,75.68,34,75.68,32.9Zm-12.83-.35h0c0,1.29,0,2.58,0,3.87,0,.2.28.39.43.59.18-.15.5-.28.52-.44.06-.59,0-1.19,0-1.79,0-1,.15-2.08.18-3.13A17.5,17.5,0,0,0,64,29.14c0-.32-.4-.6-.61-.9-.16.3-.45.59-.47.89C62.82,30.27,62.85,31.41,62.85,32.55Zm-47,.12h0c0,1.21,0,2.43,0,3.64,0,.21.2.42.3.62.24-.15.64-.28.67-.47a9.25,9.25,0,0,0,0-1.58c0-1.08,0-2.16,0-3.24,0-.77.18-1.55.13-2.31,0-.36-.41-.7-.63-1-.17.3-.46.59-.48.9C15.83,30.34,15.86,31.51,15.86,32.67Zm35.14,0h0c0,1.17,0,2.35,0,3.53,0,.23.27.46.41.7.19-.24.52-.47.53-.72.06-1.23,0-2.46,0-3.69s0-2.21,0-3.31c0-.3-.35-.57-.54-.86-.14.27-.38.54-.39.82C51,30.35,51,31.53,51,32.71Zm-.43,16.94h0c0,.47,0,.94,0,1.41a.7.7,0,0,0,.89.75c.38-.07,1-.44,1-.7.06-1-.09-2.07-.12-3.1,0-.7-.52-.73-.93-.59a1.41,1.41,0,0,0-.8.77A5.07,5.07,0,0,0,50.57,49.65Zm-2.3,10.2h0c0,1.22,0,2.43,0,3.65,0,.21.2.42.31.63.21-.21.61-.42.61-.63.05-2.4.05-4.79,0-7.19,0-.21-.37-.42-.57-.64-.13.22-.37.43-.37.65C48.25,57.49,48.27,58.67,48.27,59.85ZM31.42,111c0,1.14,0,2.28,0,3.42,0,.28.29.55.44.83.17-.28.47-.55.49-.84.05-1.21,0-2.42,0-3.63,0-1.05,0-2.11,0-3.15,0-.25-.37-.48-.56-.71-.13.22-.36.43-.37.66C31.4,108.73,31.42,109.87,31.42,111ZM64.81,45.75h0c0,1.5,0,3,0,4.51,0,.19.18.38.27.57.16-.19.45-.37.46-.56q0-4.52,0-9c0-.19-.29-.38-.45-.56-.09.18-.27.37-.27.55C64.8,42.74,64.81,44.24,64.81,45.75Zm-27.62-.1h0c0,1.52,0,3.05,0,4.57,0,.18.27.36.41.54.11-.17.31-.33.31-.5q0-4.51,0-9c0-.18-.3-.37-.46-.55-.1.19-.27.37-.27.56C37.17,42.71,37.19,44.18,37.19,45.65ZM70.37,43c0,1.32,0,2.64,0,4,0,.16.08.32.09.48,0,.42.06.85.07,1.28a11.81,11.81,0,0,0,0,1.46c0,.17.28.32.43.47.11-.19.32-.39.31-.58,0-1-.19-1.94-.18-2.9,0-1.91.14-3.82.17-5.73,0-.19-.29-.37-.45-.56-.17.18-.44.35-.47.55A13.68,13.68,0,0,0,70.37,43ZM31.64,45.77c0,1.48,0,3,0,4.45,0,.21.18.41.28.61.15-.21.42-.41.44-.63a15.73,15.73,0,0,0,0-2.06c0-.85-.16-1.69-.16-2.53,0-1.44.13-2.88.15-4.33,0-.19-.27-.4-.41-.6-.11.21-.3.42-.31.63C31.62,42.8,31.64,44.28,31.64,45.77ZM87.45,32.92h0c0-1.1,0-2.21,0-3.31,0-.28-.27-.55-.41-.82-.18.28-.52.55-.53.83,0,1.57,0,3.15,0,4.72,0,.64.06,1.28.1,1.92a1.23,1.23,0,0,0,.1.62.56.56,0,0,0,.52.11,1,1,0,0,0,.24-.6C87.46,35.24,87.45,34.08,87.45,32.92ZM37.27,108.57h-.09c0-.75,0-1.49,0-2.23a6.58,6.58,0,0,0-.37-1.25,4,4,0,0,0-.55,1.31c-.07,1.43,0,2.86,0,4.29a6.1,6.1,0,0,0,.24,1.33c0,.12.21.21.32.32.07-.11.19-.21.2-.32C37.09,110.87,37.17,109.72,37.27,108.57Zm60.5-92.69a10,10,0,0,0,0-1.73c0-.33-.37-.62-.56-.92-.24.31-.65.62-.67.95a27.72,27.72,0,0,0,0,3.53c0,.25.43.47.67.71.19-.23.53-.44.56-.69A14.25,14.25,0,0,0,97.77,15.88Zm-51,45.76c0-1.08,0-2.17,0-3.26a4.58,4.58,0,0,0-.3-1.11,3.7,3.7,0,0,0-.4,1.14c0,2.19,0,4.39,0,6.58a1.36,1.36,0,0,0,.05.54,2.16,2.16,0,0,0,.42.44c.09-.17.25-.34.26-.52C46.76,64.18,46.75,62.91,46.75,61.64Zm19.16,47.09h0c0,.34,0,.69,0,1,0,.73.12,1.47.21,2.19,0,.06.38.14.39.12a3.15,3.15,0,0,0,.34-1c0-1.25,0-2.51,0-3.76a6.41,6.41,0,0,0,0-1.24,3.33,3.33,0,0,0-.5-.84c-.14.27-.39.54-.41.82C65.88,107,65.91,107.84,65.91,108.73ZM54,60.39H54c0,1,0,1.89,0,2.83,0,.24.23.46.36.7.13-.23.37-.46.38-.69.09-2.3.15-4.61.18-6.91a.56.56,0,0,0-.39-.42c-.86,0-.4.54-.42.93C54.13,58,54,59.2,54,60.39ZM71.68,111c0-1.12,0-2.24,0-3.36a2.32,2.32,0,0,0-.36-.81c-.13.26-.26.51-.38.78a.49.49,0,0,0,0,.21c0,2.21,0,4.42,0,6.62,0,.25.22.49.33.73.14-.25.4-.5.41-.75C71.7,113.29,71.68,112.15,71.68,111ZM96.4,10h.09a10.15,10.15,0,0,0,0,1.46c0,.21.33.55.46.53.28,0,.74-.26.75-.43a26.12,26.12,0,0,0,0-3.19c0-.22-.41-.43-.67-.59a.74.74,0,0,0-.38.37C96.54,8.81,96.48,9.43,96.4,10ZM51,68.82c0,.89,0,1.78,0,2.66,0,.17.23.33.35.5.13-.16.36-.31.37-.48,0-.6,0-1.2,0-1.8,0-1.12.05-2.24.06-3.36a3,3,0,0,0-.07-.74s-.33-.1-.37,0a1.6,1.6,0,0,0-.36.71C51,67.11,51,68,51,68.82Zm5.54-7.25h0c0,1.29,0,2.57,0,3.85a1.64,1.64,0,0,0,.25.54c.1-.18.28-.36.28-.54q0-3.83,0-7.65c0-.18-.16-.35-.25-.53-.1.18-.28.35-.29.53C56.53,59,56.54,60.31,56.54,61.57ZM55,103.6c0-1.39,0-2.78,0-4.17a1.42,1.42,0,0,0-.2-.5c-.08.16-.22.31-.22.47,0,2.75,0,5.5,0,8.25a1.44,1.44,0,0,0,.21.5,1.5,1.5,0,0,0,.22-.53C55,106.28,55,104.94,55,103.6Zm-6.3-.06h0c0-1.39,0-2.79,0-4.18,0-.14-.13-.29-.2-.43a1.48,1.48,0,0,0-.21.44,2.43,2.43,0,0,0,0,.54c0,2.5,0,5,0,7.49a2.51,2.51,0,0,0,.28.69,2.4,2.4,0,0,0,.16-.64C48.73,106.15,48.73,104.85,48.73,103.54ZM6.09,15.93h0c0,.65,0,1.3,0,1.95,0,.16.27.29.41.43.17-.18.5-.37.49-.56,0-1.24-.08-2.48-.17-3.71,0-.25-.24-.47-.36-.71-.13.23-.35.46-.37.7C6.05,14.66,6.09,15.3,6.09,15.93Zm26.87,0h0c0,.65,0,1.3,0,1.94,0,.17.23.32.35.48.12-.16.33-.31.34-.48,0-.65,0-1.3,0-1.95s0-1.3,0-1.95a2,2,0,0,0-.35-.68A2.11,2.11,0,0,0,33,14C32.93,14.63,33,15.29,33,15.94ZM6,10h.08c0,.51,0,1,0,1.52,0,.16.26.45.34.43A.88.88,0,0,0,7,11.6a2.4,2.4,0,0,0,0-.8c0-.49,0-1,0-1.48A4.63,4.63,0,0,0,6.79,8c-.12-.29-.47-.43-.55.08S6.09,9.39,6,10Zm45,45.4c0,.63,0,1.26,0,1.89,0,.14.29.27.44.4.13-.17.37-.33.37-.5,0-1.18,0-2.36,0-3.54a2.08,2.08,0,0,0-.18-.51c-.2.15-.55.29-.58.47A15.24,15.24,0,0,0,51,55.43ZM33.69,10.06h.09c-.09-.67-.17-1.35-.27-2,0-.09-.1-.17-.16-.26-.07.09-.2.18-.21.27,0,1.19,0,2.38,0,3.57,0,.14.16.28.24.42.11-.17.29-.33.31-.51C33.71,11,33.69,10.55,33.69,10.06Zm36.53,8.25h.37a2.31,2.31,0,0,0,.24-.68c0-1.13,0-2.26,0-3.39a1.46,1.46,0,0,0-.11-.55.43.43,0,0,0-.32-.11,1,1,0,0,0-.26.49,7.3,7.3,0,0,0,0,.81c-.09,1-.22,1.91-.28,2.86C69.85,17.92,70.09,18.12,70.22,18.31ZM54.26,47h0c0-1,0-2,0-2.94a3,3,0,0,0-.18-.63,2.15,2.15,0,0,0-.23.64c0,1.6.14,3.21.19,4.81,0,.44-.07.88-.08,1.33,0,.09.13.18.2.28a1.1,1.1,0,0,0,.1-.34C54.26,49.11,54.26,48.06,54.26,47ZM70.21,10.24h-.07a7,7,0,0,0,0,.92,3.53,3.53,0,0,0,.24.69,3.67,3.67,0,0,0,.48-.73,1.71,1.71,0,0,0,0-.64c0-.66,0-1.32,0-2,0-.11-.31-.29-.46-.27s-.4.24-.4.36C70,9.16,70.13,9.7,70.21,10.24ZM31.75,105.75l.34.15a1.63,1.63,0,0,0,.16-.47c0-.64,0-1.29-.06-1.93,0-.09-.26-.25-.36-.22-.94.31-.33,1-.39,1.6C31.41,105.16,31.64,105.46,31.75,105.75ZM59.05,16h0c0-.64,0-1.27,0-1.9,0-.13-.13-.26-.2-.39-.08.13-.21.25-.21.38,0,1,0,2,0,2.94a3.42,3.42,0,0,1-.09.63c0,.15-.08.3-.12.44.14,0,.32.12.4.06a.67.67,0,0,0,.24-.43C59.07,17.17,59.05,16.59,59.05,16Zm-37.63-.08h0c0,.61,0,1.22,0,1.84,0,.13.13.26.2.39.07-.12.22-.24.22-.36,0-1.25,0-2.49,0-3.74,0-.11-.12-.23-.18-.34-.08.12-.22.24-.22.37C21.41,14.7,21.42,15.31,21.42,15.93Zm49.49,88.51h0a6.5,6.5,0,0,0,.13.9c0,.17.23.31.35.46a2.34,2.34,0,0,0,.31-.58,5.53,5.53,0,0,0,.12-1.34c0-.19-.32-.37-.5-.55-.12.15-.3.29-.35.46A2,2,0,0,0,70.91,104.44ZM45.25,9.91c0-.45,0-.91,0-1.36a2.11,2.11,0,0,0-.1-.5c-.07,0-.17.08-.19.14a1.82,1.82,0,0,0-.09.56c0,.35.1.7.08,1,0,.56-.17,1.11-.21,1.67,0,.13.16.27.24.4.1-.14.25-.29.26-.44C45.27,10.92,45.25,10.41,45.25,9.91Zm3.82,40.58h.16c0-.18,0-.36,0-.54V45.16c0-.33.06-.65.08-1,0-.17,0-.34,0-.51a1.09,1.09,0,0,0-.18,0,1.48,1.48,0,0,0-.13.5c0,1.94,0,3.88,0,5.82C49,50.16,49.06,50.33,49.07,50.49ZM59,10.11h0c0-.5,0-1,0-1.51,0-.11-.14-.21-.21-.31-.07.09-.19.19-.19.28,0,1,0,2,0,3,0,.09.12.19.19.28.07-.1.2-.2.21-.31C59.05,11.05,59,10.58,59,10.11Zm-37.62-.06h0c0,.49,0,1,0,1.46,0,.11.13.22.19.33.08-.11.21-.21.21-.32,0-1,0-1.94,0-2.92,0-.11-.13-.22-.2-.33-.08.13-.21.25-.21.38C21.4,9.11,21.42,9.58,21.42,10.05Zm23.76,5.51h.06c0-.54,0-1.08,0-1.63,0-.12-.13-.24-.2-.36-.09.16-.27.31-.27.46,0,1.22,0,2.45,0,3.67a.71.71,0,0,0,.11.44.43.43,0,0,0,.4,0,.48.48,0,0,0,.15-.36C45.33,17.06,45.25,16.31,45.18,15.56ZM82.23,12c.15-.3.19-.34.19-.39.06-1,.12-2.07.17-3.11,0-.07-.08-.14-.12-.21-.08.08-.23.15-.23.23C82.23,9.59,82.23,10.66,82.23,12ZM16.31,26.58l-.4.42c.16.09.31.24.46.23s.29-.17.43-.27ZM40,27.39,40.4,27c-.15-.09-.31-.25-.46-.25s-.29.17-.44.26Zm23.71-1L62.9,27c.13.1.27.28.4.28a.58.58,0,0,0,.48-.26C63.84,26.82,63.72,26.6,63.67,26.37ZM51.2,27.53l.64-.47a1.5,1.5,0,0,0-.44-.32.45.45,0,0,0-.34.22A2,2,0,0,0,51.2,27.53Zm.32,77.34-.45.3c.14.08.27.22.41.22a1.28,1.28,0,0,0,.44-.19ZM74.43,27c.28.15.4.27.52.27s.25-.15.37-.22c-.11-.1-.21-.25-.33-.27S74.73,26.83,74.43,27Zm-47,0c.27.13.4.25.51.24s.24-.14.36-.22c-.12-.1-.23-.25-.36-.27S27.73,26.85,27.46,27ZM82.38,13.84h-.11V15.2h.11ZM36.11,46.63l-.36.39c.1.09.2.24.31.25s.26-.15.28-.25S36.22,46.81,36.11,46.63ZM82.36,18.27c.13-.16.26-.25.24-.3a1.86,1.86,0,0,0-.22-.38c0,.08-.15.15-.15.22A2.08,2.08,0,0,0,82.36,18.27ZM51.5,82.65a1.12,1.12,0,0,0-.14.15,1.44,1.44,0,0,0,.28.27s.11-.06.17-.08Zm2.09,20.58c-.15-.16-.2-.26-.26-.27s-.12.09-.18.14a1,1,0,0,0,.21.2S53.5,103.26,53.59,103.23Zm13-56.4-.14.21c.06,0,.12.1.16.09s.13-.08.19-.13Zm20.6-19.55c.07-.09.16-.15.15-.18a1.38,1.38,0,0,0-.17-.25S87,26.94,87,27A1.52,1.52,0,0,0,87.17,27.28ZM53.13,101c.11,0,.18.08.22.06s.07-.1.11-.15-.11-.1-.15-.09S53.22,101,53.13,101Zm13.22,2.7.12.09s0-.09,0-.14-.06-.07-.1-.1Zm-16.58-.55.17.11s.07-.1.06-.14-.06-.09-.1-.14Zm16.61-12.9.07.06s.06-.06.06-.07l-.09-.08A.36.36,0,0,0,66.38,90.29Zm-16.46,10.8c0-.08.06-.12.07-.16s0-.05-.06-.08-.08.06-.09.09S49.88,101,49.92,101.09Zm19.3-54h.09l0,0L69.26,47ZM87.09,182.46" style="fill:none;stroke:#fff;stroke-miterlimit:10;stroke-width:2px"/><path d="M72.87,190.57v16.86c0,1-.32,1.37-1.35,1.37q-16,0-32,0a3.09,3.09,0,0,1-1.34-.45c-.1-.05-.11-.54,0-.71a3.46,3.46,0,0,0-1.53-5,2.43,2.43,0,0,0-2.42.18,3.34,3.34,0,0,0-1.6,1.88,2.52,2.52,0,0,0,.09,2.24,1.69,1.69,0,0,1,.16,1.14c-.07.29-.44.55-.74.72s-.5,0-.75,0c-.84,0-1.18-.4-1.18-1.19V173.65c0-1,.52-1.4,1.52-1.21a4.09,4.09,0,0,0,.85.09q9.14,0,18.27,0c1.5,0,3-.17,4.49-.17,1.91,0,3.83.15,5.74.16,1.29,0,2.59-.16,3.89-.16,1.46,0,2.92.14,4.38.17.82,0,1.64-.15,2.46-.12.57,0,1,.23,1,1C72.85,179.14,72.86,184.85,72.87,190.57Zm-28.78-5.71a3.18,3.18,0,0,0,3.43-3.12,3.28,3.28,0,1,0-6.55-.11A3.08,3.08,0,0,0,44.09,184.86Z" style="fill:none;stroke:#fff;stroke-miterlimit:10;stroke-width:2px"/><path d="M51.62,124.76q10.58,0,21.15,0c.67,0,.88.2.88.87q0,14.63,0,29.27c0,.84-.29,1.13-1.15,1.13q-21,0-42.08,0c-.69,0-1-.29-1-.94q0-13.17,0-26.33c0-1.07,0-2.15,0-3.22,0-.61.36-.77.93-.77Zm-18,30a2.26,2.26,0,0,0,2.55-2.33,2.81,2.81,0,0,0-2.51-2.67c-1.17,0-2.8,1.48-2.76,2.51A2.73,2.73,0,0,0,33.66,154.71Z" style="fill:none;stroke:#fff;stroke-miterlimit:10;stroke-width:2px"/><path d="M51.23,235.13c-3.3,0-6.6,0-9.9,0A6.79,6.79,0,0,1,37,233.54a12.71,12.71,0,0,1-2.05-1.81,10.79,10.79,0,0,1-1.23-2.39c-.43-1-.81-2-1.17-3.08-.12-.35,0-.82-.19-1.1-.9-1.38-.67-3.08-1.36-4.53a6.18,6.18,0,0,1-.3-1.85c-.15-1.23-.33-2.46-.41-3.7s0-2.29-.06-3.43c0-.86.39-1.11,1.09-1.09,2,.05,4,.18,6,.17,11.25,0,22.5-.12,33.75-.18,1.82,0,1.9,0,1.83,1.8a66.94,66.94,0,0,1-.47,6.8A49.37,49.37,0,0,1,71,224.57a18.72,18.72,0,0,1-.71,2.72c-.61,1.49-1.34,2.94-2.08,4.38a6.25,6.25,0,0,1-2.67,2.39c-1.92,1.1-4,1.07-6.12,1.07Z" style="fill:none;stroke:#fff;stroke-miterlimit:10;stroke-width:2px"/><path d="M84,45.33c-3.61,0-7.21,0-10.82,0-.59,0-.81-.19-.79-.78,0-1.18,0-2.36,0-3.54A1.42,1.42,0,0,0,71,39.55,1.24,1.24,0,0,0,69.6,41c0,1.2,0,2.39,0,3.59,0,.55-.24.78-.79.79-2.6,0-2.25.11-2.27-2.18,0-.81,0-1.63,0-2.45s-.36-1.18-1.17-1.16c-1,0-1.33.32-1.33,1.14,0,1.27,0,2.54,0,3.81,0,.61-.24.84-.84.84-2.41,0-4.82,0-7.23,0-.22,0-.55-.36-.61-.61a6.74,6.74,0,0,1,0-1.35c0-.61-.72-1.35-1.28-1.2s-1,.38-1,1.18c.06,2,.33,2-2,2-.61,0-.81-.19-.82-.81s.35-1.65-.58-2.15c-.28-.15-.73-.36-.9-.24a1.72,1.72,0,0,0-.64,1,4.35,4.35,0,0,0,0,1.35.71.71,0,0,1-.8.86q-3.78,0-7.56,0a.71.71,0,0,1-.78-.82c0-1.25,0-2.5,0-3.76,0-.86-.41-1.17-1.36-1.19s-1.19.32-1.16,1.17c0,1.26,0,2.53,0,3.8,0,.58-.24.84-.82.81-.39,0-.79,0-1.19,0-1.19,0-1.66-.84-1.15-1.92a3.13,3.13,0,0,0,.06-.93c0-.21.17-.44.13-.63a5.11,5.11,0,0,0-.5-2c-.21-.3-1-.3-1.52-.24-.22,0-.53.54-.54.85-.06,1.34,0,2.68,0,4,0,.58-.22.83-.8.82H8.91c-.59,0-.89-.24-.89-.88Q8,40.21,8,36c0-.61.27-.87.84-.87,1.81,0,3.63,0,5.44,0,.21,0,.41.37.6.58,0,0,0,.1,0,.16,0,1.93.43,2.28,2.35,1.92.21,0,.39-.35.54-.56s0-.25,0-.38c0-1.75,0-1.76,1.8-1.75,2.1,0,4.21,0,6.31,0,.54,0,.78.18.72.73a2.43,2.43,0,0,0,0,.27c0,1.78,0,1.73,1.79,1.76a1.16,1.16,0,0,0,1.11-1.59c-.23-.83,0-1.17.86-1.17,2.44,0,4.89,0,7.34,0,.56,0,.82.19.74.76V36c0,2-.28,1.87,2.09,1.79.22,0,.42-.41.63-.63,0,0,0-.07,0-.11.09-2,.09-2,2.05-2s4,0,6,0c.67,0,1,.23.92.92v.06c0,1.75.49,2.15,2.23,1.72A1,1,0,0,0,53,37c.12-1.94.1-1.94,2-1.94s4.09,0,6.14,0c.51,0,.75.18.69.7a1,1,0,0,0,0,.17c0,1.89.55,2.31,2.43,1.82.18,0,.33-.28.45-.46s0-.25,0-.38c0-1.85,0-1.85,1.87-1.85,2.09,0,4.17,0,6.25,0,.55,0,.77.19.72.73,0,.23,0,.47,0,.71,0,1.29,0,1.3,1.3,1.3,1.5,0,1.52,0,1.52-1.51,0-1.21,0-1.22,1.21-1.23h7.12c.63,0,1,.13.76.93a2.07,2.07,0,0,0,1.06,2.29,1.37,1.37,0,0,0,1.6-1c0-.49,0-1,0-1.47s.24-.78.79-.78c2,0,4,0,5.93,0,.55,0,.78.24.78.79q0,4.34,0,8.65c0,.64-.31.82-.88.81Z" style="fill:none;stroke:#fff;stroke-miterlimit:10;stroke-width:2px"/><path d="M51.55,158c6.74,0,13.48,0,20.22,0,.84,0,1.11.31,1.1,1.12,0,3.19,0,6.38,0,9.57,0,.91-.43,1.18-1.22,1.18-2.74,0-5.47,0-8.21,0q-15.94,0-31.91,0c-.79,0-1.18,0-1.15-1.08.07-2.76-.09-5.53-.14-8.29a10.76,10.76,0,0,1,.08-2c0-.2.47-.48.73-.49,2.2,0,4.39,0,6.58,0Z" style="fill:none;stroke:#fff;stroke-miterlimit:10;stroke-width:2px"/><path d="M85.48,188.81c0,6.2,0,12.41,0,18.61,0,.79-.3,1.05-1.06,1.05q-4.92,0-9.84,0c-.73,0-1-.25-1-1q0-17.34,0-34.7a6.79,6.79,0,0,0-.3-1.22,2,2,0,0,1-.07-.83,2.63,2.63,0,0,1,.45-1.07,1.21,1.21,0,0,1,.81-.38c3,0,6,0,9,0,.43,0,.87,0,1.3,0s.66.24.66.73Q85.48,179.41,85.48,188.81Z" style="fill:none;stroke:#fff;stroke-miterlimit:10;stroke-width:2px"/><path d="M24.67,176.24c0,2.1,0,4.2,0,6.31,0,.94.4,1.37,1.12,1,.33-.15.57-.86.59-1.33.07-1.92,0-3.84,0-5.77,0-2.14,0-4.28,0-6.42,0-.48.08-.84.64-.84s1.43,0,2.14.08c.09,0,.2.15.26.25a5,5,0,0,1,.59,1.05,1.78,1.78,0,0,1,0,1c-.13.48-.51.93-.51,1.4q0,17.19,0,34.39c0,.86-.33,1.11-1.12,1.1-3.12,0-6.24,0-9.35,0-1.35,0-1.61-.43-1.37-1.75a15.61,15.61,0,0,0,0-2.82c0-.64,0-1.27,0-1.91,0-1,0-2,0-2.94s.14-2.14.16-3.21c0-.52-.16-1-.15-1.55,0-1.08.12-2.16.14-3.25,0-.55-.15-1.1-.15-1.66,0-.89.11-1.79.12-2.69,0-.75-.12-1.5-.11-2.25,0-.9.16-1.8.15-2.7s-.16-1.69-.16-2.53.14-1.91.16-2.86c0-.59-.17-1.19-.16-1.77,0-1.2.11-2.38.17-3.58a5.76,5.76,0,0,0,0-.59c-.07-1.13-.07-1.14,1.13-1.13h5c.52,0,.7.19.69.71C24.66,172.06,24.67,174.15,24.67,176.24Z" style="fill:none;stroke:#fff;stroke-miterlimit:10;stroke-width:2px"/><path d="M49.73,105.13c.64,1.51,1.89,1.93,3.15,1a.71.71,0,0,0,.17-.21c.11-.19.22-.39.32-.59a4.42,4.42,0,0,1,.13.71,13.46,13.46,0,0,0,0,2.11,1.25,1.25,0,0,0,.82.82c1.48.15,1.63,0,1.62-1.56V100c0-1.58,0-1.58,1.65-1.58,2.06,0,4.13,0,6.19,0,1,0,1.37.2,1.32,1.26-.15,2.91-.25,5.83-.32,8.74,0,1.78,0,3.56,0,5.33,0,.28.24.6.15.81a1.65,1.65,0,0,1-.67.69c-.14.1-.38,0-.58,0H39.37a3.28,3.28,0,0,1-1.16-.34.59.59,0,0,1-.2-.47c0-.48.14-1,.14-1.44q0-6.48,0-13c0-1.66,0-1.66,1.73-1.66,2.09,0,4.17,0,6.25,0,.84,0,1.2.24,1.19,1.16,0,2.79,0,5.58,0,8.38,0,.64.14,1.07.93,1.07s1.27-.15,1.28-1.09S49.65,106.06,49.73,105.13Z" style="fill:none;stroke:#fff;stroke-miterlimit:10;stroke-width:2px"/><path d="M51.58,236.22c3.5,0,7,0,10.49,0a8.34,8.34,0,0,0,2.25-.6,8.83,8.83,0,0,0,5.12-4,28.6,28.6,0,0,0,1.69-4.24c.39-1,.81-2,1.16-3.09a19.45,19.45,0,0,0,.56-2.28c.29-1.56.51-3.13.81-4.69a.66.66,0,0,1,1.07-.41,7.24,7.24,0,0,1,1.65,2.1c.19.41-.15,1.09-.29,1.64-.35,1.34-.7,2.69-1.1,4s-.87,2.6-1.24,3.92c-.48,1.72-.79,3.5-1.36,5.18A6.2,6.2,0,0,1,70,237.21c-1,.6-2,1.09-3.06,1.6a1.34,1.34,0,0,1-.63.12c-3.65.09-7.3.2-11,.23q-6.9.06-13.81,0a24.58,24.58,0,0,1-5.36-.46,7.4,7.4,0,0,1-3.84-2.31c-1.28-1.42-1.55-3.16-2.17-4.83-.39-1.06-.08-2.34-1.07-3.25-.34-.33-.15-1.18-.31-1.76-.38-1.39-.85-2.75-1.24-4.14a20.81,20.81,0,0,1-.65-2.81A2.49,2.49,0,0,1,28.32,217c.86-.46,1.29-.11,1.37.85a12.45,12.45,0,0,0,.45,1.85c.05.19,0,.4.08.59.33,1.53.62,3.07,1,4.59.32,1.3.7,2.59,1.13,3.86A10.39,10.39,0,0,0,35.88,234a18,18,0,0,0,3.48,1.74c1.81.82,3.62.36,5.42.44C47,236.3,49.31,236.22,51.58,236.22Z" style="fill:none;stroke:#fff;stroke-miterlimit:10;stroke-width:2px"/><path d="M51.61,123.59c-7,0-14.07,0-21.1,0-.85,0-1.1-.38-1-1.12.13-1.37.94-3,2.61-3,.9,0,1.81-.25,2.71-.25q17.64,0,35.29,0c2.33,0,3.57,1.29,3.56,3.62,0,.64-.29.74-.83.74C65.75,123.58,58.68,123.59,51.61,123.59Z" style="fill:none;stroke:#fff;stroke-miterlimit:10;stroke-width:2px"/><path d="M36.21,58.15V52.49c0-.78.28-1,1-.73a1.21,1.21,0,0,0,1.7-1.2c0-1,0-2,0-2.93-.05-.73.37-1,.93-1q3.63,0,7.28,0a.85.85,0,0,1,.95,1,20.1,20.1,0,0,0,0,3.2,1.3,1.3,0,0,0,.74.93c.94.25,1.4.69,1.4,1.67a4,4,0,0,1,0,1c-.1.37-.24.54-.74.26a2.1,2.1,0,0,0-1.44,0c-.22.05-.48.49-.49.75,0,.66-.2,1-.91,1C45.29,56.4,45,56.67,45,58c0,2,0,3.91,0,5.87,0,.94-.4,1.33-1.35,1.33H37.58c-1,0-1.36-.33-1.36-1.37,0-1.9,0-3.81,0-5.71Z" style="fill:none;stroke:#fff;stroke-miterlimit:10;stroke-width:2px"/><path d="M66.57,58.22c0,2,0,4,0,5.93,0,.78-.37,1.06-1,1.07-2.1,0-4.2,0-6.3,0-.77,0-1.27-.28-1.23-1.27.09-2,0-3.95,0-5.93a3.56,3.56,0,0,0-.23-1.26c-.07-.18-.45-.32-.69-.32-.78,0-1.41,0-1.41-1.09,0-.72-1.22-1.13-1.95-.71-.53.31-.67.07-.7-.42,0-.21,0-.43,0-.65,0-1.31.16-1.42,1.45-1.77a1.37,1.37,0,0,0,.79-1c.1-1.13,0-2.28,0-3.42,0-.53.23-.77.75-.77h7.23c.53,0,.74.27.73.79,0,1,0,2.06,0,3.1a1.29,1.29,0,0,0,1.85,1.21c.59-.28.69-.14.69.45C66.56,54.19,66.57,56.2,66.57,58.22Z" style="fill:none;stroke:#fff;stroke-miterlimit:10;stroke-width:2px"/><path d="M25,117c-2.05,0-4.09,0-6.14,0a1.09,1.09,0,0,1-1.2-1,12.38,12.38,0,0,1,.08-2.1c0-.16.06-.32.07-.48,0-1.36,0-2.72,0-4.08,0-1.57-.12-3.15-.08-4.72,0-.23.54-.59.87-.64a14.29,14.29,0,0,1,2.07,0h8.59c.78,0,1.19.31,1.18,1.17,0,3.28,0,6.57,0,9.85,0,.85.38,1.15,1.22,1,.14,0,.32.13.48.2a3,3,0,0,1-.42.79c-.09.11-.37.05-.57.05Z" style="fill:none;stroke:#fff;stroke-miterlimit:10;stroke-width:2px"/><path d="M85.48,110.37c0,1.81,0,3.63,0,5.44,0,.63-.27.83-.86.93-3.78.67-7.6.13-11.39.28-.57,0-1.13-.5-1.71,0,0,0-.32-.09-.34-.17a2.63,2.63,0,0,1,0-.74s.23-.09.33-.06a.93.93,0,0,0,1.31-1v-8.91a8.66,8.66,0,0,0,0-1.14c-.1-.79.39-1,1-1,3.6,0,7.21,0,10.81,0,.58,0,.83.29.83.89,0,1.83,0,3.66,0,5.49Z" style="fill:none;stroke:#fff;stroke-miterlimit:10;stroke-width:2px"/><path d="M80.91,146.05V156.5c0,1.26-.2,1.46-1.49,1.46s-2.72,0-4.07,0c-.61,0-.78-.21-.77-.79q0-10.37,0-20.72c0-.43-.1-.86-.11-1.29,0-.65.46-.82,1-.83,1.21,0,2.42,0,3.64,0a3.55,3.55,0,0,0,.65,0c.76-.17,1.15.13,1.15.93C80.92,138.84,80.91,142.45,80.91,146.05Z" style="fill:none;stroke:#fff;stroke-miterlimit:10;stroke-width:2px"/><path d="M28.7,144.86V154c0,.94-.05,1.88,0,2.81a2.64,2.64,0,0,0,.45,1.31c.3.41.11.54-.2.56a7.86,7.86,0,0,1-1.94,0,1.08,1.08,0,0,1-.58-.79c-.11-1.15-.1-2.31-.21-3.45,0-.2-.4-.5-.63-.51a.77.77,0,0,0-.92.82c0,1.05.05,2.11,0,3.15a1.08,1.08,0,0,1-.7.78,4.71,4.71,0,0,1-1.6-.24s.05-.43,0-.66c-.05-1.65-.12-3.29-.18-4.93,0-.09,0-.18,0-.27,0-5,0-9.9,0-14.85a17.87,17.87,0,0,1,.22-2.74,1,1,0,0,1,.67-.59c1.54-.05,3.08-.06,4.62,0,.66,0,1,.53,1,1.2Z" style="fill:none;stroke:#fff;stroke-miterlimit:10;stroke-width:2px"/><path d="M54.25,91.09V86.74c0-.16,0-.33,0-.49-.14-1.89-.07-2,1.84-2h7.77a1.16,1.16,0,0,1,1.27,1.31c0,1.88,0,3.77,0,5.65,0,.41-.21.83-.22,1.24s.19.6.2.9a16.27,16.27,0,0,1,0,3.2c-.06.35-.87.8-1.35.81-2.75.08-5.5.06-8.25,0-.94,0-1.25-.51-1.23-1.45.05-1.63,0-3.26,0-4.89Z" style="fill:none;stroke:#fff;stroke-miterlimit:10;stroke-width:2px"/><path d="M49,90.88v5.28a1.12,1.12,0,0,1-1.3,1.27c-.86-.05-1.73-.24-2.59-.25-.6,0-1.2.26-1.79.24-1.62-.06-3.25-.18-4.88-.32a.73.73,0,0,1-.46-.52c0-1.31.12-2.62.14-3.93,0-2.2,0-4.39,0-6.59,0-1.52.24-1.77,1.81-1.77,2.63,0,5.25,0,7.88,0,.9,0,1.18.47,1.19,1.23C49.05,87.29,49,89.09,49,90.88Z" style="fill:none;stroke:#fff;stroke-miterlimit:10;stroke-width:2px"/><path d="M79.52,158.74c1.66,0,3.33,0,5,0,.66,0,1,.23,1,1,0,2.56,0,5.11,0,7.67,0,.68-.27.95-.93.95-3.35,0-6.7,0-10,0-.85,0-.81-.65-.82-1.07-.06-2.64-.05-5.29,0-7.94,0-.19.47-.54.73-.55C76.11,158.71,77.81,158.74,79.52,158.74Z" style="fill:none;stroke:#fff;stroke-miterlimit:10;stroke-width:2px"/><path d="M42.56,74.28c-1.79,0-3.58,0-5.38,0-.73,0-1-.27-1-1,0-2,0-4,0-5.93,0-1.15.08-1.19,1.22-1.18,2.2,0,4.39,0,6.58,0,.54,0,1.08-.11,1.42.57.22.43,1.72.2,2.07-.25a2.35,2.35,0,0,1,2.6-.2.75.75,0,0,1,.13.5c0,1.54,0,3.08,0,4.62,0,.31-.37.61-.56.92s-.55.67-.58,1c-.06.7-.4.9-1,.89C46.22,74.27,44.39,74.28,42.56,74.28Z" style="fill:none;stroke:#fff;stroke-miterlimit:10;stroke-width:2px"/><path d="M60.49,74.28c-1.74,0-3.48,0-5.21,0-.57,0-1-.13-1.08-.79-.08-.38-.46-.7-.66-1.06a2.54,2.54,0,0,1-.45-1.05c-.06-1.32,0-2.64,0-4s.49-1.64,1.69-1.37a2.54,2.54,0,0,1,1.06.64,1.85,1.85,0,0,0,2,0,1.66,1.66,0,0,1,1-.44q3.56,0,7.11,0c.48,0,1.15-.06.7.81a1.21,1.21,0,0,0,0,.54c0,2,0,4,0,6,0,.58-.21.75-.76.75C64,74.26,62.27,74.28,60.49,74.28Z" style="fill:none;stroke:#fff;stroke-miterlimit:10;stroke-width:2px"/><path d="M43.26,77.31H48.1c.65,0,1,.25.95.94,0,1.4,0,2.8,0,4.19,0,.61-.26.88-.83.88h-10c-.52,0-.75-.25-.75-.77,0-1.47,0-2.94,0-4.4,0-.62.28-.84.86-.84Z" style="fill:none;stroke:#fff;stroke-miterlimit:10;stroke-width:2px"/><path d="M59.86,77.31c1.63,0,3.26,0,4.89,0,.58,0,.82.24.82.81,0,1.49,0,3,0,4.46,0,.53-.25.75-.77.75H54.92c-.5,0-.68-.19-.67-.68,0-1.55,0-3.11,0-4.67,0-.5.19-.67.67-.67Z" style="fill:none;stroke:#fff;stroke-miterlimit:10;stroke-width:2px"/><path d="M67.63,80.9V49.35a10.3,10.3,0,0,1,0-1.36c0-.17.23-.33.36-.49.19.16.51.29.55.48a5.77,5.77,0,0,1,0,1.25V66.7q0,15.08,0,30.14c0,1.66.18,3.32.17,5,0,2.24-.14,4.48-.17,6.72,0,1.14.11,2.29.13,3.45a12.54,12.54,0,0,1-.09,2c0,.15-.4.27-.64.35-.07,0-.27-.1-.3-.2a1.89,1.89,0,0,1-.1-.63V80.9Z" style="fill:none;stroke:#fff;stroke-miterlimit:10;stroke-width:2px"/><path d="M24.67,164.09c0,1.14,0,2.28,0,3.42a1.08,1.08,0,0,1-.72.76c-1.86.06-3.73.06-5.59,0-.74,0-.59-.7-.65-1.14a11.18,11.18,0,0,1-.05-1.53c0-1,0-2,0-3s.07-2.17.2-3.24a1,1,0,0,1,.71-.61,14.86,14.86,0,0,1,2.11,0,.74.74,0,0,1,.5.17c.52.7,1.25.58,2,.58,1.16,0,1.56.39,1.55,1.54Z" style="fill:none;stroke:#fff;stroke-miterlimit:10;stroke-width:2px"/><path d="M51.54,118.57c-4.1,0-8.19,0-12.28,0a1.39,1.39,0,0,1-1-.46A1.28,1.28,0,0,1,38,117a1.71,1.71,0,0,1,1.16-.65c.95-.09,1.92,0,2.88,0H63.76a1.92,1.92,0,0,1,.83.15A1.06,1.06,0,0,1,65,117c-.42.5.19,1.63-1.07,1.62C59.8,118.55,55.67,118.57,51.54,118.57Z" style="fill:none;stroke:#fff;stroke-miterlimit:10;stroke-width:2px"/><path d="M27.83,98.67c1.18,0,2.36,0,3.53,0,.8-.05,1,.38,1,1a5.9,5.9,0,0,1,0,1.68,1.28,1.28,0,0,1-.74.77c-4.11,1.29-8.36.62-12.55.78-1.29,0-1.61-.38-1.44-1.64a15.59,15.59,0,0,1,.21-1.82c.08-.29.43-.71.66-.72,1.53,0,3.05.12,4.58.11s3.17-.14,4.75-.21Z" style="fill:none;stroke:#fff;stroke-miterlimit:10;stroke-width:2px"/><path d="M78.15,98.65h6.36c.67,0,1,.24,1,1s0,1.67,0,2.5c0,.2-.33.55-.51.56-2.74.09-5.49.17-8.23.2a26.47,26.47,0,0,1-3.56-.21c-.67-.09-1.61-.23-1.91-.68a4.78,4.78,0,0,1-.32-2.31,2,2,0,0,1,.4-1c.06-.09.34,0,.52,0,2.1,0,4.2,0,6.3,0Z" style="fill:none;stroke:#fff;stroke-miterlimit:10;stroke-width:2px"/><path d="M35.21,67.2c0,5.62,0,11.24,0,16.87,0,.65-.23,1.29-.23,1.94s.21,1.19.23,1.79c0,1,0,2,0,3,0,1.59,0,3.17,0,4.76,0,.42-.18.83-.22,1.25a3.46,3.46,0,0,0,0,.85,4.62,4.62,0,0,1,.18.71q0,6.7,0,13.42c0,.63,0,1.26,0,1.88a.63.63,0,0,1-.3.48.77.77,0,0,1-.64-.13c-.09-.08,0-.38,0-.58,0-.36,0-.71,0-1.06,0-.89,0-1.77,0-2.66a7.12,7.12,0,0,0,0-.8c0-.17-.13-.34-.12-.51.08-1.16.22-2.31.26-3.47,0-.48-.24-1-.26-1.45,0-1.51-.07-3,0-4.52.69-16.87.09-33.76.3-50.64a4.59,4.59,0,0,1,.23-.92,4.48,4.48,0,0,1,.22.93q.24,9.4.45,18.81Z" style="fill:none;stroke:#fff;stroke-miterlimit:10;stroke-width:2px"/><path d="M23.93,209.24H29c.68,0,.79.23.64.9a11.43,11.43,0,0,0-.2,2.41c0,.74-.33,1-1.05,1-3.28,0-6.56,0-9.84,0-.69,0-.91-.37-.95-.91a15.1,15.1,0,0,1,0-2.33,1.1,1.1,0,0,1,1.24-1.14c1.68,0,3.37,0,5.05,0Z" style="fill:none;stroke:#fff;stroke-miterlimit:10;stroke-width:2px"/><path d="M79.52,209.24h5a.84.84,0,0,1,1,1v2.44a.82.82,0,0,1-.92,1H74.45c-.71,0-.76-.51-.8-1a20.43,20.43,0,0,1-.06-2.82c0-.2.53-.52.82-.53C76.11,209.21,77.81,209.24,79.52,209.24Z" style="fill:none;stroke:#fff;stroke-miterlimit:10;stroke-width:2px"/><path d="M69.59,84.29V71.24c0-.52,0-1,.73-1s1,.26,1,1c0,3.47,0,6.93,0,10.39,0,1.5-.16,3-.17,4.49,0,1,.17,2.08.17,3.13s-.16,2.19-.15,3.29c0,1.4.09,2.81.17,4.21a1,1,0,0,1-.74,1.12c-1,.35-1,.39-1-.84Z" style="fill:none;stroke:#fff;stroke-miterlimit:10;stroke-width:2px"/><path d="M33.16,84.06V96.89c0,.46.06,1-.62,1a.84.84,0,0,1-.91-1c.06-1.07,0-2.14,0-3.21,0-.54.25-1.07.25-1.61s-.25-1.3-.24-1.94.22-1.37.24-2.06c0-.4-.25-.82-.25-1.23,0-5.27,0-10.55,0-15.82,0-.26.58-.5.9-.75.19.27.55.54.55.82C33.18,75.4,33.17,79.73,33.16,84.06Z" style="fill:none;stroke:#fff;stroke-miterlimit:10;stroke-width:2px"/><path d="M20.11,145.29c0,1.9,0,3.81,0,5.71,0,.49-.19.66-.67.68-2.39.08-2.39.09-2.39-2.26,0-3.26,0-6.53,0-9.79,0-.73.31-1,1-1,2,0,2,0,2,2v4.73Z" style="fill:none;stroke:#fff;stroke-miterlimit:10;stroke-width:2px"/><path d="M51.66,170.61c6.27,0,12.54,0,18.8,0a2.39,2.39,0,0,1,.86.37,2.67,2.67,0,0,1-.88.34q-18.84,0-37.67,0c-.07,0-.15,0-.21,0-.27-.14-.53-.29-.79-.44a2.29,2.29,0,0,1,.76-.29c2.28,0,4.56,0,6.84,0Z" style="fill:none;stroke:#fff;stroke-miterlimit:10;stroke-width:2px"/><path d="M29.47,163.94c0,1.15,0,2.31,0,3.47,0,.19,0,.55-.09.56a9.93,9.93,0,0,1-2.29.26c-.24,0-.62-.66-.63-1-.06-2.2,0-4.41,0-6.62a1,1,0,0,1,1.11-1.09c2.25,0,1.92,0,1.94,1.95Z" style="fill:none;stroke:#fff;stroke-miterlimit:10;stroke-width:2px"/><path d="M81.07,33.36c-1.23,0-2.46,0-3.69,0a1.06,1.06,0,0,1-.8-.55c-.28-1.15-.33-2.1,1.34-2.05,2.19.08,4.39,0,6.58,0,.32,0,.89.31.92.53a7.56,7.56,0,0,1-.1,1.95c0,.06-.36.1-.55.1Z" style="fill:none;stroke:#fff;stroke-miterlimit:10;stroke-width:2px"/><path d="M45.6,30.75c1.12,0,2.25-.05,3.36,0,.42,0,1.11.26,1.18.52A5,5,0,0,1,50,33.13c0,.1-.36.21-.56.21-2.48,0-5,0-7.43,0-.27,0-.61-.45-.75-.77a2,2,0,0,1,0-1,.79.79,0,0,1,.93-.79C43.32,30.79,44.46,30.75,45.6,30.75Z" style="fill:none;stroke:#fff;stroke-miterlimit:10;stroke-width:2px"/><path d="M69.13,33.36c-1.23,0-2.46,0-3.69,0-.22,0-.43-.37-.63-.58,0,0,0-.14,0-.21,0-1.77,0-1.79,1.76-1.79,2.06,0,4.13,0,6.19,0,.64,0,.89.29.88.88v.06c0,1.65,0,1.67-1.62,1.67Z" style="fill:none;stroke:#fff;stroke-miterlimit:10;stroke-width:2px"/><path d="M33.92,33.35h-3.1a1.3,1.3,0,0,1-1.24-1.87.93.93,0,0,1,1-.74c1.9,0,3.8,0,5.7,0,.56,0,1.11,0,1.67.05a.21.21,0,0,1,.1,0c.69.5.42,1.23.36,1.85a1.09,1.09,0,0,1-.83.63C36.38,33.4,35.15,33.36,33.92,33.35Z" style="fill:none;stroke:#fff;stroke-miterlimit:10;stroke-width:2px"/><path d="M57.5,33.36c-1.21,0-2.43,0-3.63,0-.29,0-.54-.46-.8-.71a.07.07,0,0,1,0,0c0-1.9,0-1.83,1.69-1.81s3.62,0,5.43,0c1.56,0,2.15.79,1.65,2.27,0,.16-.38.31-.58.32-1.25,0-2.5,0-3.75,0Z" style="fill:none;stroke:#fff;stroke-miterlimit:10;stroke-width:2px"/><path d="M22.24,33.36H18.82a.87.87,0,0,1-1-1c0-1.56,0-1.63,1.6-1.63h6c1,0,1.18.23,1.22,1.49,0,.85-.32,1.17-1.16,1.13C24.41,33.32,23.33,33.36,22.24,33.36Z" style="fill:none;stroke:#fff;stroke-miterlimit:10;stroke-width:2px"/><path d="M30.88,95.44c0,.54,0,1.08,0,1.63s-.21.84-.8.83c-.9,0-1.81,0-2.71,0-.6,0-1-.23-1-1,.05-1,0-2,0-2.93,0-.74.34-1.15,1.14-1.12s1.59,0,2.39,0,1,.28.93,1C30.85,94.38,30.88,94.91,30.88,95.44Z" style="fill:none;stroke:#fff;stroke-miterlimit:10;stroke-width:2px"/><path d="M72.49,95.74a12.75,12.75,0,0,1-.19-2.12c0-.24.51-.6.81-.63.81-.09,1.64,0,2.46,0s1,.26,1.06.85a33.48,33.48,0,0,1,0,3.47.85.85,0,0,1-.58.6c-1,.06-2.09,0-3.14,0a.71.71,0,0,1-.46-.49,12.67,12.67,0,0,1,0-1.63Z" style="fill:none;stroke:#fff;stroke-miterlimit:10;stroke-width:2px"/><path d="M50,77c0-.89,0-1.78,0-2.66,0-.65.23-1,1-1,2.26,0,2.06-.09,2,2.06,0,1.42,0,2.83,0,4.24a2.88,2.88,0,0,1-.29.82c-.14-.13-.28-.36-.43-.38a9.79,9.79,0,0,0-1.43,0c-.23,0-.49.2-.68.13s-.19-.39-.19-.6c0-.87,0-1.74,0-2.61Z" style="fill:none;stroke:#fff;stroke-miterlimit:10;stroke-width:2px"/><path d="M51.48,157.2H30.61a3,3,0,0,1-.6,0c-.09,0-.17-.14-.25-.22.08-.06.16-.16.25-.17.25,0,.51,0,.76,0H72.51a3.39,3.39,0,0,1,.82.2,3.41,3.41,0,0,1-.82.21Q62,157.22,51.48,157.2Z" style="fill:none;stroke:#fff;stroke-miterlimit:10;stroke-width:2px"/><path d="M91.85,30.61c1.17.15,2.3.28,3.43.46.16,0,.28.29.41.45s0,.1,0,.16c0,1.62,0,1.68-1.61,1.67s-3.33,0-5,0c-.6,0-.85-.34-.83-.77s.12-1.4.39-1.48A21.2,21.2,0,0,1,91.85,30.61Z" style="fill:none;stroke:#fff;stroke-miterlimit:10;stroke-width:2px"/><path d="M11.57,33.35H9c-.64,0-.9-.33-.94-.94-.11-1.39.22-1.68,1.65-1.67s2.93,0,4.4,0c.68,0,1.05.55,1,1.55,0,.59-.14,1.16-.95,1.05H11.57Z" style="fill:none;stroke:#fff;stroke-miterlimit:10;stroke-width:2px"/><path d="M42.65,75.05h5.11a1.44,1.44,0,0,1,.59,0,4,4,0,0,1,.64.47c-.27.26-.53.71-.83.74a26.46,26.46,0,0,1-2.82,0c-2.48,0-5,0-7.43,0a1.84,1.84,0,0,0-.86.23c-.52.32-.75.1-.83-.4a1,1,0,0,1,1.06-1.14Z" style="fill:none;stroke:#fff;stroke-miterlimit:10;stroke-width:2px"/><path d="M37.18,206.93c0,.49,0,1,0,1.47s-.21.85-.8.83a16.82,16.82,0,0,1-2,0,.92.92,0,0,1-.59-.65c0-1,.08-2,.12-3,0-.61,1.12-1.76,1.64-1.74a1.71,1.71,0,0,1,1.63,1.75Z" style="fill:none;stroke:#fff;stroke-miterlimit:10;stroke-width:2px"/><path d="M26.42,90.11c0-.26,0-.51,0-.76-.05-.75.25-1.08,1-1.07s1.84-.11,2.76-.13c.2,0,.58.21.58.33,0,1.11-.07,2.21-.14,3.32,0,.09-.22.24-.33.24a22.16,22.16,0,0,1-2.94,0c-.35,0-.74-.48-.93-.83s0-.71,0-1.07Z" style="fill:none;stroke:#fff;stroke-miterlimit:10;stroke-width:2px"/><path d="M74.43,88.11c2.23,0,2.23,0,2.22,2.26a2.34,2.34,0,0,1,0,.7c-.16.57-.24,1.14-1.17.91a7.14,7.14,0,0,0-2.26,0c-.45,0-1.09-.46-1-.9a12.17,12.17,0,0,0,.22-1.89c0-.84.29-1.17,1.11-1.08C73.81,88.14,74.12,88.11,74.43,88.11Z" style="fill:none;stroke:#fff;stroke-miterlimit:10;stroke-width:2px"/><path d="M60.27,75.05h5c1.14,0,1.48.42,1.28,1.53a1.17,1.17,0,0,1-.09.24.79.79,0,0,0-.15-.12,3.07,3.07,0,0,0-.91-.34c-3.42,0-6.84,0-10.26,0-.4,0-.88.11-.88-.57s.42-.73.91-.73Z" style="fill:none;stroke:#fff;stroke-miterlimit:10;stroke-width:2px"/><path d="M50,91.74c0-2.19,0-4.38,0-6.57a1.43,1.43,0,0,1,0-.59,2,2,0,0,1,.44-.47c.1.16.27.33.28.5,0,.92,0,1.84,0,2.76q0,5.05,0,10.11c0,.3.17.61.12.89a2.94,2.94,0,0,1-.43.82c-.16-.22-.46-.43-.47-.65,0-2.27,0-4.53,0-6.8Z" style="fill:none;stroke:#fff;stroke-miterlimit:10;stroke-width:2px"/><path d="M53.07,91.69c0,2.28,0,4.56,0,6.85a1.84,1.84,0,0,1-.27.7.54.54,0,0,1-.31,0c0-.25,0-.51-.06-.77,0-.51-.08-1-.09-1.54,0-3.35,0-6.7,0-10a17.5,17.5,0,0,1,.19-2.16,1.65,1.65,0,0,1,.27-.55,1.78,1.78,0,0,1,.26.61c0,2.32,0,4.64,0,7Z" style="fill:none;stroke:#fff;stroke-miterlimit:10;stroke-width:2px"/><path d="M40.45,32.76c0,1.18,0,2.36,0,3.53,0,.26-.37.5-.57.74-.2-.25-.56-.49-.56-.74,0-2.33,0-4.67,0-7,0-.35.35-.69.54-1,.21.34.57.68.59,1,.08,1.16,0,2.32,0,3.48Z" style="fill:none;stroke:#fff;stroke-miterlimit:10;stroke-width:2px"/><path d="M50.56,61.58a14.07,14.07,0,0,1,0-1.84.87.87,0,0,1,.54-.58,2,2,0,0,1,1,0c.21.06.51.33.51.51a33.29,33.29,0,0,1-.09,3.87c0,.26-.69.64-1.06.65a1.22,1.22,0,0,1-.9-.73A7.93,7.93,0,0,1,50.56,61.58Z" style="fill:none;stroke:#fff;stroke-miterlimit:10;stroke-width:2px"/><path d="M28.7,32.78c0,1.15,0,2.32,0,3.47,0,.26-.43.5-.66.74-.18-.18-.49-.35-.51-.55,0-.49.09-1,.08-1.49,0-1.12-.09-2.24-.12-3.36a23.82,23.82,0,0,1,0-2.39c0-.32.31-.62.47-.92.26.37.7.73.74,1.13C28.77,30.52,28.7,31.65,28.7,32.78Z" style="fill:none;stroke:#fff;stroke-miterlimit:10;stroke-width:2px"/><path d="M75.68,32.9c0,1.1,0,2.21,0,3.31,0,.21-.38.61-.5.58-.28-.07-.68-.31-.72-.54a7.66,7.66,0,0,1,.1-1.33c0-1.12,0-2.23,0-3.35s0-2,.09-3c0,0,.3-.15.37-.1a1.55,1.55,0,0,1,.7,1.57c-.07.93,0,1.88,0,2.82Z" style="fill:none;stroke:#fff;stroke-miterlimit:10;stroke-width:2px"/><path d="M62.85,32.55c0-1.14,0-2.28,0-3.42,0-.3.31-.59.47-.89.21.3.57.58.61.9A17.5,17.5,0,0,1,64,31.65c0,1.05-.13,2.09-.18,3.13,0,.6,0,1.2,0,1.79,0,.16-.34.29-.52.44-.15-.2-.42-.39-.43-.59,0-1.29,0-2.58,0-3.87Z" style="fill:none;stroke:#fff;stroke-miterlimit:10;stroke-width:2px"/><path d="M15.86,32.67c0-1.16,0-2.33,0-3.48,0-.31.31-.6.48-.9.22.34.6.68.63,1,.05.76-.11,1.54-.13,2.31,0,1.08,0,2.16,0,3.24a9.25,9.25,0,0,1,0,1.58c0,.19-.43.32-.67.47-.1-.2-.29-.41-.3-.62,0-1.21,0-2.43,0-3.64Z" style="fill:none;stroke:#fff;stroke-miterlimit:10;stroke-width:2px"/><path d="M51,32.71c0-1.18,0-2.36,0-3.53,0-.28.25-.55.39-.82.19.29.52.56.54.86.06,1.1,0,2.21,0,3.31s0,2.46,0,3.69c0,.25-.34.48-.53.72-.14-.24-.4-.47-.41-.7,0-1.18,0-2.36,0-3.53Z" style="fill:none;stroke:#fff;stroke-miterlimit:10;stroke-width:2px"/><path d="M50.57,49.65a5.07,5.07,0,0,1,0-1.46,1.41,1.41,0,0,1,.8-.77c.41-.14.91-.11.93.59,0,1,.18,2.07.12,3.1,0,.26-.63.63-1,.7a.7.7,0,0,1-.89-.75c0-.47,0-.94,0-1.41Z" style="fill:none;stroke:#fff;stroke-miterlimit:10;stroke-width:2px"/><path d="M48.27,59.85c0-1.18,0-2.36,0-3.53,0-.22.24-.43.37-.65.2.22.56.43.57.64,0,2.4,0,4.79,0,7.19,0,.21-.4.42-.61.63-.11-.21-.31-.42-.31-.63,0-1.22,0-2.43,0-3.65Z" style="fill:none;stroke:#fff;stroke-miterlimit:10;stroke-width:2px"/><path d="M31.42,111c0-1.14,0-2.28,0-3.42,0-.23.24-.44.37-.66.19.23.54.46.56.71.07,1,0,2.1,0,3.15,0,1.21,0,2.42,0,3.63,0,.29-.32.56-.49.84-.15-.28-.43-.55-.44-.83C31.39,113.29,31.42,112.15,31.42,111Z" style="fill:none;stroke:#fff;stroke-miterlimit:10;stroke-width:2px"/><path d="M64.81,45.75c0-1.51,0-3,0-4.52,0-.18.18-.37.27-.55.16.18.44.37.45.56q0,4.51,0,9c0,.19-.3.37-.46.56-.09-.19-.26-.38-.27-.57,0-1.5,0-3,0-4.51Z" style="fill:none;stroke:#fff;stroke-miterlimit:10;stroke-width:2px"/><path d="M37.19,45.65c0-1.47,0-2.94,0-4.41,0-.19.17-.37.27-.56.16.18.45.37.46.55q0,4.52,0,9c0,.17-.2.33-.31.5-.14-.18-.4-.36-.41-.54,0-1.52,0-3,0-4.57Z" style="fill:none;stroke:#fff;stroke-miterlimit:10;stroke-width:2px"/><path d="M70.37,43a13.68,13.68,0,0,1,0-1.57c0-.2.3-.37.47-.55.16.19.46.37.45.56,0,1.91-.15,3.82-.17,5.73,0,1,.14,1.93.18,2.9,0,.19-.2.39-.31.58-.15-.15-.41-.3-.43-.47a11.81,11.81,0,0,1,0-1.46c0-.43,0-.86-.07-1.28,0-.16-.09-.32-.09-.48C70.37,45.62,70.37,44.3,70.37,43Z" style="fill:none;stroke:#fff;stroke-miterlimit:10;stroke-width:2px"/><path d="M31.64,45.77c0-1.49,0-3,0-4.46,0-.21.2-.42.31-.63.14.2.41.41.41.6,0,1.45-.13,2.89-.15,4.33,0,.84.13,1.68.16,2.53a15.73,15.73,0,0,1,0,2.06c0,.22-.29.42-.44.63-.1-.2-.28-.4-.28-.61C31.62,48.74,31.64,47.25,31.64,45.77Z" style="fill:none;stroke:#fff;stroke-miterlimit:10;stroke-width:2px"/><path d="M87.45,32.92c0,1.16,0,2.32,0,3.47a1,1,0,0,1-.24.6.56.56,0,0,1-.52-.11,1.23,1.23,0,0,1-.1-.62c0-.64-.1-1.28-.1-1.92,0-1.57,0-3.15,0-4.72,0-.28.35-.55.53-.83.14.27.39.54.41.82,0,1.1,0,2.21,0,3.31Z" style="fill:none;stroke:#fff;stroke-miterlimit:10;stroke-width:2px"/><path d="M37.27,108.57c-.1,1.15-.18,2.3-.29,3.45,0,.11-.13.21-.2.32-.11-.11-.29-.2-.32-.32a6.1,6.1,0,0,1-.24-1.33c0-1.43,0-2.86,0-4.29a4,4,0,0,1,.55-1.31,6.58,6.58,0,0,1,.37,1.25c.06.74,0,1.48,0,2.23Z" style="fill:none;stroke:#fff;stroke-miterlimit:10;stroke-width:2px"/><path d="M97.77,15.88a14.25,14.25,0,0,1,0,1.85c0,.25-.37.46-.56.69-.24-.24-.66-.46-.67-.71a27.72,27.72,0,0,1,0-3.53c0-.33.43-.64.67-.95.19.3.51.59.56.92A10,10,0,0,1,97.77,15.88Z" style="fill:none;stroke:#fff;stroke-miterlimit:10;stroke-width:2px"/><path d="M46.75,61.64c0,1.27,0,2.54,0,3.81,0,.18-.17.35-.26.52a2.16,2.16,0,0,1-.42-.44A1.36,1.36,0,0,1,46,65c0-2.19,0-4.39,0-6.58a3.7,3.7,0,0,1,.4-1.14,4.58,4.58,0,0,1,.3,1.11C46.78,59.47,46.75,60.56,46.75,61.64Z" style="fill:none;stroke:#fff;stroke-miterlimit:10;stroke-width:2px"/><path d="M65.91,108.73c0-.89,0-1.78,0-2.67,0-.28.27-.55.41-.82a3.33,3.33,0,0,1,.5.84,6.41,6.41,0,0,1,0,1.24c0,1.25,0,2.51,0,3.76a3.15,3.15,0,0,1-.34,1s-.38-.06-.39-.12c-.09-.72-.16-1.46-.21-2.19,0-.34,0-.69,0-1Z" style="fill:none;stroke:#fff;stroke-miterlimit:10;stroke-width:2px"/><path d="M54,60.39c.07-1.19.16-2.37.2-3.56,0-.39-.44-1,.42-.93a.56.56,0,0,1,.39.42c0,2.3-.09,4.61-.18,6.91,0,.23-.25.46-.38.69-.13-.24-.35-.46-.36-.7-.05-.94,0-1.88,0-2.83Z" style="fill:none;stroke:#fff;stroke-miterlimit:10;stroke-width:2px"/><path d="M71.68,111c0,1.14,0,2.28,0,3.42,0,.25-.27.5-.41.75-.11-.24-.33-.48-.33-.73,0-2.2,0-4.41,0-6.62a.49.49,0,0,1,0-.21c.12-.27.25-.52.38-.78a2.32,2.32,0,0,1,.36.81C71.7,108.77,71.68,109.89,71.68,111Z" style="fill:none;stroke:#fff;stroke-miterlimit:10;stroke-width:2px"/><path d="M96.4,10c.08-.61.14-1.23.26-1.84A.74.74,0,0,1,97,7.83c.26.16.66.37.67.59a26.12,26.12,0,0,1,0,3.19c0,.17-.47.4-.75.43-.13,0-.43-.32-.46-.53a10.15,10.15,0,0,1,0-1.46Z" style="fill:none;stroke:#fff;stroke-miterlimit:10;stroke-width:2px"/><path d="M51,68.82c0-.85,0-1.71,0-2.56a1.6,1.6,0,0,1,.36-.71s.36,0,.37,0a3,3,0,0,1,.07.74c0,1.12,0,2.24-.06,3.36,0,.6,0,1.2,0,1.8,0,.17-.24.32-.37.48-.12-.17-.34-.33-.35-.5C51,70.6,51,69.71,51,68.82Z" style="fill:none;stroke:#fff;stroke-miterlimit:10;stroke-width:2px"/><path d="M56.54,61.57c0-1.26,0-2.53,0-3.8,0-.18.19-.35.29-.53.09.18.25.35.25.53q0,3.82,0,7.65c0,.18-.18.36-.28.54a1.64,1.64,0,0,1-.25-.54c0-1.28,0-2.56,0-3.85Z" style="fill:none;stroke:#fff;stroke-miterlimit:10;stroke-width:2px"/><path d="M55,103.6c0,1.34,0,2.68,0,4a1.5,1.5,0,0,1-.22.53,1.44,1.44,0,0,1-.21-.5c0-2.75,0-5.5,0-8.25,0-.16.14-.31.22-.47a1.42,1.42,0,0,1,.2.5C55,100.82,55,102.21,55,103.6Z" style="fill:none;stroke:#fff;stroke-miterlimit:10;stroke-width:2px"/><path d="M48.73,103.54c0,1.31,0,2.61,0,3.91a2.4,2.4,0,0,1-.16.64,2.51,2.51,0,0,1-.28-.69c0-2.49,0-5,0-7.49a2.43,2.43,0,0,1,0-.54,1.48,1.48,0,0,1,.21-.44c.07.14.2.29.2.43,0,1.39,0,2.79,0,4.18Z" style="fill:none;stroke:#fff;stroke-miterlimit:10;stroke-width:2px"/><path d="M6.09,15.93c0-.63,0-1.27,0-1.9,0-.24.24-.47.37-.7.12.24.34.46.36.71.09,1.23.16,2.47.17,3.71,0,.19-.32.38-.49.56-.14-.14-.4-.27-.41-.43-.05-.65,0-1.3,0-1.95Z" style="fill:none;stroke:#fff;stroke-miterlimit:10;stroke-width:2px"/><path d="M33,15.94c0-.65,0-1.31,0-1.95a2.11,2.11,0,0,1,.34-.69,2,2,0,0,1,.35.68c0,.65,0,1.3,0,1.95s0,1.3,0,1.95c0,.17-.22.32-.34.48-.12-.16-.34-.31-.35-.48,0-.64,0-1.29,0-1.94Z" style="fill:none;stroke:#fff;stroke-miterlimit:10;stroke-width:2px"/><path d="M6,10c.08-.64.12-1.28.23-1.92s.43-.37.55-.08A4.63,4.63,0,0,1,7,9.32c0,.49,0,1,0,1.48a2.4,2.4,0,0,1,0,.8.88.88,0,0,1-.55.39c-.08,0-.33-.27-.34-.43-.05-.5,0-1,0-1.52Z" style="fill:none;stroke:#fff;stroke-miterlimit:10;stroke-width:2px"/><path d="M51,55.43a15.24,15.24,0,0,1,0-1.79c0-.18.38-.32.58-.47a2.08,2.08,0,0,1,.18.51c0,1.18.06,2.36,0,3.54,0,.17-.24.33-.37.5-.15-.13-.42-.26-.44-.4C51,56.69,51,56.06,51,55.43Z" style="fill:none;stroke:#fff;stroke-miterlimit:10;stroke-width:2px"/><path d="M33.69,10.06c0,.49,0,1,0,1.46,0,.18-.2.34-.31.51-.08-.14-.24-.28-.24-.42,0-1.19,0-2.38,0-3.57,0-.09.14-.18.21-.27.06.09.15.17.16.26.1.67.18,1.35.27,2Z" style="fill:none;stroke:#fff;stroke-miterlimit:10;stroke-width:2px"/><path d="M70.22,18.31c-.13-.19-.37-.39-.36-.58.06-.95.19-1.9.28-2.86a7.3,7.3,0,0,1,0-.81,1,1,0,0,1,.26-.49.43.43,0,0,1,.32.11,1.46,1.46,0,0,1,.11.55c0,1.13,0,2.26,0,3.39a2.31,2.31,0,0,1-.24.68Z" style="fill:none;stroke:#fff;stroke-miterlimit:10;stroke-width:2px"/><path d="M54.26,47c0,1.05,0,2.1,0,3.15a1.1,1.1,0,0,1-.1.34c-.07-.1-.2-.19-.2-.28,0-.45.09-.89.08-1.33-.05-1.6-.14-3.21-.19-4.81a2.15,2.15,0,0,1,.23-.64,3,3,0,0,1,.18.63c0,1,0,2,0,2.94Z" style="fill:none;stroke:#fff;stroke-miterlimit:10;stroke-width:2px"/><path d="M70.21,10.24C70.13,9.7,70,9.16,70,8.61c0-.12.25-.34.4-.36s.45.16.46.27c.05.65,0,1.31,0,2a1.71,1.71,0,0,1,0,.64,3.67,3.67,0,0,1-.48.73,3.53,3.53,0,0,1-.24-.69,7,7,0,0,1,0-.92Z" style="fill:none;stroke:#fff;stroke-miterlimit:10;stroke-width:2px"/><path d="M31.75,105.75c-.11-.29-.34-.59-.31-.87.06-.55-.55-1.29.39-1.6.1,0,.36.13.36.22.05.64.06,1.29.06,1.93a1.63,1.63,0,0,1-.16.47Z" style="fill:none;stroke:#fff;stroke-miterlimit:10;stroke-width:2px"/><path d="M59.05,16c0,.58,0,1.16,0,1.73a.67.67,0,0,1-.24.43c-.08.06-.26,0-.4-.06,0-.14.09-.29.12-.44a3.42,3.42,0,0,0,.09-.63c0-1,0-2,0-2.94,0-.13.13-.25.21-.38.07.13.19.26.2.39,0,.63,0,1.26,0,1.9Z" style="fill:none;stroke:#fff;stroke-miterlimit:10;stroke-width:2px"/><path d="M21.42,15.93c0-.62,0-1.23,0-1.84,0-.13.14-.25.22-.37.06.11.18.23.18.34,0,1.25,0,2.49,0,3.74,0,.12-.15.24-.22.36-.07-.13-.19-.26-.2-.39,0-.62,0-1.23,0-1.84Z" style="fill:none;stroke:#fff;stroke-miterlimit:10;stroke-width:2px"/><path d="M70.91,104.44a2,2,0,0,1,0-.65c0-.17.23-.31.35-.46.18.18.48.36.5.55a5.53,5.53,0,0,1-.12,1.34,2.34,2.34,0,0,1-.31.58c-.12-.15-.3-.29-.35-.46a6.5,6.5,0,0,1-.13-.9Z" style="fill:none;stroke:#fff;stroke-miterlimit:10;stroke-width:2px"/><path d="M45.25,9.91c0,.5,0,1,0,1.51,0,.15-.16.3-.26.44-.08-.13-.25-.27-.24-.4,0-.56.17-1.11.21-1.67,0-.34-.07-.69-.08-1A1.82,1.82,0,0,1,45,8.19c0-.06.12-.1.19-.14a2.11,2.11,0,0,1,.1.5C45.26,9,45.25,9.46,45.25,9.91Z" style="fill:none;stroke:#fff;stroke-miterlimit:10;stroke-width:2px"/><path d="M49.07,50.49c0-.16,0-.33,0-.5,0-1.94,0-3.88,0-5.82a1.48,1.48,0,0,1,.13-.5,1.09,1.09,0,0,1,.18,0c0,.17,0,.34,0,.51,0,.32-.07.64-.08,1V50c0,.18,0,.36,0,.54Z" style="fill:none;stroke:#fff;stroke-miterlimit:10;stroke-width:2px"/><path d="M59,10.11c0,.47,0,.94,0,1.41,0,.11-.14.21-.21.31-.07-.09-.19-.19-.19-.28,0-1,0-2,0-3,0-.09.12-.19.19-.28.07.1.21.2.21.31,0,.5,0,1,0,1.51Z" style="fill:none;stroke:#fff;stroke-miterlimit:10;stroke-width:2px"/><path d="M21.42,10.05c0-.47,0-.94,0-1.4,0-.13.13-.25.21-.38.07.11.19.22.2.33,0,1,0,2,0,2.92,0,.11-.13.21-.21.32-.06-.11-.19-.22-.19-.33,0-.49,0-1,0-1.46Z" style="fill:none;stroke:#fff;stroke-miterlimit:10;stroke-width:2px"/><path d="M45.18,15.56c.07.75.15,1.5.21,2.25a.48.48,0,0,1-.15.36.43.43,0,0,1-.4,0,.71.71,0,0,1-.11-.44c0-1.22,0-2.45,0-3.67,0-.15.18-.3.27-.46.07.12.2.24.2.36,0,.55,0,1.09,0,1.63Z" style="fill:none;stroke:#fff;stroke-miterlimit:10;stroke-width:2px"/><path d="M82.23,12c0-1.33,0-2.4,0-3.48,0-.08.15-.15.23-.23,0,.07.12.14.12.21,0,1-.11,2.08-.17,3.11C82.42,11.65,82.38,11.69,82.23,12Z" style="fill:none;stroke:#fff;stroke-miterlimit:10;stroke-width:2px"/><path d="M16.31,26.58l.49.38c-.14.1-.28.27-.43.27s-.3-.14-.46-.23Z" style="fill:none;stroke:#fff;stroke-miterlimit:10;stroke-width:2px"/><path d="M40,27.39,39.5,27c.15-.09.29-.26.44-.26s.31.16.46.25Z" style="fill:none;stroke:#fff;stroke-miterlimit:10;stroke-width:2px"/><path d="M63.67,26.37c0,.23.17.45.11.61a.58.58,0,0,1-.48.26c-.13,0-.27-.18-.4-.28Z" style="fill:none;stroke:#fff;stroke-miterlimit:10;stroke-width:2px"/><path d="M51.2,27.53a2,2,0,0,1-.14-.57.45.45,0,0,1,.34-.22,1.5,1.5,0,0,1,.44.32Z" style="fill:none;stroke:#fff;stroke-miterlimit:10;stroke-width:2px"/><path d="M51.52,104.87l.4.33a1.28,1.28,0,0,1-.44.19c-.14,0-.27-.14-.41-.22Z" style="fill:none;stroke:#fff;stroke-miterlimit:10;stroke-width:2px"/><path d="M74.43,27c.3-.13.44-.24.56-.22s.22.17.33.27c-.12.07-.24.21-.37.22S74.71,27.11,74.43,27Z" style="fill:none;stroke:#fff;stroke-miterlimit:10;stroke-width:2px"/><path d="M27.46,27c.27-.14.4-.27.51-.25s.24.17.36.27c-.12.08-.23.21-.36.22S27.73,27.12,27.46,27Z" style="fill:none;stroke:#fff;stroke-miterlimit:10;stroke-width:2px"/><path d="M82.38,13.84V15.2h-.11V13.84Z" style="fill:none;stroke:#fff;stroke-miterlimit:10;stroke-width:2px"/><path d="M36.11,46.63c.11.18.24.3.23.39s-.19.26-.28.25-.21-.16-.31-.25Z" style="fill:none;stroke:#fff;stroke-miterlimit:10;stroke-width:2px"/><path d="M82.36,18.27a2.08,2.08,0,0,1-.13-.46c0-.07.1-.14.15-.22a1.86,1.86,0,0,1,.22.38C82.62,18,82.49,18.11,82.36,18.27Z" style="fill:none;stroke:#fff;stroke-miterlimit:10;stroke-width:2px"/><path d="M51.5,82.65l.31.34c-.06,0-.15.09-.17.08a1.44,1.44,0,0,1-.28-.27A1.12,1.12,0,0,1,51.5,82.65Z" style="fill:none;stroke:#fff;stroke-miterlimit:10;stroke-width:2px"/><path d="M53.59,103.23c-.09,0-.18.09-.23.07a1,1,0,0,1-.21-.2c.06,0,.13-.15.18-.14S53.44,103.07,53.59,103.23Z" style="fill:none;stroke:#fff;stroke-miterlimit:10;stroke-width:2px"/><path d="M66.57,46.83l.21.17c-.06,0-.12.12-.19.13s-.1-.06-.16-.09Z" style="fill:none;stroke:#fff;stroke-miterlimit:10;stroke-width:2px"/><path d="M87.17,27.28A1.52,1.52,0,0,1,87,27s.08-.08.12-.12a1.38,1.38,0,0,1,.17.25S87.24,27.19,87.17,27.28Z" style="fill:none;stroke:#fff;stroke-miterlimit:10;stroke-width:2px"/><path d="M53.13,101c.09-.09.13-.16.18-.18s.1.06.15.09-.06.13-.11.15S53.24,101.07,53.13,101Z" style="fill:none;stroke:#fff;stroke-miterlimit:10;stroke-width:2px"/><path d="M66.35,103.74l.07-.15s.09.06.1.1,0,.1,0,.14Z" style="fill:none;stroke:#fff;stroke-miterlimit:10;stroke-width:2px"/><path d="M49.77,103.19l.13-.17s.09.09.1.14,0,.09-.06.14Z" style="fill:none;stroke:#fff;stroke-miterlimit:10;stroke-width:2px"/><path d="M66.38,90.29a.36.36,0,0,1,0-.09l.09.08s0,0-.06.07Z" style="fill:none;stroke:#fff;stroke-miterlimit:10;stroke-width:2px"/><path d="M49.92,101.09c0-.07-.09-.11-.08-.15s.06-.06.09-.09.06.06.06.08S50,101,49.92,101.09Z" style="fill:none;stroke:#fff;stroke-miterlimit:10;stroke-width:2px"/><path d="M69.22,47l0-.09.07.06,0,0Z" style="fill:none;stroke:#fff;stroke-miterlimit:10;stroke-width:2px"/><path d="M44.09,184.86A3.08,3.08,0,0,1,41,181.63a3.28,3.28,0,1,1,6.55.11A3.18,3.18,0,0,1,44.09,184.86Zm.23-4.48c-.94,0-1.38.37-1.39,1.18a1.17,1.17,0,0,0,1.27,1.33c1,0,1.22-.22,1.25-1.22S45.13,180.39,44.32,180.38Z" style="fill:none;stroke:#fff;stroke-miterlimit:10;stroke-width:2px"/><path d="M33.66,154.71a2.73,2.73,0,0,1-2.72-2.49c0-1,1.59-2.51,2.76-2.51a2.81,2.81,0,0,1,2.51,2.67A2.26,2.26,0,0,1,33.66,154.71Zm-1.49-2.4a1.43,1.43,0,0,0,1.58,1.61,1.6,1.6,0,0,0,1.46-1.46,2.11,2.11,0,0,0-1.56-1.78A1.76,1.76,0,0,0,32.17,152.31Z" style="fill:none;stroke:#fff;stroke-miterlimit:10;stroke-width:2px"/><path d="M44.32,180.38c.81,0,1.15.4,1.13,1.29s-.27,1.23-1.25,1.22a1.17,1.17,0,0,1-1.27-1.33C42.94,180.75,43.38,180.37,44.32,180.38Z" style="fill:none;stroke:#fff;stroke-miterlimit:10;stroke-width:2px"/><path d="M32.17,152.31a1.76,1.76,0,0,1,1.48-1.63,2.11,2.11,0,0,1,1.56,1.78,1.6,1.6,0,0,1-1.46,1.46A1.43,1.43,0,0,1,32.17,152.31Z" style="fill:none;stroke:#fff;stroke-miterlimit:10;stroke-width:2px"/></g><g id="bucket-forward"><rect x="8.02" y="11.83" width="87.68" height="33.06" transform="translate(103.73 56.72) rotate(180)" style="fill:none"/></g><g id="bucket-reverse"><rect x="8.02" y="12.12" width="87.68" height="33.06" transform="translate(103.73 57.31) rotate(180)" style="fill:none"/></g><g id="right_wheels-forward"><path d="M77.35,68.11H91.82V97.87H77.35ZM86,113.18h5.79V97.87H86Z" style="fill:none"/></g><g id="right_wheels-reverse"><rect x="86.4" y="163.53" width="12.18" height="44.48" transform="translate(184.97 371.53) rotate(180)" style="fill:none"/></g><g id="left_wheels-reverse"><rect x="5.08" y="163.53" width="11.8" height="44.6" transform="translate(21.96 371.65) rotate(180)" style="fill:none"/></g><g id="left_wheels-forward"><path d="M11.46,68.11h14.1V97.87H11.46ZM17,97.87H11.46V112.8H17Z" style="fill:none"/></g></svg>