<svg xmlns="http://www.w3.org/2000/svg" viewBox="0 0 107.16 247.52"><g id="background"><path d="M11.21,156.35V134.7c0-1.39.17-1.52,1.53-1.5.91,0,1.83-.1,2.75-.15a4.29,4.29,0,0,0,1.25-.06,1.18,1.18,0,0,0,.64-.77,12,12,0,0,0,0-1.9A1.16,1.16,0,0,1,18.64,129c4.73,0,9.46,0,14.19,0,.76,0,1.08.76,1.19,1.43s-.31,1.85,1.19,1.24c.2-.08.47,0,.7,0,.66-.08.92.18.9.85a3.66,3.66,0,0,0,.33,1.07c.15-.06.44-.12.44-.19.06-.93.11-1.86.1-2.8A5.58,5.58,0,0,0,37.5,129a1.09,1.09,0,0,0-.81-.52c-1.43-.05-2.86-.06-4.29,0a3.07,3.07,0,0,1-2.56-1.57,5.2,5.2,0,0,1-.77-3.37c0-2.76,0-5.51,0-8.27,0-1.55,0-1.59-1.67-1.59-1.39,0-2.79,0-4.19,0-1.13,0-1.45-.32-1.45-1.44,0-7.15,0-14.29,0-21.44a5,5,0,0,0-.34-1.5c0-.11-.33-.2-.5-.21-.85,0-1.7,0-2.56,0a.81.81,0,0,1-.92-.94c0-.85,0-1.7,0-2.55,0-.68-.24-1.13-1.09-1.13-1.38,0-2.77-.09-4.16-.18-.88-.06-.92-.79-.92-1.41,0-3.83,0-7.65,0-11.48v-32a1.35,1.35,0,0,1,1.52-1.54h3c1.36,0,1.64-.27,1.64-1.61,0-.94,0-1.88-.06-2.82,0-.67.46-1,1.39-1,3.41,0,6.81.05,10.22.05a1.69,1.69,0,0,0,.82-.23.54.54,0,0,0,.09-.5A3,3,0,0,0,28.82,31c-2.26-.67-2.76-3.29-1.95-5.12a7.63,7.63,0,0,0,.22-1.21c.28-1.2.56-2.4.89-3.59s.81-2.45,1.16-3.7.54-2.44.91-3.63A7.5,7.5,0,0,1,32.17,10a14.76,14.76,0,0,1,2.08-1.74,10.16,10.16,0,0,1,2.61-.94c4.59-1.14,9.27-.42,13.9-.54s9.36-.12,14,0a11,11,0,0,1,4.25,1,11.41,11.41,0,0,1,3.52,2.74,3.86,3.86,0,0,1,.74,1.31c.34,1,.58,2.07.91,3.08s.83,2.18,1.14,3.3c.37,1.31.59,2.67.93,4,.13.52.45,1,.58,1.52a14.41,14.41,0,0,1,.61,4.85A3.27,3.27,0,0,1,75.38,31c-.43.12-.77.58-1.14.91,0,0,.16.31.28.34a7,7,0,0,0,1.43.22h9.19c1.73,0,1.88.15,1.88,1.93v2.45a.84.84,0,0,0,1,1c1.16,0,2.33.08,3.48,0a1.57,1.57,0,0,1,1.63,1.67c0,1.74,0,3.48,0,5.22V82.33c0,1.42-.6,2-2,2-.91,0-1.83.16-2.75.16-1.16,0-1.33.15-1.36,1.36a14.63,14.63,0,0,1-.24,2.57c0,.27-.54.6-.86.64a9.48,9.48,0,0,1-2.38,0c-1-.13-1.21.56-1.23,1.17a14.52,14.52,0,0,0,.28,2.86c0,.18.37.42.58.43,1.07,0,2.14,0,3.21,0A1.06,1.06,0,0,1,87.46,95a2.3,2.3,0,0,0-.1.69c0,4,0,7.91,0,11.87a10,10,0,0,1,0,1.89,1.22,1.22,0,0,1-.89.64c-1,.08-2,0-3,0s-1.18.37-.93,1.18a1.65,1.65,0,0,1-1.69,2.31c-1.48,0-3,0-4.46,0a1.22,1.22,0,0,0-1.4,1.41c0,3.36,0,6.71,0,10.07,0,1.43-1.73,3.46-3.36,3.32-1.35-.11-2.72,0-4.08,0-.77,0-1,.37-1,1,0,1.25,0,2.5,0,3.75,0,.24.24.47.37.7.19-.23.51-.46.54-.71.19-1.47.17-1.51,1.66-1.44.83,0,1.14-.24,1.1-1.09a1.43,1.43,0,0,1,1.6-1.62H85.48A1.39,1.39,0,0,1,87,130.5c0,.61,0,1.23,0,1.85s.5.85,1.09.83a22.51,22.51,0,0,1,4.19.15c.35.06.76,1.11.77,1.71.08,3.61,0,7.22,0,10.83v14.69c0,5.73,0,11.46,0,17.19,0,1.49-.55,2-2,2-4,.09-8,0-12.08,0-1.37,0-1.79-.42-1.79-1.78V161.27c0-1.57,0-1.6-1.56-1.61-.63,0-1.27,0-1.9,0s-1,.29-1,1c0,5.23,0,10.45,0,15.68,0,1.06-.44,1.39-1.51,1.28-.23,0-.52.33-.73.56s-.05.31-.05.47V194.5c0,.82.25,1,1.05.74a.9.9,0,0,1,1.25.92c0,1.07,0,2.14,0,3.21,0,.76.26,1,1,1,7.12,0,14.25,0,21.37,0,1.14,0,1.46.31,1.46,1.44v10.07c0,1.43,0,2.87,0,4.3,0,3,.13,6.08.18,9.12a4.79,4.79,0,0,1-.15,1.12.94.94,0,0,0,.83,1.13A1.28,1.28,0,0,1,98.56,229c0,3.3,0,6.6,0,9.9a1.29,1.29,0,0,1-1.31,1.41,1.74,1.74,0,0,1-1.61-1.41c0-.79,0-1.59,0-2.39,0-.64-.28-1-.94-1H84a.84.84,0,0,0-1,1c0,.87,0,1.74,0,2.61a1,1,0,0,1-1.14,1.18c-.73,0-.87-.57-.86-1.19,0-.87,0-1.74,0-2.61a.81.81,0,0,0-.92-.94H72.28c-.59,0-.8.32-.81.85,0,.86,0,1.71,0,2.56a1.38,1.38,0,0,1-1.14,1.37A1.18,1.18,0,0,1,69.17,239v-2.56c0-.59-.22-.91-.86-.9H60.53a.82.82,0,0,0-.92.94c0,.87,0,1.75,0,2.62,0,.66-.28,1.2-1,1.2a1.06,1.06,0,0,1-1.13-1.18c0-.87,0-1.74,0-2.61a.85.85,0,0,0-1-1c-3.12,0-6.24,0-9.35,0a1.11,1.11,0,0,0-.76.73,5.71,5.71,0,0,0,0,1.89,2.31,2.31,0,0,1-.71,1.89.9.9,0,0,1-.86.18,2.29,2.29,0,0,1-.91-1.16,17.48,17.48,0,0,1,0-2.71c0-.57-.25-.86-.87-.86q-3.75,0-7.5,0c-.5,0-.69.19-.67.68a10.36,10.36,0,0,1,0,2.43,3,3,0,0,1-1.08,1.6c-.59.43-1.68-.41-1.7-1.22s0-1.74,0-2.61c0-.59-.23-.89-.88-.88-2.47,0-4.93,0-7.4,0-.72,0-1,.32-1,1s0,1.52,0,2.28-.35,1.39-1,1.44c-.43,0-.93-.52-1.33-.89-.12-.1,0-.46,0-.71a16.46,16.46,0,0,0,0-2.33,1.1,1.1,0,0,0-.75-.73c-3.64,0-7.29,0-10.93,0-.26,0-.7.45-.74.74a19,19,0,0,0,0,2.39,1.44,1.44,0,1,1-2.85,0q0-4.25,0-8.49c0-.53,0-1.06,0-1.59,0-.76.59-.95,1.12-1a1,1,0,0,0,1-1.09c0-4.22,0-8.45,0-12.68s.07-8.4,0-12.6c0-.63.36-.84.88-.87s1.16,0,1.74,0H30.13c1.08,0,1.18-.15,1.13-1.16a23.27,23.27,0,0,1,0-2.77,1.49,1.49,0,0,1,2-1.19c.64.25.82,0,.82-.58V178.62c0-1-.24-1.13-1.16-.92s-1.66-.71-1.66-1.85V161.16a2.28,2.28,0,0,0,0-.87c-.11-.25-.39-.57-.63-.6a23.92,23.92,0,0,0-2.81-.13.78.78,0,0,0-.55.45,6.21,6.21,0,0,0-.21,1.54c0,5.45,0,10.89,0,16.33,0,1.34-.58,1.93-1.89,1.93h-12a1.72,1.72,0,0,1-1.9-1.86C11.25,170.75,11.21,163.55,11.21,156.35ZM30.79,56.44c0,5.71,0,11.43,0,17.14,0,.78.46,1,1,1,.81,0,1.64-.13,2.46-.12,1.46,0,2.92.16,4.38.17,1.29,0,2.59-.17,3.88-.16,1.92,0,3.83.15,5.74.16,1.5,0,3-.16,4.49-.17q9.13,0,18.27,0a5,5,0,0,1,.86.08c1,.2,1.51-.21,1.51-1.2q0-9.56,0-19.1,0-7.42,0-14.85c0-.79-.34-1.23-1.18-1.2-.25,0-.55-.08-.75,0s-.66.42-.74.71a1.78,1.78,0,0,0,.16,1.15A2.52,2.52,0,0,1,71,42.33a3.32,3.32,0,0,1-1.59,1.88,2.47,2.47,0,0,1-2.43.18,3.47,3.47,0,0,1-1.53-5c.12-.17.1-.66,0-.71a3,3,0,0,0-1.34-.45q-16,0-32,0c-1,0-1.35.32-1.35,1.37ZM52,122.24H73.24c.56,0,.92-.16.93-.77,0-1.08,0-2.15,0-3.22q0-13.17,0-26.33c0-.65-.25-.94-1-.94q-21,0-42.08,0c-.85,0-1.15.29-1.14,1.13q0,14.64,0,29.27c0,.67.22.87.88.87Q41.46,122.23,52,122.24ZM94.64,225.82h0v-7.57c0-.83-.37-1.21-1.22-1.22H89.77c-1,0-1.26.43-1.12,1.51a4.42,4.42,0,0,1-.33,2.33c-.14.29-1.08.38-1.61.29s-1-.66-.89-1.42,0-1.27,0-1.9-.29-.8-.81-.8H77.75c-.54,0-.75.28-.75.78,0,.66,0,1.31,0,2a1.23,1.23,0,0,1-.81,1.4c-.59.26-1.91,0-2-.48a11.73,11.73,0,0,1-.1-2.51c0-.61-.22-1.15-.77-1.15H66c-.58,0-.88.24-.86.86,0,.79,0,1.6,0,2.39-.07,1-.83,1-1.6,1s-1.12-.25-1.12-1,0-1.38,0-2.07S62.2,217,61.25,217c-2.28.08-4.57,0-6.85,0-.74,0-1,.36-1,1a20.42,20.42,0,0,0,0,2.07,1,1,0,0,1-.6,1.07,1.54,1.54,0,0,1-2.24-1.23,17.44,17.44,0,0,0,0-2.17c0-.26-.39-.68-.6-.68q-3.74-.07-7.45,0c-.26,0-.67.47-.71.77a22.79,22.79,0,0,0,0,2.34c0,.2-.07.54-.18.58a4.4,4.4,0,0,1-1.8.41,1.1,1.1,0,0,1-.94-1.38c.08-.61,0-1.23,0-1.85S38.57,217,38,217H30.82c-.59,0-.81.27-.8.83A13.21,13.21,0,0,1,30,220.3c-.06.36-.59.91-.9.91-.62,0-1.55-.18-1.77-.6a5.49,5.49,0,0,1-.15-2.21c0-.54.13-1.31-.61-1.34-2.55-.07-5.11-.05-7.67,0-.28,0-.67.52-.79.87a4.53,4.53,0,0,0,0,1.27c-.05,1.73-.41,2-2.12,1.71-.18,0-.46-.22-.47-.36a9.89,9.89,0,0,1-.09-2.24c.1-.81-.18-1.29-1-1.3H10.61c-1.34,0-1.45.11-1.45,1.49v8.22c0,2.26,0,4.53,0,6.8,0,.5-.16,1.32.77,1.33,3.14,0,6.28,0,9.41,0a1.14,1.14,0,0,0,.84-.68c.14-1.37.17-2.74.21-4.11,0-.3-.15-.6-.15-.9,0-1,.52-1.57,1.35-1.56s1.13.38,1.13,1.52c0,1.47,0,2.94,0,4.41a1.21,1.21,0,0,0,1.37,1.35c2.42,0,4.85,0,7.27,0a.48.48,0,0,0,.36-.3,6.06,6.06,0,0,0,.22-1.33c0-1.52,0-3.05,0-4.57a1.07,1.07,0,0,1,.44-.77,1.52,1.52,0,0,1,2.36,1.39c0,1.57,0,3.15,0,4.73,0,.59.25.89.89.88,2.25,0,4.5,0,6.75,0,1,0,1.39-.42,1.4-1.42,0-1.6,0-3.19,0-4.79,0-.24.1-.64.26-.7.43-.18,1-.42,1.35-.24A1.86,1.86,0,0,1,46.3,229c.1,1.59.06,3.19,0,4.79a.93.93,0,0,0,1,1c3,0,5.91.06,8.87,0a1.15,1.15,0,0,0,1.24-1.26c0-1.58,0-3.16,0-4.73a1,1,0,0,1,1.16-1.22c.7,0,1.07.39,1.05,1.19-.06,1.63,0,3.27,0,4.9a1.09,1.09,0,0,0,1.67,1,2.59,2.59,0,0,1,1.15-.06c.31,0,.61.19.92.2,1.47,0,2.94,0,4.41,0a1.35,1.35,0,0,0,1.42-1.4c0-1.61,0-3.23,0-4.84,0-.83.47-1,1.07-1s1.26.13,1.24,1c0,1.63,0,3.26,0,4.89,0,.91.35,1.31,1.26,1.32,2.28,0,4.57,0,6.85,0a1.43,1.43,0,0,0,1.47-1.52c-.06-1.32,0-2.64,0-4,0-.32-.31-.83-.2-.93a3,3,0,0,1,1.39-.79c.54-.09.83.33.82,1,0,1.52-.09,3,0,4.57.06,1.06.43,1.77,1.69,1.73,2.8-.07,5.61,0,8.42,0a1.42,1.42,0,0,0,1.49-1.49ZM52.42,11.87c-2.73,0-5.47,0-8.21,0-2.1,0-4.2,0-6.12,1.08a6.24,6.24,0,0,0-2.67,2.39c-.74,1.44-1.46,2.89-2.08,4.38a20.34,20.34,0,0,0-.71,2.71,55.25,55.25,0,0,0-1.36,5.43,66.94,66.94,0,0,0-.47,6.79c-.07,1.79,0,1.82,1.84,1.81,11.25-.06,22.49-.14,33.74-.18,2,0,4,.12,6,.17.71,0,1.15-.23,1.09-1.09-.07-1.14,0-2.29-.06-3.43s-.26-2.47-.41-3.7a5.88,5.88,0,0,0-.29-1.85c-.7-1.45-.46-3.15-1.36-4.53-.19-.29-.07-.75-.19-1.1-.37-1-.74-2.07-1.18-3.08a10.38,10.38,0,0,0-1.23-2.39,13.19,13.19,0,0,0-2-1.82,6.86,6.86,0,0,0-4.35-1.58C59,11.86,55.72,11.87,52.42,11.87ZM19.64,201.68H8.82c-.57,0-.88.18-.87.81,0,2.89,0,5.77,0,8.66,0,.55.24.79.78.78,2,0,4,0,5.93,0,.55,0,.81-.23.79-.78s0-1,0-1.47a1.35,1.35,0,0,1,1.59-1A2.07,2.07,0,0,1,18.11,211c-.28.81.12.93.75.93H26c1.19,0,1.21,0,1.21-1.22,0-1.5,0-1.52,1.51-1.51,1.29,0,1.3,0,1.31,1.3a5.58,5.58,0,0,1,0,.71c-.05.54.17.74.72.73,2.08,0,4.17,0,6.25,0,1.84,0,1.84,0,1.88-1.86,0-.12,0-.28,0-.37s.28-.42.46-.46c1.87-.49,2.42-.07,2.42,1.82a1,1,0,0,1,0,.17c-.06.52.18.7.69.7,2,0,4.1,0,6.15,0s1.9,0,2-1.94a1,1,0,0,1,.58-.75c1.74-.43,2.22,0,2.22,1.72v0c-.07.7.25.93.92.92,2,0,4,0,6,0s2,0,2.06-2c0,0,0-.09,0-.11.21-.22.42-.62.64-.63,2.36-.09,2.06-.21,2.08,1.79a.86.86,0,0,1,0,.16c-.08.57.18.76.75.75,2.44,0,4.89,0,7.34,0,.85,0,1.09-.33.85-1.16a1.17,1.17,0,0,1,1.11-1.6c1.79,0,1.79,0,1.8,1.77a2.44,2.44,0,0,1,0,.27c-.06.55.19.73.73.73,2.1,0,4.2,0,6.3,0,1.79,0,1.79,0,1.81-1.75,0-.13,0-.29,0-.38s.32-.52.53-.56c1.93-.37,2.34,0,2.35,1.92,0,.06,0,.13,0,.16.19.21.4.58.6.58,1.82.05,3.63,0,5.44,0,.58,0,.84-.26.84-.87q0-4.25,0-8.49c0-.64-.3-.88-.89-.88H73.59c-.58,0-.82.25-.81.83,0,1.34,0,2.68,0,4,0,.31-.33.83-.55.85-.51.06-1.31.06-1.51-.24a4.94,4.94,0,0,1-.51-2c0-.19.11-.42.13-.63a3.6,3.6,0,0,1,.06-.94c.51-1.07,0-1.9-1.14-1.91-.4,0-.8,0-1.2,0-.58,0-.82.24-.82.81,0,1.27,0,2.54,0,3.81,0,.85-.34,1.19-1.16,1.17s-1.36-.33-1.37-1.2c0-1.25,0-2.5,0-3.75a.71.71,0,0,0-.79-.82q-3.78,0-7.56,0a.71.71,0,0,0-.79.86,4.69,4.69,0,0,1,0,1.35,1.74,1.74,0,0,1-.65,1c-.17.12-.62-.09-.89-.24-.94-.5-.57-1.4-.58-2.15s-.22-.82-.83-.82c-2.33,0-2.06,0-2,2,0,.8-.5,1-1,1.18s-1.26-.6-1.28-1.2a6.74,6.74,0,0,0,0-1.35c0-.25-.39-.61-.6-.61-2.41-.05-4.83,0-7.24,0-.59,0-.85.23-.84.84,0,1.27,0,2.54,0,3.81,0,.82-.38,1.12-1.34,1.14s-1.15-.42-1.16-1.17,0-1.63,0-2.45c0-2.28.34-2.17-2.27-2.17-.55,0-.79.24-.79.79,0,1.2,0,2.39,0,3.59a1.24,1.24,0,0,1-1.36,1.41A1.42,1.42,0,0,1,31.24,206c0-1.18,0-2.36,0-3.54,0-.6-.2-.79-.79-.78C26.86,201.69,23.25,201.68,19.64,201.68ZM52.11,89H66c2.19,0,4.39,0,6.58,0,.26,0,.7-.29.74-.5a10.62,10.62,0,0,0,.07-2c0-2.76-.2-5.53-.13-8.29,0-1.06-.37-1.09-1.16-1.09q-16,0-31.91,0H32c-.79,0-1.22.27-1.21,1.18,0,3.19,0,6.38,0,9.57,0,.81.27,1.12,1.11,1.12C38.63,89,45.37,89,52.11,89ZM18.17,58.2c0,6.27,0,12.54,0,18.82,0,.49.12.76.67.73s.86,0,1.29,0c3,0,6,0,9,0a1.16,1.16,0,0,0,.8-.37,2.78,2.78,0,0,0,.46-1.07,2.36,2.36,0,0,0-.07-.83A6.07,6.07,0,0,1,30,74.23q0-17.36,0-34.71c0-.73-.25-1-1-1q-4.92,0-9.84,0c-.76,0-1.05.26-1.05,1.05C18.18,45.79,18.17,52,18.17,58.2ZM79,70.77c0,2.09,0,4.17,0,6.26,0,.52.17.71.69.71h5.06c1.19,0,1.19,0,1.13-1.13q0-.3,0-.6c.06-1.19.15-2.38.17-3.57,0-.59-.16-1.18-.15-1.77,0-1,.15-1.91.15-2.86s-.16-1.69-.16-2.53.14-1.8.15-2.7-.11-1.5-.1-2.25.11-1.8.11-2.7c0-.55-.15-1.1-.14-1.66,0-1.08.12-2.16.14-3.24,0-.52-.17-1-.16-1.55,0-1.07.14-2.14.17-3.21s0-2,0-2.94l0-1.91a15.6,15.6,0,0,1,0-2.82c.23-1.32,0-1.76-1.37-1.76-3.12,0-6.24,0-9.36,0-.79,0-1.11.24-1.11,1.1q0,17.19,0,34.39c0,.47-.38.92-.51,1.4a1.78,1.78,0,0,0,0,1,4.81,4.81,0,0,0,.6,1c.06.1.16.24.25.24.71,0,1.43.08,2.14.08s.65-.35.64-.83c0-2.14,0-4.29,0-6.43,0-1.92,0-3.84,0-5.76,0-.47.26-1.18.6-1.33.71-.33,1.11.1,1.12,1C79,66.56,79,68.67,79,70.77ZM53.92,141.88c.08-.94.23-1.87.23-2.8s.48-1.1,1.27-1.09.94.43.94,1.07c0,2.79,0,5.59,0,8.38,0,.92.35,1.17,1.18,1.15,2.08,0,4.17,0,6.25,0,1.74,0,1.73,0,1.73-1.66,0-4.32,0-8.63,0-12.95,0-.48.12-1,.13-1.44a.6.6,0,0,0-.2-.48,3.27,3.27,0,0,0-1.16-.33q-12.18,0-24.35,0c-.2,0-.45-.06-.59,0a1.73,1.73,0,0,0-.67.7c-.08.21.15.53.15.8,0,1.78,0,3.56,0,5.34-.07,2.91-.16,5.83-.32,8.74,0,1.06.37,1.25,1.32,1.26,2.07,0,4.13,0,6.2,0,1.64,0,1.64,0,1.64-1.57v-7.4c0-1.52.14-1.71,1.62-1.56a1.23,1.23,0,0,1,.82.82,13.44,13.44,0,0,1,0,2.11,5.89,5.89,0,0,0,.13.71c.11-.2.21-.4.33-.6a.78.78,0,0,1,.16-.2C52,140,53.28,140.37,53.92,141.88ZM52.08,10.79c2.26,0,4.53-.08,6.79,0,1.8.09,3.61-.37,5.42.45A17.68,17.68,0,0,1,67.77,13a10.29,10.29,0,0,1,3.53,5.28c.43,1.27.81,2.56,1.14,3.86.37,1.52.67,3.06,1,4.59,0,.19,0,.4.08.59A12.45,12.45,0,0,1,74,29.17c.08,1,.52,1.3,1.37.84a2.46,2.46,0,0,0,1.46-2.59,21,21,0,0,0-.65-2.8c-.39-1.39-.85-2.75-1.23-4.14-.16-.58,0-1.44-.32-1.76-1-.91-.67-2.19-1.06-3.25-.63-1.67-.9-3.41-2.18-4.84a7.46,7.46,0,0,0-3.83-2.3,25.25,25.25,0,0,0-5.37-.47c-4.6-.06-9.21-.05-13.81,0-3.65,0-7.3.14-11,.22a1.51,1.51,0,0,0-.63.13,34,34,0,0,0-3,1.6,6.24,6.24,0,0,0-2.44,3.42c-.56,1.69-.87,3.47-1.35,5.19-.37,1.32-.86,2.6-1.25,3.92s-.74,2.68-1.09,4c-.15.55-.49,1.23-.3,1.64a7.1,7.1,0,0,0,1.66,2.09.65.65,0,0,0,1.07-.4c.29-1.56.52-3.13.81-4.69a16.14,16.14,0,0,1,.56-2.28c.34-1.05.76-2.07,1.15-3.1a28.51,28.51,0,0,1,1.7-4.23,8.73,8.73,0,0,1,5.11-4,8.44,8.44,0,0,1,2.25-.6C45.08,10.75,48.58,10.79,52.08,10.79Zm0,112.63H30.84c-.55,0-.83.1-.84.74,0,2.33,1.23,3.62,3.57,3.62q17.64,0,35.29,0c.9,0,1.8-.25,2.7-.25,1.67,0,2.48-1.61,2.61-3,.07-.75-.18-1.13-1-1.12C66.11,123.43,59.08,123.42,52,123.42Zm15.4,65.44h0c0-1.9,0-3.81,0-5.71,0-1-.35-1.37-1.37-1.37H60c-1,0-1.36.39-1.36,1.33,0,1.95,0,3.91,0,5.87,0,1.36-.27,1.63-1.6,1.6-.71,0-.9.3-.91.95a1,1,0,0,1-.49.76,2.1,2.1,0,0,1-1.44,0c-.49-.28-.63-.11-.73.26a3.93,3.93,0,0,0-.05,1,1.57,1.57,0,0,0,1.4,1.68,1.32,1.32,0,0,1,.75.92,21.49,21.49,0,0,1,0,3.21.86.86,0,0,0,1,1q3.65,0,7.29,0a.83.83,0,0,0,.93-1c-.06-1,0-1.95,0-2.93a1.21,1.21,0,0,1,1.71-1.2c.73.24,1,.05,1-.73C67.45,192.63,67.44,190.75,67.44,188.86Zm-30.36-.07c0,2,0,4,0,6,0,.59.11.73.7.45a1.29,1.29,0,0,1,1.84,1.21c0,1,0,2.07,0,3.1,0,.52.2.78.73.78h7.24c.52,0,.75-.24.74-.77,0-1.14-.07-2.29,0-3.42a1.39,1.39,0,0,1,.8-1c1.29-.35,1.44-.46,1.44-1.77,0-.22,0-.44,0-.66,0-.49-.16-.72-.7-.41-.73.42-2,0-2-.71,0-1.12-.62-1.11-1.41-1.09-.24,0-.62-.14-.69-.32a3.38,3.38,0,0,1-.22-1.26c0-2-.07-4,0-5.93.05-1-.46-1.26-1.22-1.28-2.11,0-4.21,0-6.31,0-.66,0-1,.28-1,1.07C37.11,184.84,37.08,186.81,37.08,188.79ZM78.65,130H72.51c-.2,0-.49-.06-.58,0a3.73,3.73,0,0,0-.42.79c.16.08.34.24.48.21.84-.16,1.23.14,1.23,1,0,3.28,0,6.56,0,9.85,0,.86.4,1.17,1.19,1.17H83a14.13,14.13,0,0,0,2.06,0c.33-.05.87-.41.88-.64,0-1.57-.06-3.15-.08-4.72,0-1.36,0-2.72,0-4.08,0-.16.06-.32.07-.48A13.62,13.62,0,0,0,86,131a1.08,1.08,0,0,0-1.2-1C82.75,130,80.7,130,78.65,130Zm-60.48,6.67h0c0,1.83,0,3.66,0,5.49,0,.6.25.89.82.89,3.61,0,7.21,0,10.82,0,.6,0,1.09-.24,1-1a10.81,10.81,0,0,1,0-1.14v-8.92a.94.94,0,0,1,1.32-.95c.09,0,.31,0,.32-.06a2.31,2.31,0,0,0,0-.74c0-.08-.29-.21-.33-.18-.59.5-1.15,0-1.71,0-3.8.15-7.61-.39-11.4.28-.58.1-.87.3-.86.93C18.19,133,18.17,134.82,18.17,136.64ZM22.74,101v10.83c0,.8.4,1.1,1.16.93a2.81,2.81,0,0,1,.65,0c1.21,0,2.42,0,3.64,0,.52,0,1-.18,1-.83,0-.43-.1-.86-.1-1.29q0-10.35,0-20.72c0-.58-.17-.8-.77-.79-1.36,0-2.72,0-4.08,0s-1.49.2-1.49,1.46ZM75,102.15v9.3c0,.67.32,1.17,1,1.2,1.53,0,3.08,0,4.61,0a.92.92,0,0,0,.67-.58,18,18,0,0,0,.22-2.74c0-5,0-9.9,0-14.85a2.44,2.44,0,0,0,0-.27l-.18-4.93c0-.23.08-.65,0-.66a4.71,4.71,0,0,0-1.6-.24,1.1,1.1,0,0,0-.7.78c-.08,1,0,2.1,0,3.15a.77.77,0,0,1-.92.82.83.83,0,0,1-.63-.51c-.11-1.15-.1-2.3-.21-3.45,0-.29-.33-.75-.57-.79a8.46,8.46,0,0,0-2,0c-.3,0-.5.16-.2.57a2.64,2.64,0,0,1,.45,1.31c.07.93,0,1.87,0,2.8ZM49.4,155.92h0c0-1.63,0-3.26,0-4.89,0-.94-.28-1.44-1.22-1.45-2.75,0-5.51-.05-8.26,0-.48,0-1.29.46-1.35.81a17,17,0,0,0,0,3.19c0,.31.22.61.21.91s-.22.82-.23,1.24c0,1.88,0,3.77,0,5.65a1.17,1.17,0,0,0,1.28,1.31h7.77c1.9,0,2-.07,1.84-2,0-.16,0-.33,0-.49Zm5.22.2c0,1.8,0,3.59,0,5.39,0,.75.28,1.24,1.18,1.23,2.63,0,5.26,0,7.89,0,1.56,0,1.8-.25,1.8-1.77,0-2.2,0-4.4,0-6.59,0-1.31.12-2.62.13-3.93a.73.73,0,0,0-.46-.52c-1.62-.14-3.25-.27-4.88-.32-.59,0-1.19.25-1.78.24-.87,0-1.73-.2-2.6-.25a1.12,1.12,0,0,0-1.3,1.27ZM24.14,88.27c1.7,0,3.4,0,5.11,0,.26,0,.72-.36.73-.55,0-2.65.05-5.3,0-7.94,0-.42,0-1.08-.83-1.07-3.35,0-6.7,0-10,0-.66,0-.94.27-.93,1,0,2.56,0,5.11,0,7.67,0,.73.31,1,1,1Zm37,84.46c-1.83,0-3.66,0-5.49,0-.62,0-1,.19-1,.89,0,.36-.37.69-.58,1s-.56.61-.57.92c-.06,1.54,0,3.08,0,4.62a.75.75,0,0,0,.13.5,2.37,2.37,0,0,0,2.6-.2c.35-.45,1.85-.69,2.07-.25.34.68.89.57,1.43.57,2.19,0,4.38,0,6.57,0,1.14,0,1.22,0,1.22-1.18,0-2,0-3.95,0-5.93,0-.72-.25-1-1-1C64.68,172.75,62.88,172.73,61.09,172.73Zm-17.93,0c-1.77,0-3.55,0-5.32,0-.56,0-.77.17-.77.75,0,2,0,4,0,6a1.21,1.21,0,0,1,0,.54c-.45.87.22.81.7.81q3.55,0,7.12,0a1.67,1.67,0,0,0,1-.44,1.83,1.83,0,0,1,2,0,2.52,2.52,0,0,0,1.07.64c1.19.27,1.69-.16,1.69-1.37s0-2.64,0-4a2.73,2.73,0,0,0-.46-1c-.2-.36-.57-.68-.65-1.06-.14-.66-.51-.8-1.08-.79C46.64,172.74,44.9,172.73,43.16,172.73Zm17.23-3c1.63,0,3.26,0,4.89,0,.59,0,.87-.22.87-.84,0-1.47,0-2.93,0-4.4,0-.52-.22-.78-.75-.77h-10c-.57,0-.84.27-.83.88,0,1.39,0,2.79,0,4.19,0,.69.3.94.94.94Zm-16.6,0c1.65,0,3.3,0,4.94,0,.48,0,.68-.17.68-.67q0-2.34,0-4.68c0-.48-.18-.67-.67-.67H38.85c-.52,0-.77.22-.76.75,0,1.48,0,3,0,4.46,0,.57.24.81.81.81C40.53,169.69,42.16,169.7,43.79,169.7ZM36,166.11h0q0-16.32,0-32.64a2,2,0,0,0-.09-.64c0-.09-.24-.22-.31-.2-.23.09-.62.21-.64.36a13.8,13.8,0,0,0-.09,2c0,1.15.15,2.3.13,3.45,0,2.24-.16,4.48-.17,6.72,0,1.66.17,3.32.17,5q0,15.06,0,30.13c0,5.83,0,11.66,0,17.48a5.77,5.77,0,0,0,0,1.25c0,.19.36.32.55.48.13-.17.34-.32.37-.5a12.11,12.11,0,0,0,0-1.35ZM79,82.92v3c0,1.15.39,1.54,1.56,1.54.71,0,1.45-.13,2,.58a.79.79,0,0,0,.5.17,14.85,14.85,0,0,0,2.11,0,1,1,0,0,0,.71-.62c.13-1.07.18-2.15.21-3.23s0-2,0-3a11.13,11.13,0,0,0,0-1.53c-.07-.44.09-1.13-.65-1.15-1.87,0-3.73,0-5.6,0a1.07,1.07,0,0,0-.71.76C78.93,80.64,79,81.78,79,82.92ZM52.12,128.44c-4.13,0-8.26,0-12.39,0-1.27,0-.66,1.12-1.08,1.62a1.1,1.1,0,0,0,.42.52,1.87,1.87,0,0,0,.82.15H61.57c1,0,1.93.06,2.88,0a1.75,1.75,0,0,0,1.16-.65,1.3,1.3,0,0,0-.21-1.13,1.37,1.37,0,0,0-1-.46C60.3,128.43,56.21,128.44,52.12,128.44Zm23.7,19.9v.08c1.59-.07,3.17-.19,4.75-.21s3.06.12,4.58.1c.23,0,.59-.42.66-.71a15.59,15.59,0,0,0,.21-1.82c.18-1.27-.15-1.69-1.44-1.64-4.19.16-8.43-.51-12.55.78a1.28,1.28,0,0,0-.74.77,5.83,5.83,0,0,0,0,1.67c0,.61.22,1,1,1C73.46,148.28,74.64,148.34,75.82,148.34Zm-50.32,0h6.3c.18,0,.46,0,.52-.05a1.87,1.87,0,0,0,.4-1,4.64,4.64,0,0,0-.32-2.3c-.3-.46-1.23-.59-1.91-.68a26.38,26.38,0,0,0-3.56-.21c-2.74,0-5.48.1-8.23.2a.79.79,0,0,0-.5.56c-.06.83,0,1.67,0,2.5s.3,1,1,1C21.26,148.34,23.38,148.35,25.5,148.35Zm42.94,31.46h-.15q.22,9.41.45,18.81a4.28,4.28,0,0,0,.23.92,4.25,4.25,0,0,0,.22-.92c.21-16.87-.39-33.76.31-50.63.06-1.51,0-3,0-4.52,0-.49-.27-1-.25-1.45,0-1.16.18-2.32.26-3.47,0-.17-.12-.34-.13-.52s0-.52,0-.79c0-.89,0-1.78,0-2.66,0-.35,0-.71,0-1.06s.11-.5,0-.58a.77.77,0,0,0-.64-.13c-.14,0-.29.3-.3.48,0,.62,0,1.25,0,1.88q0,6.71,0,13.42a6.15,6.15,0,0,0,.18.71,3.47,3.47,0,0,1,.05.85c-.05.42-.22.83-.23,1.25,0,1.58,0,3.17,0,4.76,0,1,0,2,0,3.05,0,.6.24,1.19.24,1.79s-.23,1.29-.24,1.94C68.43,168.56,68.44,174.19,68.44,179.81Zm11.28-142h0c1.69,0,3.37,0,5.06,0A1.1,1.1,0,0,0,86,36.64a13.94,13.94,0,0,0,0-2.33c0-.54-.25-.92-1-.91-3.28,0-6.55,0-9.83,0-.72,0-1,.31-1.06,1.05a10.8,10.8,0,0,1-.2,2.41c-.15.67,0,.91.65.9C76.32,37.76,78,37.77,79.72,37.77Zm-55.58,0c1.7,0,3.4,0,5.1,0,.3,0,.81-.32.83-.52A20.43,20.43,0,0,0,30,34.4c0-.47-.08-1-.8-1-3.37,0-6.74,0-10.11,0a.82.82,0,0,0-.92.94c0,.82,0,1.64,0,2.45a.84.84,0,0,0,1,1C20.8,37.76,22.47,37.77,24.14,37.77Zm9.92,125V149.94c0-1.24,0-1.19-1-.84a1,1,0,0,0-.74,1.12c.09,1.4.17,2.81.18,4.21,0,1.1-.16,2.2-.16,3.29s.18,2.09.18,3.13c0,1.5-.17,3-.18,4.49,0,3.46,0,6.92,0,10.38,0,.79.34,1,1,1.05s.72-.48.72-1Zm36.43.23c0,4.33,0,8.66,0,13,0,.28.36.55.56.82.31-.25.89-.5.89-.75.06-5.27.05-10.55,0-15.82,0-.41-.26-.83-.25-1.23,0-.69.24-1.37.25-2.06s-.24-1.29-.24-1.94.22-1.07.25-1.61c0-1.07,0-2.15,0-3.21a.84.84,0,0,0-.91-1c-.68,0-.62.52-.62,1Zm13.05-61.23h0v4.72c0,2,0,2,2,2,.73,0,1-.32,1-1.05,0-3.27,0-6.53,0-9.79,0-2.35,0-2.34-2.38-2.26-.49,0-.68.18-.67.68C83.55,97.91,83.54,99.81,83.54,101.72ZM52,76.4H64.28c2.28,0,4.56,0,6.85,0a2.15,2.15,0,0,0,.75-.3l-.79-.43s-.14,0-.21,0H33.21a2.7,2.7,0,0,0-.88.35c.29.13.57.37.86.37C39.46,76.41,45.73,76.4,52,76.4Zm22.18,6.67c0,.83,0,1.67,0,2.5,0,1.92-.32,2,1.93,2a1,1,0,0,0,1.11-1.09c0-2.21,0-4.42,0-6.62,0-.37-.39-1-.63-1a9.85,9.85,0,0,0-2.28.26c-.07,0-.1.36-.1.56C74.18,80.76,74.19,81.91,74.18,83.07ZM22.58,213.65h-3.7c-.19,0-.54,0-.55.1a7.13,7.13,0,0,0-.09,2c0,.22.59.52.91.52,2.2.05,4.39,0,6.58,0,1.67.06,1.62-.89,1.34-2a1,1,0,0,0-.8-.55C25.05,213.62,23.81,213.65,22.58,213.65Zm35.47,2.61c1.14,0,2.29,0,3.42,0a.79.79,0,0,0,.93-.79,2,2,0,0,0,0-1c-.14-.32-.48-.76-.74-.77-2.48-.05-5,0-7.44,0-.19,0-.54.1-.56.21a4.76,4.76,0,0,0-.12,1.83c.06.26.75.5,1.17.52C55.81,216.31,56.93,216.26,58.05,216.26Zm-23.53-2.61H31.64c-1.64,0-1.65,0-1.62,1.67v.06c0,.59.25.89.88.88,2.07,0,4.13,0,6.2,0,1.77,0,1.79,0,1.75-1.79,0-.07,0-.17,0-.21-.2-.21-.41-.57-.62-.58C37,213.62,35.76,213.65,34.52,213.65Zm35.21,0c-1.23,0-2.46,0-3.69,0-.3,0-.8.39-.82.64-.06.62-.34,1.35.36,1.85a.15.15,0,0,0,.09,0l1.67,0c1.9,0,3.81,0,5.71,0a1,1,0,0,0,1-.74,1.32,1.32,0,0,0-1.25-1.88Zm-23.58,0h0c-1.25,0-2.5,0-3.75,0-.2,0-.53.16-.58.32-.5,1.48.1,2.27,1.65,2.27,1.81,0,3.62,0,5.43,0s1.72.09,1.69-1.81c0,0,0,0,0-.06-.27-.24-.52-.69-.8-.71C48.58,213.61,47.36,213.65,46.15,213.65Zm35.26,0c-1.08,0-2.17,0-3.25,0-.85,0-1.19.27-1.17,1.13,0,1.26.19,1.49,1.23,1.49h6c1.55,0,1.61-.07,1.59-1.63a.87.87,0,0,0-1-1Zm-8.63-62.08c0,.53,0,1.05,0,1.58,0,.69.21,1,.94,1s1.59,0,2.39,0,1.12-.38,1.13-1.12c0-1,0-2,0-2.93,0-.72-.35-.94-.95-.95-.91,0-1.81,0-2.72,0-.59,0-.82.26-.8.83S72.78,151,72.78,151.57Zm-41.61-.3h.07a14.78,14.78,0,0,0,0-1.63c0-.18-.3-.48-.47-.49-1,0-2.1,0-3.14,0a.87.87,0,0,0-.58.6,33.46,33.46,0,0,0,0,3.47c0,.59.39.9,1.07.85s1.64,0,2.45,0c.3,0,.8-.39.82-.63A13.8,13.8,0,0,0,31.17,151.27Zm22.47,18.78h0c0-.87,0-1.74,0-2.61,0-.21-.07-.56-.19-.61s-.44.12-.68.14a8.52,8.52,0,0,1-1.43,0c-.15,0-.28-.24-.42-.37a2.63,2.63,0,0,0-.3.82c0,1.41,0,2.82,0,4.24,0,2.15-.21,2,2.06,2.06.76,0,1-.38,1-1C53.65,171.82,53.64,170.94,53.64,170.05ZM52.17,89.8h-21a3.53,3.53,0,0,0-.82.21,3.5,3.5,0,0,0,.82.2H72.88a6.37,6.37,0,0,0,.76,0c.09,0,.17-.1.25-.16-.08-.08-.15-.2-.25-.22a2.91,2.91,0,0,0-.59,0ZM11.8,216.4a21,21,0,0,0,3.19-.51c.27-.09.38-1,.4-1.48a.72.72,0,0,0-.83-.77c-1.67,0-3.33,0-5,0s-1.67.06-1.61,1.68c0,.06,0,.13,0,.16s.26.42.42.45C9.5,216.12,10.63,216.25,11.8,216.4Zm80.28-2.75H89.53c-.82-.1-.93.47-1,1,0,1,.32,1.55,1,1.56H94c1.42,0,1.75-.28,1.65-1.68,0-.6-.31-.93-.94-.93ZM61,172h5.38a1,1,0,0,0,1.05-1.15c-.07-.49-.3-.71-.83-.4a1.68,1.68,0,0,1-.85.24c-2.48,0-5,0-7.44,0a26.5,26.5,0,0,0-2.82,0c-.3,0-.56.48-.83.74a3.7,3.7,0,0,0,.65.47,1.44,1.44,0,0,0,.59.05ZM66.47,40.07v1.36a1.69,1.69,0,0,0,1.63,1.74c.53,0,1.61-1.12,1.64-1.73.05-1,.14-2,.12-3a.9.9,0,0,0-.59-.65,19.2,19.2,0,0,0-2,0c-.58,0-.81.27-.79.84S66.47,39.58,66.47,40.07ZM77.24,156.9h0c0-.36.12-.79,0-1.07s-.59-.79-.93-.83a22.17,22.17,0,0,0-2.94,0c-.12,0-.33.15-.34.24-.07,1.1-.13,2.21-.14,3.32,0,.11.38.33.58.33.92,0,1.84-.14,2.76-.13s1.09-.32,1-1.07C77.22,157.41,77.24,157.16,77.24,156.9Zm-48,2c.3,0,.61,0,.92,0,.82.09,1.14-.24,1.11-1.08a11.09,11.09,0,0,1,.23-1.89c.06-.44-.59-.94-1-.9a7.2,7.2,0,0,1-2.27,0c-.93-.24-1,.34-1.17.91a2.72,2.72,0,0,0,0,.7C27,158.9,27,158.9,29.23,158.9ZM43.38,172h5.11c.49,0,.9-.1.91-.74s-.48-.56-.88-.56c-3.42,0-6.85,0-10.27,0a2.74,2.74,0,0,1-.9-.33.61.61,0,0,1-.16-.12,2.34,2.34,0,0,0-.09.24c-.2,1.11.14,1.52,1.28,1.53Zm10.26-16.69h0c0-2.27,0-4.53,0-6.8,0-.22-.31-.43-.47-.65a3,3,0,0,0-.42.81c0,.29.12.6.12.9,0,3.37,0,6.74,0,10.11,0,.92,0,1.84,0,2.76,0,.17.19.33.28.5.15-.15.36-.28.44-.47a1.44,1.44,0,0,0,0-.59Zm-3,0h0c0,2.32,0,4.64,0,7a1.64,1.64,0,0,0,.27.61,2.16,2.16,0,0,0,.27-.55,17.48,17.48,0,0,0,.18-2.16q0-5,0-10.05c0-.52-.06-1-.09-1.54a6.48,6.48,0,0,0-.06-.77s-.29-.08-.3,0a1.67,1.67,0,0,0-.28.7C50.58,150.75,50.59,153,50.59,155.32ZM63.2,214.25h0c0,1.16-.05,2.32,0,3.48,0,.35.38.68.59,1,.19-.35.54-.69.55-1,0-2.33,0-4.67,0-7,0-.25-.36-.49-.56-.74-.2.24-.55.48-.57.73C63.17,211.89,63.2,213.07,63.2,214.25ZM53.09,185.43a8.5,8.5,0,0,0,0-1.89,1.23,1.23,0,0,0-.9-.73c-.38,0-1,.38-1.07.65a33.29,33.29,0,0,0-.09,3.87c0,.18.31.45.52.51a1.92,1.92,0,0,0,1,0,.9.9,0,0,0,.55-.58A16.09,16.09,0,0,0,53.09,185.43ZM75,214.23c0,1.13-.06,2.25,0,3.37,0,.39.47.75.73,1.13a2.52,2.52,0,0,0,.47-.92,19.06,19.06,0,0,0,0-2.39c0-1.12-.1-2.24-.12-3.36,0-.5.12-1,.08-1.49,0-.2-.33-.37-.5-.55-.23.24-.65.48-.66.74C74.91,211.91,75,213.07,75,214.23Zm-47-.12h0c0,.94.05,1.89,0,2.82a1.59,1.59,0,0,0,.7,1.57c.08.05.37-.06.38-.1,0-1,.08-2,.09-3s0-2.24,0-3.35a6.79,6.79,0,0,0,.1-1.33c0-.23-.44-.48-.72-.54-.12,0-.49.36-.5.58C27.94,211.9,28,213,28,214.11Zm12.83.34h0c0-1.28,0-2.57,0-3.86,0-.2-.28-.39-.43-.59-.18.15-.5.28-.52.44-.06.59,0,1.19,0,1.79,0,1-.15,2.08-.18,3.13a16.21,16.21,0,0,0,.09,2.51c0,.32.39.6.6.9.17-.3.46-.59.47-.89C40.84,216.74,40.8,215.6,40.8,214.45Zm47-.11h0c0-1.21,0-2.43,0-3.64,0-.21-.19-.42-.3-.62-.23.15-.63.28-.67.47a10.29,10.29,0,0,0,0,1.57c0,1.09,0,2.17,0,3.25a22.48,22.48,0,0,0-.12,2.31c0,.36.4.7.63,1,.16-.3.45-.59.47-.9C87.83,216.67,87.79,215.5,87.79,214.34Zm-35.13,0h0c0-1.17,0-2.35,0-3.53,0-.24-.27-.46-.41-.7-.19.24-.52.47-.53.71-.05,1.23,0,2.47,0,3.7s0,2.21,0,3.31c0,.29.34.57.53.86.14-.27.39-.54.4-.82C52.68,216.66,52.66,215.48,52.66,214.3Zm.42-16.94h0c0-.47,0-.94,0-1.41a.69.69,0,0,0-.88-.75c-.39.07-1,.43-1,.7-.07,1,.08,2.07.11,3.1,0,.7.52.73.94.58a1.41,1.41,0,0,0,.8-.77A5.37,5.37,0,0,0,53.08,197.36Zm2.3-10.2h0c0-1.22,0-2.43,0-3.65,0-.21-.21-.42-.32-.63-.21.21-.6.42-.61.63q-.06,3.6,0,7.18c0,.22.37.43.56.65.13-.22.37-.43.38-.65C55.4,189.52,55.38,188.34,55.38,187.16ZM72.24,136c0-1.14,0-2.28,0-3.42,0-.28-.29-.56-.45-.83-.17.28-.47.55-.48.83-.06,1.21,0,2.43,0,3.64,0,1.05,0,2.1,0,3.15,0,.25.37.48.57.71.12-.22.35-.44.36-.66C72.26,138.28,72.24,137.14,72.24,136ZM38.85,201.26h0c0-1.5,0-3,0-4.51,0-.19-.18-.38-.27-.57-.16.18-.45.37-.45.56q0,4.51,0,9c0,.19.29.37.44.56.1-.18.27-.37.27-.55C38.86,204.27,38.85,202.77,38.85,201.26Zm27.62.1h0c0-1.52,0-3.05,0-4.57,0-.18-.26-.36-.4-.54-.11.17-.32.33-.32.5q0,4.51,0,9c0,.18.3.36.45.55.1-.19.27-.38.28-.57C66.48,204.3,66.47,202.83,66.47,201.36ZM33.28,204c0-1.32,0-2.64,0-4,0-.16-.09-.32-.1-.48,0-.42-.06-.85-.07-1.28a14.17,14.17,0,0,0,0-1.46c0-.18-.28-.32-.43-.47-.11.19-.32.39-.32.58,0,1,.2,1.94.19,2.9,0,1.91-.14,3.82-.18,5.73,0,.18.3.37.46.56.16-.18.44-.35.46-.55A11.75,11.75,0,0,0,33.28,204ZM72,201.24c0-1.48,0-3,0-4.45,0-.21-.19-.41-.29-.61-.15.21-.42.41-.44.63a17.7,17.7,0,0,0,0,2.06c0,.85.17,1.69.16,2.53,0,1.44-.12,2.88-.14,4.32,0,.2.26.41.4.61.11-.21.31-.42.31-.63C72,204.21,72,202.73,72,201.24ZM16.21,214.09h0c0,1.1,0,2.21,0,3.31,0,.28.26.55.4.82.19-.28.53-.55.54-.83,0-1.57,0-3.15,0-4.72,0-.64-.06-1.28-.1-1.92a1.35,1.35,0,0,0-.1-.62.57.57,0,0,0-.52-.11.85.85,0,0,0-.24.59C16.19,211.77,16.21,212.93,16.21,214.09Zm50.18-75.66h.09c0,.74,0,1.49,0,2.23a6.62,6.62,0,0,0,.38,1.25,4.28,4.28,0,0,0,.54-1.31c.08-1.43,0-2.86,0-4.29A6.08,6.08,0,0,0,67.2,135c0-.12-.22-.21-.33-.32-.07.11-.19.21-.2.32C66.57,136.14,66.48,137.29,66.39,138.43Zm-60.5,92.7a11.07,11.07,0,0,0,0,1.73,2.92,2.92,0,0,0,.57.92c.23-.31.64-.62.67-.95a27.72,27.72,0,0,0,0-3.53c0-.25-.44-.47-.67-.71-.2.23-.53.44-.57.69A14.26,14.26,0,0,0,5.89,231.13Zm51-45.77c0,1.09,0,2.18,0,3.27a4.61,4.61,0,0,0,.31,1.11,4,4,0,0,0,.4-1.14c0-2.2,0-4.39,0-6.58a1.57,1.57,0,0,0-.06-.54,2.41,2.41,0,0,0-.41-.44c-.09.17-.26.34-.26.52C56.89,182.83,56.9,184.1,56.9,185.36ZM37.74,138.28h0c0-.34,0-.69,0-1-.06-.73-.13-1.47-.22-2.2,0-.05-.38-.13-.38-.12a3,3,0,0,0-.34,1c0,1.25,0,2.5,0,3.75a5.78,5.78,0,0,0,0,1.25,3,3,0,0,0,.49.84c.14-.28.4-.54.41-.83C37.78,140.06,37.74,139.17,37.74,138.28Zm11.94,48.34h-.07c0-.94,0-1.88,0-2.82,0-.24-.24-.47-.37-.7-.13.23-.37.46-.38.69-.09,2.3-.14,4.61-.18,6.91a.57.57,0,0,0,.4.42c.85,0,.4-.54.41-.93C49.52,189,49.61,187.8,49.68,186.62ZM32,136c0,1.12,0,2.24,0,3.36a2.59,2.59,0,0,0,.35.81c.13-.26.26-.52.38-.78a.49.49,0,0,0,0-.21c0-2.21,0-4.42,0-6.63,0-.24-.21-.48-.33-.72-.14.25-.4.49-.41.75C32,133.72,32,134.86,32,136ZM7.25,237H7.17a10.14,10.14,0,0,0,0-1.46c0-.21-.32-.55-.46-.53s-.74.26-.75.43a26.12,26.12,0,0,0,0,3.19c0,.22.41.43.67.59a.74.74,0,0,0,.38-.37C7.12,238.2,7.17,237.58,7.25,237Zm45.4-58.78c0-.89,0-1.78,0-2.67,0-.16-.23-.32-.35-.49-.13.16-.36.31-.37.48,0,.6,0,1.2,0,1.8l-.06,3.36a3,3,0,0,0,.07.74s.33.1.37.05a1.5,1.5,0,0,0,.36-.71C52.68,179.9,52.65,179,52.65,178.19Zm-5.54,7.25h0c0-1.29,0-2.57,0-3.86,0-.17-.16-.35-.24-.53-.1.18-.29.36-.29.54q0,3.82,0,7.65c0,.18.16.35.24.53.1-.18.29-.35.29-.53C47.13,188,47.11,186.7,47.11,185.44Zm1.52-42c0,1.4,0,2.79,0,4.18a1.5,1.5,0,0,0,.2.5c.07-.16.21-.32.21-.48,0-2.75,0-5.49,0-8.24a1.42,1.42,0,0,0-.2-.5,1.45,1.45,0,0,0-.23.53C48.62,140.73,48.63,142.07,48.63,143.4Zm6.3.07h0c0,1.39,0,2.78,0,4.18,0,.14.14.29.21.43a1.93,1.93,0,0,0,.2-.44,2.43,2.43,0,0,0,0-.54c0-2.5,0-5,0-7.5a2,2,0,0,0-.28-.68,3.64,3.64,0,0,0-.16.63C54.92,140.86,54.93,142.16,54.93,143.47Zm42.64,87.61h0c0-.65,0-1.31,0-2,0-.16-.26-.29-.4-.44-.18.19-.5.38-.5.57,0,1.24.08,2.48.18,3.71a2.07,2.07,0,0,0,.36.71c.13-.24.35-.46.37-.7C97.6,232.35,97.57,231.71,97.57,231.08Zm-26.88,0h0c0-.65,0-1.3,0-1.95,0-.16-.22-.31-.35-.47-.12.16-.33.31-.34.48,0,.65,0,1.3,0,2s0,1.3,0,1.95c0,.23.23.45.35.68.12-.23.33-.45.34-.69C70.72,232.38,70.69,231.72,70.69,231.07Zm27,5.91h-.08c0-.51,0-1,0-1.52,0-.16-.27-.46-.34-.43a.87.87,0,0,0-.56.39,2.17,2.17,0,0,0,0,.8c0,.49,0,1,0,1.48a3.89,3.89,0,0,0,.19,1.28c.11.29.46.44.55-.07S97.57,237.62,97.64,237Zm-45-45.4c0-.63,0-1.26,0-1.89,0-.15-.29-.27-.44-.4-.13.17-.37.33-.37.49,0,1.18,0,2.37,0,3.55a2.08,2.08,0,0,0,.18.51c.2-.15.56-.29.58-.47A13.34,13.34,0,0,0,52.65,191.58ZM70,237h-.09c.08.67.16,1.34.26,2,0,.09.11.17.16.26.08-.09.21-.18.21-.27,0-1.19,0-2.38,0-3.57,0-.14-.16-.28-.25-.42-.11.17-.29.33-.31.51C69.94,236,70,236.46,70,237Zm-36.54-8.26-.36,0a2.24,2.24,0,0,0-.25.68c0,1.13,0,2.26,0,3.39a1.32,1.32,0,0,0,.11.55.41.41,0,0,0,.31.11,1.14,1.14,0,0,0,.27-.49c0-.27,0-.55,0-.81.09-1,.22-1.91.27-2.86C33.8,229.09,33.56,228.89,33.43,228.69Zm16-28.69h0c0,1,0,2,0,2.94a2,2,0,0,0,.18.62c.07-.21.23-.42.22-.63-.05-1.6-.13-3.21-.18-4.81,0-.44.07-.89.07-1.33,0-.09-.13-.19-.2-.28a1.1,1.1,0,0,0-.1.34C49.39,197.9,49.39,199,49.39,200Zm-16,36.77h.07a5.64,5.64,0,0,0,0-.92,3.53,3.53,0,0,0-.24-.69,4.17,4.17,0,0,0-.48.73,1.7,1.7,0,0,0,0,.64c0,.66,0,1.32,0,2,0,.11.31.29.46.27s.41-.24.4-.36C33.63,237.85,33.52,237.31,33.44,236.77Zm38.47-95.52-.35-.14a1.61,1.61,0,0,0-.15.47c0,.64,0,1.29,0,1.93a.44.44,0,0,0,.36.22c.94-.31.33-1,.39-1.6C72.24,141.85,72,141.55,71.91,141.25ZM44.6,231h0c0,.63,0,1.27,0,1.9,0,.13.13.26.2.39.07-.13.2-.25.2-.38,0-1,0-2,0-2.94a3.44,3.44,0,0,1,.1-.63c0-.15.07-.3.11-.44-.14,0-.32-.12-.4-.06a.65.65,0,0,0-.24.42C44.59,229.84,44.6,230.42,44.6,231Zm37.63.08h0c0-.61,0-1.23,0-1.84,0-.13-.13-.26-.19-.39-.08.12-.23.24-.23.36,0,1.25,0,2.49,0,3.74,0,.11.12.22.19.34.07-.12.21-.24.21-.37C82.25,232.31,82.23,231.69,82.23,231.08ZM32.74,142.57h0a5.13,5.13,0,0,0-.14-.9c0-.18-.23-.31-.35-.46a2.47,2.47,0,0,0-.3.58,4.68,4.68,0,0,0-.12,1.34c0,.19.32.36.49.55a1.92,1.92,0,0,0,.36-.46A2.35,2.35,0,0,0,32.74,142.57ZM58.41,237.1c0,.45,0,.9,0,1.35a4.59,4.59,0,0,0,.1.51c.07-.05.18-.08.19-.14a1.84,1.84,0,0,0,.1-.56c0-.35-.11-.7-.09-1,0-.56.17-1.11.22-1.67,0-.13-.16-.27-.25-.41-.09.15-.25.29-.26.45C58.39,236.09,58.41,236.6,58.41,237.1Zm-3.83-40.58h-.15a4.9,4.9,0,0,0,0,.54c0,1.6,0,3.19,0,4.79,0,.32,0,.65-.08,1s0,.34,0,.5a.55.55,0,0,0,.18,0,1.54,1.54,0,0,0,.13-.5c0-1.94,0-3.88,0-5.83A4,4,0,0,0,54.58,196.52Zm-10,40.38h0c0,.5,0,1,0,1.51,0,.11.14.21.22.31.06-.09.18-.19.18-.28,0-1,0-2,0-3,0-.1-.12-.19-.18-.28-.08.1-.21.2-.21.31C44.6,236,44.62,236.43,44.62,236.9Zm37.62.06h0c0-.49,0-1,0-1.46,0-.11-.12-.22-.19-.33-.07.1-.21.21-.21.32q0,1.45,0,2.91c0,.11.13.22.2.33.07-.12.2-.24.21-.37C82.25,237.9,82.24,237.43,82.24,237Zm-23.76-5.51h-.07c0,.54,0,1.08,0,1.63,0,.12.13.24.2.35.1-.15.27-.3.27-.45,0-1.22,0-2.45,0-3.67a.71.71,0,0,0-.11-.44.41.41,0,0,0-.39,0,.44.44,0,0,0-.15.35C58.32,230,58.4,230.7,58.48,231.45ZM21.42,235a3.3,3.3,0,0,0-.19.4c-.06,1-.11,2.07-.16,3.11,0,.07.07.14.12.21s.22-.16.22-.23C21.43,237.42,21.42,236.35,21.42,235Zm65.92-14.58.4-.43c-.15-.08-.31-.23-.46-.22s-.29.17-.43.26Zm-23.64-.81-.45.41c.16.09.31.25.46.24s.3-.16.44-.25Zm-23.72,1,.77-.59c-.13-.1-.27-.28-.4-.28a.58.58,0,0,0-.48.26C39.82,220.18,39.93,220.41,40,220.64Zm12.47-1.16-.64.47a1.82,1.82,0,0,0,.44.32.44.44,0,0,0,.34-.23A2,2,0,0,0,52.45,219.48Zm-.32-77.34.45-.3c-.13-.08-.27-.22-.41-.22s-.29.12-.43.19ZM29.22,220.05c-.28-.15-.4-.28-.52-.27s-.24.14-.36.22c.1.1.2.25.32.27S28.92,220.17,29.22,220.05Zm47,0c-.26-.13-.39-.25-.51-.24s-.24.14-.36.22c.12.09.23.24.37.27S75.93,220.16,76.19,220ZM21.27,233.17h.11v-1.36h-.11Zm46.27-32.8.37-.38c-.11-.09-.21-.24-.32-.25s-.26.14-.28.24S67.44,200.2,67.54,200.37ZM21.29,228.74c-.13.16-.25.25-.24.3a1.86,1.86,0,0,0,.22.38c.05-.08.15-.15.15-.23A1.69,1.69,0,0,0,21.29,228.74Zm30.87-64.38.14-.15a1.77,1.77,0,0,0-.28-.27s-.12.05-.18.08Zm-2.1-20.58c.15.16.2.25.27.27s.11-.09.17-.14a1,1,0,0,0-.21-.2S50.16,143.75,50.06,143.78Zm-13,56.4.14-.21s-.11-.1-.16-.09-.13.08-.19.12ZM16.49,219.73c-.08.09-.16.15-.15.18a1,1,0,0,0,.16.25s.12-.09.12-.12A2.11,2.11,0,0,0,16.49,219.73Zm34-73.76c-.1,0-.17-.08-.21-.06s-.08.1-.11.15.11.1.14.09S50.44,146.06,50.52,146Zm-13.22-2.7-.11-.1c0,.05-.06.1,0,.15s.06.07.09.1Zm16.59.55-.18-.11s-.07.1-.06.13.06.1.1.15Zm-16.62,12.9-.07-.07s-.06.07-.05.08a.73.73,0,0,0,.09.08Zm16.46-10.8a.67.67,0,0,0-.06.16s0,0,0,.08.09-.06.09-.09S53.78,146,53.73,145.92ZM34.44,200h-.09s0,0,0,0l.07.06ZM16.57,64.54h0v0Z" style="fill:none;stroke:#fff;stroke-miterlimit:10;stroke-width:2px"/><path d="M30.79,56.44V39.58c0-1,.31-1.37,1.35-1.37q16,0,32,0a3,3,0,0,1,1.34.45c.1,0,.12.54,0,.71a3.47,3.47,0,0,0,1.53,5,2.47,2.47,0,0,0,2.43-.18A3.32,3.32,0,0,0,71,42.33a2.52,2.52,0,0,0-.09-2.24,1.78,1.78,0,0,1-.16-1.15c.08-.29.45-.54.74-.71s.5,0,.75,0c.84,0,1.18.41,1.18,1.2q0,7.43,0,14.85,0,9.56,0,19.1c0,1-.52,1.4-1.51,1.2a5,5,0,0,0-.86-.08q-9.14,0-18.27,0c-1.5,0-3,.17-4.49.17-1.91,0-3.82-.15-5.74-.16-1.29,0-2.59.16-3.88.16-1.46,0-2.92-.14-4.38-.17-.82,0-1.65.15-2.46.12-.58,0-1.05-.24-1-1C30.8,67.87,30.79,62.15,30.79,56.44Zm28.77,5.71a3.19,3.19,0,0,0-3.43,3.12,3.28,3.28,0,1,0,6.56.11A3.09,3.09,0,0,0,59.56,62.15Z" style="fill:none;stroke:#fff;stroke-miterlimit:10;stroke-width:2px"/><path d="M52,122.24q-10.58,0-21.15,0c-.66,0-.88-.2-.88-.87q0-14.62,0-29.27c0-.84.29-1.13,1.14-1.13q21,0,42.08,0c.7,0,1,.29,1,.94q0,13.16,0,26.33c0,1.07,0,2.14,0,3.22,0,.61-.37.77-.93.77ZM70,92.3a2.27,2.27,0,0,0-2.56,2.33A2.81,2.81,0,0,0,70,97.3c1.18,0,2.81-1.49,2.76-2.51A2.72,2.72,0,0,0,70,92.3Z" style="fill:none;stroke:#fff;stroke-miterlimit:10;stroke-width:2px"/><path d="M52.42,11.87c3.3,0,6.6,0,9.9,0a6.86,6.86,0,0,1,4.35,1.58,13.19,13.19,0,0,1,2,1.82,10.38,10.38,0,0,1,1.23,2.39c.44,1,.81,2,1.18,3.08.12.35,0,.81.19,1.1.9,1.38.66,3.08,1.36,4.53A5.88,5.88,0,0,1,73,28.23c.15,1.23.33,2.46.41,3.7s0,2.29.06,3.43c.06.86-.38,1.11-1.09,1.09-2-.05-4-.18-6-.17-11.25,0-22.49.12-33.74.18-1.83,0-1.91,0-1.84-1.81a66.94,66.94,0,0,1,.47-6.79,55.25,55.25,0,0,1,1.36-5.43,20.34,20.34,0,0,1,.71-2.71c.62-1.49,1.34-2.94,2.08-4.38A6.24,6.24,0,0,1,38.09,13c1.92-1.1,4-1.08,6.12-1.08C47,11.88,49.69,11.87,52.42,11.87Z" style="fill:none;stroke:#fff;stroke-miterlimit:10;stroke-width:2px"/><path d="M19.64,201.68c3.61,0,7.22,0,10.82,0,.59,0,.81.18.79.78,0,1.18,0,2.36,0,3.54a1.42,1.42,0,0,0,1.45,1.47,1.24,1.24,0,0,0,1.36-1.41c0-1.2,0-2.39,0-3.59,0-.55.24-.79.79-.79,2.61,0,2.26-.11,2.27,2.17,0,.82,0,1.64,0,2.45s.35,1.19,1.16,1.17,1.33-.32,1.34-1.14c0-1.27,0-2.54,0-3.81,0-.61.25-.84.84-.84,2.41,0,4.83,0,7.24,0,.21,0,.55.36.6.61a6.74,6.74,0,0,1,0,1.35c0,.6.72,1.34,1.28,1.2s1-.38,1-1.18c-.06-2.05-.33-2,2-2,.61,0,.82.2.83.82s-.36,1.65.58,2.15c.27.15.72.36.89.24a1.74,1.74,0,0,0,.65-1,4.69,4.69,0,0,0,0-1.35.71.71,0,0,1,.79-.86q3.78,0,7.56,0a.71.71,0,0,1,.79.82c0,1.25,0,2.5,0,3.75,0,.87.41,1.18,1.37,1.2s1.18-.32,1.16-1.17c0-1.27,0-2.54,0-3.81,0-.57.24-.83.82-.81.4,0,.8,0,1.2,0,1.18,0,1.65.84,1.14,1.91a3.6,3.6,0,0,0-.06.94c0,.21-.16.44-.13.63a4.94,4.94,0,0,0,.51,2c.2.3,1,.3,1.51.24.22,0,.53-.54.55-.85,0-1.34,0-2.68,0-4,0-.58.23-.83.81-.83H94.74c.59,0,.89.24.89.88q0,4.24,0,8.49c0,.61-.26.87-.84.87-1.81,0-3.62,0-5.44,0-.2,0-.41-.37-.6-.58,0,0,0-.1,0-.16,0-1.93-.42-2.29-2.35-1.92-.21,0-.38.35-.53.56s0,.25,0,.38c0,1.75,0,1.75-1.81,1.75-2.1,0-4.2,0-6.3,0-.54,0-.79-.18-.73-.73a2.44,2.44,0,0,0,0-.27c0-1.78,0-1.73-1.8-1.77a1.17,1.17,0,0,0-1.11,1.6c.24.83,0,1.16-.85,1.16-2.45,0-4.9,0-7.34,0-.57,0-.83-.18-.75-.75a.86.86,0,0,0,0-.16c0-2,.28-1.88-2.08-1.79-.22,0-.43.41-.64.63,0,0,0,.07,0,.11-.1,2-.1,2-2.06,2s-4,0-6,0c-.67,0-1-.22-.92-.92v0c0-1.75-.48-2.15-2.22-1.72a1,1,0,0,0-.58.75c-.12,1.93-.1,1.94-2,1.94s-4.1,0-6.15,0c-.51,0-.75-.18-.69-.7a1,1,0,0,0,0-.17c0-1.89-.55-2.31-2.42-1.82-.18,0-.33.28-.46.46s0,.25,0,.37c0,1.86,0,1.86-1.88,1.86-2.08,0-4.17,0-6.25,0-.55,0-.77-.19-.72-.73a5.58,5.58,0,0,0,0-.71c0-1.29,0-1.3-1.31-1.3-1.49,0-1.52,0-1.51,1.51,0,1.21,0,1.22-1.21,1.22H18.86c-.63,0-1-.12-.75-.93A2.07,2.07,0,0,0,17,208.71a1.35,1.35,0,0,0-1.59,1q0,.73,0,1.47c0,.55-.24.78-.79.78-2,0-3.95,0-5.93,0-.54,0-.78-.23-.78-.78,0-2.89,0-5.77,0-8.66,0-.63.3-.81.87-.81Z" style="fill:none;stroke:#fff;stroke-miterlimit:10;stroke-width:2px"/><path d="M52.11,89c-6.74,0-13.48,0-20.22,0-.84,0-1.12-.31-1.11-1.12,0-3.19,0-6.38,0-9.57,0-.91.42-1.18,1.21-1.18h8.21q16,0,31.91,0c.79,0,1.18,0,1.16,1.09-.07,2.76.08,5.53.13,8.29a10.62,10.62,0,0,1-.07,2c0,.21-.48.49-.74.5-2.19,0-4.39,0-6.58,0Z" style="fill:none;stroke:#fff;stroke-miterlimit:10;stroke-width:2px"/><path d="M18.17,58.2c0-6.21,0-12.41,0-18.61,0-.79.29-1.05,1.05-1.05q4.92,0,9.84,0c.73,0,1,.26,1,1q0,17.35,0,34.71a6.07,6.07,0,0,0,.31,1.22,2.36,2.36,0,0,1,.07.83A2.78,2.78,0,0,1,30,77.35a1.16,1.16,0,0,1-.8.37c-3,0-6,0-9,0-.43,0-.86,0-1.29,0s-.67-.24-.67-.73C18.18,70.74,18.17,64.47,18.17,58.2Z" style="fill:none;stroke:#fff;stroke-miterlimit:10;stroke-width:2px"/><path d="M79,70.77c0-2.1,0-4.21,0-6.31,0-.94-.41-1.37-1.12-1-.34.15-.58.86-.6,1.33-.06,1.92,0,3.84,0,5.76,0,2.14,0,4.29,0,6.43,0,.48-.07.84-.64.83s-1.43,0-2.14-.08c-.09,0-.19-.14-.25-.24a4.81,4.81,0,0,1-.6-1,1.78,1.78,0,0,1,0-1c.13-.48.51-.93.51-1.4q0-17.19,0-34.39c0-.86.32-1.11,1.11-1.1,3.12,0,6.24,0,9.36,0,1.35,0,1.6.44,1.37,1.76a15.6,15.6,0,0,0,0,2.82L86,45c0,1,0,2,0,2.94s-.14,2.14-.17,3.21c0,.51.16,1,.16,1.55,0,1.08-.13,2.16-.14,3.24,0,.56.14,1.11.14,1.66,0,.9-.11,1.8-.11,2.7s.11,1.5.1,2.25-.15,1.8-.15,2.7S86,67,86,67.81s-.14,1.91-.15,2.86c0,.59.16,1.18.15,1.77,0,1.19-.11,2.38-.17,3.57q0,.3,0,.6c.06,1.13.06,1.13-1.13,1.13H79.66c-.52,0-.69-.19-.69-.71C79,74.94,79,72.86,79,70.77Z" style="fill:none;stroke:#fff;stroke-miterlimit:10;stroke-width:2px"/><path d="M53.92,141.88c-.64-1.51-1.89-1.93-3.15-1a.78.78,0,0,0-.16.2c-.12.2-.22.4-.33.6a5.89,5.89,0,0,1-.13-.71,13.44,13.44,0,0,0,0-2.11,1.23,1.23,0,0,0-.82-.82c-1.48-.15-1.62,0-1.62,1.56V147c0,1.57,0,1.57-1.64,1.57-2.07,0-4.13,0-6.2,0-1,0-1.37-.2-1.32-1.26.16-2.91.25-5.83.32-8.74,0-1.78,0-3.56,0-5.34,0-.27-.23-.59-.15-.8a1.73,1.73,0,0,1,.67-.7c.14-.09.39,0,.59,0q12.17,0,24.35,0a3.27,3.27,0,0,1,1.16.33.6.6,0,0,1,.2.48c0,.48-.13,1-.13,1.44,0,4.32,0,8.63,0,12.95,0,1.65,0,1.66-1.73,1.66-2.08,0-4.17,0-6.25,0-.83,0-1.2-.23-1.18-1.15,0-2.79,0-5.59,0-8.38,0-.64-.14-1.07-.94-1.07s-1.27.15-1.27,1.09S54,140.94,53.92,141.88Z" style="fill:none;stroke:#fff;stroke-miterlimit:10;stroke-width:2px"/><path d="M52.08,10.79c-3.5,0-7,0-10.5,0a8.44,8.44,0,0,0-2.25.6,8.73,8.73,0,0,0-5.11,4,28.51,28.51,0,0,0-1.7,4.23c-.39,1-.81,2.05-1.15,3.1A16.14,16.14,0,0,0,30.81,25c-.29,1.56-.52,3.13-.81,4.69a.65.65,0,0,1-1.07.4A7.1,7.1,0,0,1,27.27,28c-.19-.41.15-1.09.3-1.64.35-1.34.7-2.69,1.09-4s.88-2.6,1.25-3.92c.48-1.72.79-3.5,1.35-5.19A6.24,6.24,0,0,1,33.7,9.8a34,34,0,0,1,3-1.6,1.51,1.51,0,0,1,.63-.13c3.66-.08,7.31-.19,11-.22,4.6,0,9.21,0,13.81,0a25.25,25.25,0,0,1,5.37.47,7.46,7.46,0,0,1,3.83,2.3c1.28,1.43,1.55,3.17,2.18,4.84.39,1.06.07,2.34,1.06,3.25.35.32.16,1.18.32,1.76.38,1.39.84,2.75,1.23,4.14a21,21,0,0,1,.65,2.8A2.46,2.46,0,0,1,75.33,30c-.85.46-1.29.12-1.37-.84a12.45,12.45,0,0,0-.45-1.85c0-.19,0-.4-.08-.59-.32-1.53-.62-3.07-1-4.59-.33-1.3-.71-2.59-1.14-3.86A10.29,10.29,0,0,0,67.77,13a17.68,17.68,0,0,0-3.48-1.74c-1.81-.82-3.62-.36-5.42-.45C56.61,10.71,54.34,10.79,52.08,10.79Z" style="fill:none;stroke:#fff;stroke-miterlimit:10;stroke-width:2px"/><path d="M52,123.42c7,0,14.07,0,21.1,0,.85,0,1.1.37,1,1.12-.13,1.37-.94,3-2.61,3-.9,0-1.8.25-2.7.25q-17.65,0-35.29,0c-2.34,0-3.58-1.29-3.57-3.62,0-.64.29-.74.84-.74Z" style="fill:none;stroke:#fff;stroke-miterlimit:10;stroke-width:2px"/><path d="M67.44,188.86c0,1.89,0,3.77,0,5.66,0,.78-.28,1-1,.73a1.21,1.21,0,0,0-1.71,1.2c0,1,0,2,0,2.93a.83.83,0,0,1-.93,1q-3.64,0-7.29,0a.86.86,0,0,1-1-1,21.49,21.49,0,0,0,0-3.21,1.32,1.32,0,0,0-.75-.92,1.57,1.57,0,0,1-1.4-1.68,3.93,3.93,0,0,1,.05-1c.1-.37.24-.54.73-.26a2.1,2.1,0,0,0,1.44,0,1,1,0,0,0,.49-.76c0-.65.2-1,.91-.95,1.33,0,1.59-.24,1.6-1.6,0-2,0-3.92,0-5.87,0-.94.4-1.33,1.36-1.33h6.08c1,0,1.36.33,1.37,1.37,0,1.9,0,3.81,0,5.71Z" style="fill:none;stroke:#fff;stroke-miterlimit:10;stroke-width:2px"/><path d="M37.08,188.79c0-2,0-3.95,0-5.93,0-.79.36-1.06,1-1.07,2.1,0,4.2,0,6.31,0,.76,0,1.27.29,1.22,1.28-.08,2,0,4,0,5.93a3.38,3.38,0,0,0,.22,1.26c.07.18.45.32.69.32.79,0,1.41,0,1.41,1.09,0,.72,1.22,1.13,2,.71.54-.31.68-.08.7.41,0,.22,0,.44,0,.66,0,1.31-.15,1.42-1.44,1.77a1.39,1.39,0,0,0-.8,1c-.1,1.13,0,2.28,0,3.42,0,.53-.22.77-.74.77H40.34c-.53,0-.74-.26-.73-.78,0-1,0-2.07,0-3.1a1.29,1.29,0,0,0-1.84-1.21c-.59.28-.7.14-.7-.45C37.1,192.82,37.08,190.8,37.08,188.79Z" style="fill:none;stroke:#fff;stroke-miterlimit:10;stroke-width:2px"/><path d="M78.65,130c2,0,4.1,0,6.14,0a1.08,1.08,0,0,1,1.2,1,13.62,13.62,0,0,1-.07,2.11c0,.16-.07.32-.07.48,0,1.36,0,2.72,0,4.08,0,1.57.11,3.15.08,4.72,0,.23-.55.59-.88.64A14.13,14.13,0,0,1,83,143H74.4c-.79,0-1.2-.31-1.19-1.17,0-3.29,0-6.57,0-9.85,0-.85-.39-1.15-1.23-1-.14,0-.32-.13-.48-.21a3.73,3.73,0,0,1,.42-.79c.09-.1.38,0,.58,0h6.14Z" style="fill:none;stroke:#fff;stroke-miterlimit:10;stroke-width:2px"/><path d="M18.17,136.64c0-1.82,0-3.63,0-5.44,0-.63.28-.83.86-.93,3.79-.67,7.6-.13,11.4-.28.56,0,1.12.5,1.71,0,0,0,.32.1.33.18a2.31,2.31,0,0,1,0,.74s-.23.09-.32.06a.94.94,0,0,0-1.32.95v8.92a10.81,10.81,0,0,0,0,1.14c.1.79-.39,1-1,1-3.61,0-7.21,0-10.82,0-.57,0-.83-.29-.82-.89,0-1.83,0-3.66,0-5.49Z" style="fill:none;stroke:#fff;stroke-miterlimit:10;stroke-width:2px"/><path d="M22.74,101V90.51c0-1.26.2-1.46,1.49-1.46s2.72,0,4.08,0c.6,0,.77.21.77.79q0,10.37,0,20.72c0,.43.09.86.1,1.29,0,.65-.46.82-1,.83-1.22,0-2.43,0-3.64,0a2.81,2.81,0,0,0-.65,0c-.76.17-1.16-.13-1.16-.93Z" style="fill:none;stroke:#fff;stroke-miterlimit:10;stroke-width:2px"/><path d="M75,102.15V93c0-.93.05-1.87,0-2.8a2.64,2.64,0,0,0-.45-1.31c-.3-.41-.1-.54.2-.57a8.46,8.46,0,0,1,2,0c.24,0,.54.5.57.79.11,1.15.1,2.3.21,3.45a.83.83,0,0,0,.63.51.77.77,0,0,0,.92-.82c0-1.05,0-2.11,0-3.15a1.1,1.1,0,0,1,.7-.78,4.71,4.71,0,0,1,1.6.24s0,.43,0,.66l.18,4.93a2.44,2.44,0,0,1,0,.27c0,5,0,9.9,0,14.85a18,18,0,0,1-.22,2.74.92.92,0,0,1-.67.58c-1.53.06-3.08.07-4.61,0-.67,0-1-.53-1-1.2Z" style="fill:none;stroke:#fff;stroke-miterlimit:10;stroke-width:2px"/><path d="M49.4,155.92v4.35c0,.16,0,.33,0,.49.13,1.89.06,2-1.84,2H39.8a1.17,1.17,0,0,1-1.28-1.31c0-1.88,0-3.77,0-5.65,0-.42.21-.83.23-1.24s-.2-.6-.21-.91a17,17,0,0,1,0-3.19c.06-.35.87-.8,1.35-.81,2.75-.08,5.51-.06,8.26,0,.94,0,1.24.51,1.22,1.45-.05,1.63,0,3.26,0,4.89Z" style="fill:none;stroke:#fff;stroke-miterlimit:10;stroke-width:2px"/><path d="M54.62,156.12v-5.27a1.12,1.12,0,0,1,1.3-1.27c.87,0,1.73.23,2.6.25.59,0,1.19-.26,1.78-.24,1.63,0,3.26.18,4.88.32a.73.73,0,0,1,.46.52c0,1.31-.12,2.62-.13,3.93,0,2.19,0,4.39,0,6.59,0,1.52-.24,1.77-1.8,1.77-2.63,0-5.26,0-7.89,0-.9,0-1.18-.48-1.18-1.23C54.61,159.71,54.62,157.92,54.62,156.12Z" style="fill:none;stroke:#fff;stroke-miterlimit:10;stroke-width:2px"/><path d="M24.14,88.27h-5c-.67,0-1-.22-1-1,0-2.56,0-5.11,0-7.67,0-.68.27-1,.93-1,3.35,0,6.7,0,10,0,.85,0,.82.65.83,1.07.05,2.64,0,5.29,0,7.94,0,.19-.47.54-.73.55C27.54,88.3,25.84,88.27,24.14,88.27Z" style="fill:none;stroke:#fff;stroke-miterlimit:10;stroke-width:2px"/><path d="M61.09,172.73c1.79,0,3.59,0,5.38,0,.73,0,1,.27,1,1,0,2,0,3.95,0,5.93,0,1.15-.08,1.19-1.22,1.18-2.19,0-4.38,0-6.57,0-.54,0-1.09.11-1.43-.57-.22-.44-1.72-.2-2.07.25a2.37,2.37,0,0,1-2.6.2.75.75,0,0,1-.13-.5c0-1.54,0-3.08,0-4.62,0-.31.38-.61.57-.92s.55-.67.58-1c0-.7.39-.9,1-.89C57.43,172.74,59.26,172.73,61.09,172.73Z" style="fill:none;stroke:#fff;stroke-miterlimit:10;stroke-width:2px"/><path d="M43.16,172.73c1.74,0,3.48,0,5.22,0,.57,0,.94.13,1.08.79.08.38.45.7.65,1.06a2.73,2.73,0,0,1,.46,1c0,1.33,0,2.65,0,4s-.5,1.64-1.69,1.37a2.52,2.52,0,0,1-1.07-.64,1.83,1.83,0,0,0-2,0,1.67,1.67,0,0,1-1,.44q-3.57,0-7.12,0c-.48,0-1.15.06-.7-.81a1.21,1.21,0,0,0,0-.54c0-2,0-4,0-6,0-.58.21-.75.77-.75C39.61,172.75,41.39,172.73,43.16,172.73Z" style="fill:none;stroke:#fff;stroke-miterlimit:10;stroke-width:2px"/><path d="M60.39,169.7H55.55c-.64,0-1-.25-.94-.94,0-1.4,0-2.8,0-4.19,0-.61.26-.88.83-.88h10c.53,0,.76.25.75.77,0,1.47,0,2.93,0,4.4,0,.62-.28.84-.87.84C63.65,169.69,62,169.7,60.39,169.7Z" style="fill:none;stroke:#fff;stroke-miterlimit:10;stroke-width:2px"/><path d="M43.79,169.7c-1.63,0-3.26,0-4.89,0-.57,0-.82-.24-.81-.81,0-1.49,0-3,0-4.46,0-.53.24-.75.76-.75h9.89c.49,0,.67.19.67.67q0,2.34,0,4.68c0,.5-.2.67-.68.67C47.09,169.69,45.44,169.7,43.79,169.7Z" style="fill:none;stroke:#fff;stroke-miterlimit:10;stroke-width:2px"/><path d="M36,166.11v31.55A12.11,12.11,0,0,1,36,199c0,.18-.24.33-.37.5-.19-.16-.5-.29-.55-.48a5.77,5.77,0,0,1,0-1.25c0-5.82,0-11.65,0-17.48q0-15.06,0-30.13c0-1.66-.18-3.32-.17-5,0-2.24.15-4.48.17-6.72,0-1.15-.1-2.3-.13-3.45a13.8,13.8,0,0,1,.09-2c0-.15.41-.27.64-.36.07,0,.27.11.31.2a2,2,0,0,1,.09.64q0,16.32,0,32.64Z" style="fill:none;stroke:#fff;stroke-miterlimit:10;stroke-width:2px"/><path d="M79,82.92c0-1.14,0-2.28,0-3.42a1.07,1.07,0,0,1,.71-.76c1.87-.06,3.73-.06,5.6,0,.74,0,.58.71.65,1.15a11.13,11.13,0,0,1,0,1.53c0,1,0,2,0,3s-.08,2.16-.21,3.23a1,1,0,0,1-.71.62,14.85,14.85,0,0,1-2.11,0,.79.79,0,0,1-.5-.17c-.51-.71-1.25-.58-2-.58C79.37,87.51,79,87.12,79,86Z" style="fill:none;stroke:#fff;stroke-miterlimit:10;stroke-width:2px"/><path d="M52.12,128.44c4.09,0,8.18,0,12.28,0a1.37,1.37,0,0,1,1,.46,1.3,1.3,0,0,1,.21,1.13,1.75,1.75,0,0,1-1.16.65c-1,.09-1.92,0-2.88,0H39.89a1.87,1.87,0,0,1-.82-.15,1.1,1.1,0,0,1-.42-.52c.42-.5-.19-1.63,1.08-1.62C43.86,128.46,48,128.44,52.12,128.44Z" style="fill:none;stroke:#fff;stroke-miterlimit:10;stroke-width:2px"/><path d="M75.82,148.34c-1.18,0-2.36-.06-3.53,0-.8,0-1-.39-1-1a5.83,5.83,0,0,1,0-1.67,1.28,1.28,0,0,1,.74-.77c4.12-1.29,8.36-.62,12.55-.78,1.29,0,1.62.37,1.44,1.64a15.59,15.59,0,0,1-.21,1.82c-.07.29-.43.71-.66.71-1.52,0-3.05-.11-4.58-.1s-3.16.14-4.75.21Z" style="fill:none;stroke:#fff;stroke-miterlimit:10;stroke-width:2px"/><path d="M25.5,148.35c-2.12,0-4.24,0-6.35,0-.68,0-1-.24-1-1s0-1.67,0-2.5a.79.79,0,0,1,.5-.56c2.75-.1,5.49-.18,8.23-.2a26.38,26.38,0,0,1,3.56.21c.68.09,1.61.22,1.91.68a4.64,4.64,0,0,1,.32,2.3,1.87,1.87,0,0,1-.4,1c-.06.09-.34.05-.52.05H25.5Z" style="fill:none;stroke:#fff;stroke-miterlimit:10;stroke-width:2px"/><path d="M68.44,179.81c0-5.62,0-11.25,0-16.87,0-.65.23-1.3.24-1.94s-.21-1.19-.24-1.79c0-1,0-2,0-3.05,0-1.59,0-3.18,0-4.76,0-.42.18-.83.23-1.25a3.47,3.47,0,0,0-.05-.85,6.15,6.15,0,0,1-.18-.71q0-6.71,0-13.42c0-.63,0-1.26,0-1.88,0-.18.16-.45.3-.48a.77.77,0,0,1,.64.13c.1.08,0,.38,0,.58s0,.71,0,1.06c0,.88,0,1.77,0,2.66,0,.27,0,.53,0,.79s.14.35.13.52c-.08,1.15-.22,2.31-.26,3.47,0,.48.24,1,.25,1.45,0,1.51.07,3,0,4.52-.7,16.87-.1,33.76-.31,50.63a4.25,4.25,0,0,1-.22.92,4.28,4.28,0,0,1-.23-.92q-.24-9.41-.45-18.81Z" style="fill:none;stroke:#fff;stroke-miterlimit:10;stroke-width:2px"/><path d="M79.72,37.77c-1.7,0-3.4,0-5.1,0-.69,0-.8-.23-.65-.9a10.8,10.8,0,0,0,.2-2.41c0-.74.34-1.05,1.06-1.05,3.28,0,6.55,0,9.83,0,.7,0,.92.37,1,.91a13.94,13.94,0,0,1,0,2.33,1.1,1.1,0,0,1-1.23,1.14c-1.69,0-3.37,0-5.06,0Z" style="fill:none;stroke:#fff;stroke-miterlimit:10;stroke-width:2px"/><path d="M24.14,37.77c-1.67,0-3.34,0-5,0a.84.84,0,0,1-1-1c0-.81,0-1.63,0-2.45a.82.82,0,0,1,.92-.94c3.37,0,6.74,0,10.11,0,.72,0,.77.52.8,1a20.43,20.43,0,0,1,.07,2.82c0,.2-.53.52-.83.52C27.54,37.8,25.84,37.77,24.14,37.77Z" style="fill:none;stroke:#fff;stroke-miterlimit:10;stroke-width:2px"/><path d="M34.06,162.72v13.05c0,.52,0,1-.72,1s-1-.26-1-1.05c0-3.46,0-6.92,0-10.38,0-1.5.17-3,.18-4.49,0-1-.17-2.09-.18-3.13s.16-2.19.16-3.29c0-1.4-.09-2.81-.18-4.21a1,1,0,0,1,.74-1.12c1-.35,1-.4,1,.84Z" style="fill:none;stroke:#fff;stroke-miterlimit:10;stroke-width:2px"/><path d="M70.49,163V150.11c0-.45-.06-1,.62-1a.84.84,0,0,1,.91,1c-.06,1.06,0,2.14,0,3.21,0,.54-.26,1.07-.25,1.61s.24,1.3.24,1.94-.22,1.37-.25,2.06c0,.4.25.82.25,1.23,0,5.27,0,10.55,0,15.82,0,.25-.58.5-.89.75-.2-.27-.55-.54-.56-.82C70.48,171.61,70.49,167.28,70.49,163Z" style="fill:none;stroke:#fff;stroke-miterlimit:10;stroke-width:2px"/><path d="M83.54,101.72c0-1.91,0-3.81,0-5.71,0-.5.18-.67.67-.68,2.38-.08,2.38-.09,2.38,2.26,0,3.26,0,6.52,0,9.79,0,.73-.31,1-1,1.05-2,0-2,0-2-2v-4.72Z" style="fill:none;stroke:#fff;stroke-miterlimit:10;stroke-width:2px"/><path d="M52,76.4c-6.27,0-12.54,0-18.81,0-.29,0-.57-.24-.86-.37a2.7,2.7,0,0,1,.88-.35H70.88c.07,0,.16,0,.21,0l.79.43a2.15,2.15,0,0,1-.75.3c-2.29,0-4.57,0-6.85,0Z" style="fill:none;stroke:#fff;stroke-miterlimit:10;stroke-width:2px"/><path d="M74.19,83.07c0-1.16,0-2.31,0-3.47,0-.2,0-.55.1-.56a9.85,9.85,0,0,1,2.28-.26c.24,0,.62.66.63,1,.06,2.2,0,4.41,0,6.62a1,1,0,0,1-1.11,1.09c-2.25,0-1.92,0-1.93-2C74.18,84.74,74.18,83.9,74.19,83.07Z" style="fill:none;stroke:#fff;stroke-miterlimit:10;stroke-width:2px"/><path d="M22.58,213.65c1.23,0,2.47,0,3.69,0a1,1,0,0,1,.8.55c.28,1.15.33,2.1-1.34,2-2.19-.07-4.38,0-6.58,0-.32,0-.88-.3-.91-.52a7.13,7.13,0,0,1,.09-2c0-.06.36-.1.55-.1Z" style="fill:none;stroke:#fff;stroke-miterlimit:10;stroke-width:2px"/><path d="M58.05,216.26c-1.12,0-2.24.05-3.36,0-.42,0-1.11-.26-1.17-.52a4.76,4.76,0,0,1,.12-1.83c0-.11.37-.21.56-.21,2.48,0,5,0,7.44,0,.26,0,.6.45.74.77a2,2,0,0,1,0,1,.79.79,0,0,1-.93.79C60.34,216.22,59.19,216.26,58.05,216.26Z" style="fill:none;stroke:#fff;stroke-miterlimit:10;stroke-width:2px"/><path d="M34.52,213.65c1.24,0,2.47,0,3.7,0,.21,0,.42.37.62.58,0,0,0,.14,0,.21,0,1.77,0,1.79-1.75,1.79-2.07,0-4.13,0-6.2,0-.63,0-.89-.29-.88-.88v-.06c0-1.65,0-1.67,1.62-1.67Z" style="fill:none;stroke:#fff;stroke-miterlimit:10;stroke-width:2px"/><path d="M69.73,213.65h3.1a1.32,1.32,0,0,1,1.25,1.88,1,1,0,0,1-1,.74c-1.9,0-3.81,0-5.71,0l-1.67,0a.15.15,0,0,1-.09,0c-.7-.5-.42-1.23-.36-1.85,0-.25.52-.62.82-.64C67.27,213.61,68.5,213.65,69.73,213.65Z" style="fill:none;stroke:#fff;stroke-miterlimit:10;stroke-width:2px"/><path d="M46.15,213.65c1.21,0,2.43,0,3.64,0,.28,0,.53.47.8.71,0,0,0,0,0,.06,0,1.9,0,1.83-1.69,1.81s-3.62,0-5.43,0c-1.55,0-2.15-.79-1.65-2.27,0-.16.38-.31.58-.32,1.25,0,2.5,0,3.75,0Z" style="fill:none;stroke:#fff;stroke-miterlimit:10;stroke-width:2px"/><path d="M81.41,213.65h3.43a.87.87,0,0,1,1,1c0,1.56,0,1.63-1.59,1.63h-6c-1,0-1.19-.23-1.23-1.49,0-.86.32-1.17,1.17-1.13C79.24,213.69,80.33,213.65,81.41,213.65Z" style="fill:none;stroke:#fff;stroke-miterlimit:10;stroke-width:2px"/><path d="M72.78,151.57c0-.54,0-1.09,0-1.63s.21-.84.8-.83c.91,0,1.81,0,2.72,0,.6,0,1,.23.95.95,0,1,0,2,0,2.93,0,.74-.34,1.15-1.13,1.12s-1.6,0-2.39,0-1-.28-.94-1C72.8,152.62,72.78,152.1,72.78,151.57Z" style="fill:none;stroke:#fff;stroke-miterlimit:10;stroke-width:2px"/><path d="M31.17,151.27a13.8,13.8,0,0,1,.19,2.12c0,.24-.52.6-.82.63-.81.09-1.64,0-2.45,0s-1-.26-1.07-.85a33.46,33.46,0,0,1,0-3.47.87.87,0,0,1,.58-.6c1-.06,2.1-.05,3.14,0,.17,0,.44.31.47.49a14.78,14.78,0,0,1,0,1.63Z" style="fill:none;stroke:#fff;stroke-miterlimit:10;stroke-width:2px"/><path d="M53.64,170.05c0,.89,0,1.77,0,2.66,0,.65-.24,1-1,1-2.27,0-2.06.09-2.06-2.06,0-1.42,0-2.83,0-4.24a2.63,2.63,0,0,1,.3-.82c.14.13.27.36.42.37a8.52,8.52,0,0,0,1.43,0c.24,0,.49-.2.68-.14s.19.4.19.61c0,.87,0,1.74,0,2.61Z" style="fill:none;stroke:#fff;stroke-miterlimit:10;stroke-width:2px"/><path d="M52.17,89.8H73.05a2.91,2.91,0,0,1,.59,0c.1,0,.17.14.25.22-.08.06-.16.16-.25.16a6.37,6.37,0,0,1-.76,0H31.14a3.5,3.5,0,0,1-.82-.2,3.53,3.53,0,0,1,.82-.21Z" style="fill:none;stroke:#fff;stroke-miterlimit:10;stroke-width:2px"/><path d="M11.8,216.4c-1.17-.15-2.3-.28-3.42-.46-.16,0-.29-.29-.42-.45s0-.1,0-.16c-.06-1.62,0-1.68,1.61-1.68s3.32,0,5,0a.72.72,0,0,1,.83.77c0,.51-.13,1.39-.4,1.48A21,21,0,0,1,11.8,216.4Z" style="fill:none;stroke:#fff;stroke-miterlimit:10;stroke-width:2px"/><path d="M92.08,213.65h2.61c.63,0,.89.33.94.93.1,1.4-.23,1.69-1.65,1.68h-4.4c-.69,0-1-.55-1-1.56,0-.58.14-1.15,1-1h2.55Z" style="fill:none;stroke:#fff;stroke-miterlimit:10;stroke-width:2px"/><path d="M61,172H55.9a1.44,1.44,0,0,1-.59-.05,3.7,3.7,0,0,1-.65-.47c.27-.26.53-.71.83-.74a26.5,26.5,0,0,1,2.82,0c2.48,0,5,0,7.44,0a1.68,1.68,0,0,0,.85-.24c.53-.31.76-.09.83.4A1,1,0,0,1,66.38,172Z" style="fill:none;stroke:#fff;stroke-miterlimit:10;stroke-width:2px"/><path d="M66.47,40.07c0-.49,0-1,0-1.46s.21-.85.79-.84a19.2,19.2,0,0,1,2,0,.9.9,0,0,1,.59.65c0,1-.07,2-.12,3,0,.61-1.11,1.76-1.64,1.73a1.69,1.69,0,0,1-1.63-1.74Z" style="fill:none;stroke:#fff;stroke-miterlimit:10;stroke-width:2px"/><path d="M77.24,156.9c0,.26,0,.51,0,.76,0,.75-.26,1.08-1,1.07s-1.84.11-2.76.13c-.2,0-.58-.22-.58-.33,0-1.11.07-2.22.14-3.32,0-.09.22-.24.34-.24a22.17,22.17,0,0,1,2.94,0c.34,0,.73.48.93.83s0,.71,0,1.07Z" style="fill:none;stroke:#fff;stroke-miterlimit:10;stroke-width:2px"/><path d="M29.23,158.9c-2.23,0-2.23,0-2.23-2.26a2.72,2.72,0,0,1,0-.7c.16-.57.24-1.15,1.17-.91a7.2,7.2,0,0,0,2.27,0c.44,0,1.09.46,1,.9a11.09,11.09,0,0,0-.23,1.89c0,.84-.29,1.17-1.11,1.08C29.84,158.87,29.53,158.9,29.23,158.9Z" style="fill:none;stroke:#fff;stroke-miterlimit:10;stroke-width:2px"/><path d="M43.38,172h-5c-1.14,0-1.48-.42-1.28-1.53a2.34,2.34,0,0,1,.09-.24.61.61,0,0,0,.16.12,2.74,2.74,0,0,0,.9.33c3.42,0,6.85,0,10.27,0,.4,0,.88-.11.88.56s-.42.74-.91.74Z" style="fill:none;stroke:#fff;stroke-miterlimit:10;stroke-width:2px"/><path d="M53.64,155.27v6.57a1.44,1.44,0,0,1,0,.59c-.08.19-.29.32-.44.47-.09-.17-.27-.33-.28-.5,0-.92,0-1.84,0-2.76,0-3.37,0-6.74,0-10.11,0-.3-.17-.61-.12-.9a3,3,0,0,1,.42-.81c.16.22.47.43.47.65,0,2.27,0,4.53,0,6.8Z" style="fill:none;stroke:#fff;stroke-miterlimit:10;stroke-width:2px"/><path d="M50.59,155.32c0-2.28,0-4.57,0-6.85a1.67,1.67,0,0,1,.28-.7s.3,0,.3,0a6.48,6.48,0,0,1,.06.77c0,.51.09,1,.09,1.54q0,5,0,10.05a17.48,17.48,0,0,1-.18,2.16,2.16,2.16,0,0,1-.27.55,1.64,1.64,0,0,1-.27-.61c0-2.32,0-4.64,0-7Z" style="fill:none;stroke:#fff;stroke-miterlimit:10;stroke-width:2px"/><path d="M63.2,214.25c0-1.18,0-2.36,0-3.54,0-.25.37-.49.57-.73.2.25.56.49.56.74,0,2.33,0,4.67,0,7,0,.35-.36.69-.55,1-.21-.35-.57-.68-.59-1-.08-1.16,0-2.32,0-3.48Z" style="fill:none;stroke:#fff;stroke-miterlimit:10;stroke-width:2px"/><path d="M53.09,185.43a16.09,16.09,0,0,1,0,1.84.9.9,0,0,1-.55.58,1.92,1.92,0,0,1-1,0c-.21-.06-.51-.33-.52-.51a33.29,33.29,0,0,1,.09-3.87c0-.27.69-.64,1.07-.65a1.23,1.23,0,0,1,.9.73A8.5,8.5,0,0,1,53.09,185.43Z" style="fill:none;stroke:#fff;stroke-miterlimit:10;stroke-width:2px"/><path d="M75,214.23c0-1.16,0-2.32,0-3.47,0-.26.43-.5.66-.74.17.18.48.35.5.55,0,.49-.09,1-.08,1.49,0,1.12.09,2.24.12,3.36a19.06,19.06,0,0,1,0,2.39,2.52,2.52,0,0,1-.47.92c-.26-.38-.7-.74-.73-1.13C74.89,216.48,75,215.36,75,214.23Z" style="fill:none;stroke:#fff;stroke-miterlimit:10;stroke-width:2px"/><path d="M28,214.11c0-1.1,0-2.21,0-3.31,0-.22.38-.61.5-.58.28.06.68.31.72.54a6.79,6.79,0,0,1-.1,1.33c0,1.11,0,2.23,0,3.35s-.05,2-.09,3c0,0-.3.15-.38.1a1.59,1.59,0,0,1-.7-1.57c.07-.93,0-1.88,0-2.82Z" style="fill:none;stroke:#fff;stroke-miterlimit:10;stroke-width:2px"/><path d="M40.8,214.45c0,1.15,0,2.29,0,3.43,0,.3-.3.59-.47.89-.21-.3-.56-.58-.6-.9a16.21,16.21,0,0,1-.09-2.51c0-1.05.14-2.09.18-3.13,0-.6,0-1.2,0-1.79,0-.16.34-.29.52-.44.15.2.42.39.43.59,0,1.29,0,2.58,0,3.86Z" style="fill:none;stroke:#fff;stroke-miterlimit:10;stroke-width:2px"/><path d="M87.79,214.34c0,1.16,0,2.33,0,3.48,0,.31-.31.6-.47.9-.23-.34-.61-.68-.63-1a22.48,22.48,0,0,1,.12-2.31c0-1.08,0-2.16,0-3.25a10.29,10.29,0,0,1,0-1.57c0-.19.44-.32.67-.47.11.2.3.41.3.62,0,1.21,0,2.43,0,3.64Z" style="fill:none;stroke:#fff;stroke-miterlimit:10;stroke-width:2px"/><path d="M52.66,214.3c0,1.18,0,2.36,0,3.53,0,.28-.26.55-.4.82-.19-.29-.52-.57-.53-.86-.07-1.1,0-2.21,0-3.31s0-2.47,0-3.7c0-.24.34-.47.53-.71.14.24.4.46.41.7,0,1.18,0,2.36,0,3.53Z" style="fill:none;stroke:#fff;stroke-miterlimit:10;stroke-width:2px"/><path d="M53.08,197.36a5.37,5.37,0,0,1,0,1.45,1.41,1.41,0,0,1-.8.77c-.42.15-.92.12-.94-.58,0-1-.18-2.07-.11-3.1,0-.27.62-.63,1-.7a.69.69,0,0,1,.88.75c0,.47,0,.94,0,1.41Z" style="fill:none;stroke:#fff;stroke-miterlimit:10;stroke-width:2px"/><path d="M55.38,187.16c0,1.18,0,2.36,0,3.53,0,.22-.25.43-.38.65-.19-.22-.56-.43-.56-.65q-.06-3.58,0-7.18c0-.21.4-.42.61-.63.11.21.31.42.32.63,0,1.22,0,2.43,0,3.65Z" style="fill:none;stroke:#fff;stroke-miterlimit:10;stroke-width:2px"/><path d="M72.24,136c0,1.14,0,2.28,0,3.42,0,.22-.24.44-.36.66-.2-.23-.55-.46-.57-.71-.06-1.05,0-2.1,0-3.15,0-1.21,0-2.43,0-3.64,0-.28.31-.55.48-.83.16.27.43.55.45.83C72.27,133.72,72.24,134.86,72.24,136Z" style="fill:none;stroke:#fff;stroke-miterlimit:10;stroke-width:2px"/><path d="M38.85,201.26c0,1.51,0,3,0,4.52,0,.18-.17.37-.27.55-.15-.19-.44-.37-.44-.56q0-4.52,0-9c0-.19.29-.38.45-.56.09.19.27.38.27.57,0,1.5,0,3,0,4.51Z" style="fill:none;stroke:#fff;stroke-miterlimit:10;stroke-width:2px"/><path d="M66.47,201.36c0,1.47,0,2.94,0,4.4,0,.19-.18.38-.28.57-.15-.19-.45-.37-.45-.55q0-4.51,0-9c0-.17.21-.33.32-.5.14.18.4.36.4.54,0,1.52,0,3.05,0,4.57Z" style="fill:none;stroke:#fff;stroke-miterlimit:10;stroke-width:2px"/><path d="M33.28,204a11.75,11.75,0,0,1,0,1.57c0,.2-.3.37-.46.55-.16-.19-.46-.38-.46-.56,0-1.91.15-3.82.18-5.73,0-1-.15-1.93-.19-2.9,0-.19.21-.39.32-.58.15.15.4.29.43.47a14.17,14.17,0,0,1,0,1.46c0,.43,0,.86.07,1.28,0,.16.1.32.1.48C33.29,201.39,33.28,202.71,33.28,204Z" style="fill:none;stroke:#fff;stroke-miterlimit:10;stroke-width:2px"/><path d="M72,201.24c0,1.49,0,3,0,4.46,0,.21-.2.42-.31.63-.14-.2-.41-.41-.4-.61,0-1.44.12-2.88.14-4.32,0-.84-.12-1.68-.16-2.53a17.7,17.7,0,0,1,0-2.06c0-.22.29-.42.44-.63.1.2.28.4.29.61C72,198.27,72,199.76,72,201.24Z" style="fill:none;stroke:#fff;stroke-miterlimit:10;stroke-width:2px"/><path d="M16.21,214.09c0-1.16,0-2.32,0-3.48a.85.85,0,0,1,.24-.59.57.57,0,0,1,.52.11,1.35,1.35,0,0,1,.1.62c0,.64.09,1.28.1,1.92,0,1.57,0,3.15,0,4.72,0,.28-.35.55-.54.83-.14-.27-.39-.54-.4-.82-.05-1.1,0-2.21,0-3.31Z" style="fill:none;stroke:#fff;stroke-miterlimit:10;stroke-width:2px"/><path d="M66.39,138.43c.09-1.14.18-2.29.28-3.44,0-.11.13-.21.2-.32.11.11.3.2.33.32a6.08,6.08,0,0,1,.23,1.33c0,1.43.06,2.86,0,4.29a4.28,4.28,0,0,1-.54,1.31,6.62,6.62,0,0,1-.38-1.25c-.06-.74,0-1.49,0-2.23Z" style="fill:none;stroke:#fff;stroke-miterlimit:10;stroke-width:2px"/><path d="M5.89,231.13a14.26,14.26,0,0,1,0-1.85c0-.25.37-.46.57-.69.23.24.65.46.67.71a27.72,27.72,0,0,1,0,3.53c0,.33-.44.64-.67.95a2.92,2.92,0,0,1-.57-.92A11.07,11.07,0,0,1,5.89,231.13Z" style="fill:none;stroke:#fff;stroke-miterlimit:10;stroke-width:2px"/><path d="M56.9,185.36c0-1.26,0-2.53,0-3.8,0-.18.17-.35.26-.52a2.41,2.41,0,0,1,.41.44,1.57,1.57,0,0,1,.06.54c0,2.19,0,4.38,0,6.58a4,4,0,0,1-.4,1.14,4.61,4.61,0,0,1-.31-1.11C56.88,187.54,56.9,186.45,56.9,185.36Z" style="fill:none;stroke:#fff;stroke-miterlimit:10;stroke-width:2px"/><path d="M37.74,138.28c0,.89,0,1.78,0,2.66,0,.29-.27.55-.41.83a3,3,0,0,1-.49-.84,5.78,5.78,0,0,1,0-1.25c0-1.25,0-2.5,0-3.75a3,3,0,0,1,.34-1s.37.07.38.12c.09.73.16,1.47.22,2.2,0,.34,0,.69,0,1Z" style="fill:none;stroke:#fff;stroke-miterlimit:10;stroke-width:2px"/><path d="M49.68,186.62c-.07,1.18-.16,2.37-.2,3.56,0,.39.44,1-.41.93a.57.57,0,0,1-.4-.42c0-2.3.09-4.61.18-6.91,0-.23.25-.46.38-.69.13.23.36.46.37.7,0,.94,0,1.88,0,2.82Z" style="fill:none;stroke:#fff;stroke-miterlimit:10;stroke-width:2px"/><path d="M32,136c0-1.14,0-2.28,0-3.42,0-.26.27-.5.41-.75.12.24.33.48.33.72,0,2.21,0,4.42,0,6.63a.49.49,0,0,1,0,.21c-.12.26-.25.52-.38.78a2.59,2.59,0,0,1-.35-.81C32,138.24,32,137.12,32,136Z" style="fill:none;stroke:#fff;stroke-miterlimit:10;stroke-width:2px"/><path d="M7.25,237c-.08.61-.13,1.23-.26,1.84a.74.74,0,0,1-.38.37c-.26-.16-.65-.37-.67-.59a26.12,26.12,0,0,1,0-3.19c0-.17.48-.4.75-.43s.43.32.46.53a10.14,10.14,0,0,1,0,1.46Z" style="fill:none;stroke:#fff;stroke-miterlimit:10;stroke-width:2px"/><path d="M52.65,178.19c0,.85,0,1.71,0,2.56a1.5,1.5,0,0,1-.36.71s-.36,0-.37-.05a3,3,0,0,1-.07-.74l.06-3.36c0-.6,0-1.2,0-1.8,0-.17.24-.32.37-.48.12.17.35.33.35.49C52.67,176.41,52.65,177.3,52.65,178.19Z" style="fill:none;stroke:#fff;stroke-miterlimit:10;stroke-width:2px"/><path d="M47.11,185.44c0,1.26,0,2.53,0,3.8,0,.18-.19.35-.29.53-.08-.18-.24-.35-.24-.53q0-3.83,0-7.65c0-.18.19-.36.29-.54.08.18.24.36.24.53,0,1.29,0,2.57,0,3.86Z" style="fill:none;stroke:#fff;stroke-miterlimit:10;stroke-width:2px"/><path d="M48.63,143.4c0-1.33,0-2.67,0-4a1.45,1.45,0,0,1,.23-.53,1.42,1.42,0,0,1,.2.5c0,2.75,0,5.49,0,8.24,0,.16-.14.32-.21.48a1.5,1.5,0,0,1-.2-.5C48.62,146.19,48.63,144.8,48.63,143.4Z" style="fill:none;stroke:#fff;stroke-miterlimit:10;stroke-width:2px"/><path d="M54.93,143.47c0-1.31,0-2.61,0-3.92a3.64,3.64,0,0,1,.16-.63,2,2,0,0,1,.28.68c0,2.5,0,5,0,7.5a2.43,2.43,0,0,1,0,.54,1.93,1.93,0,0,1-.2.44c-.07-.14-.21-.29-.21-.43,0-1.4,0-2.79,0-4.18Z" style="fill:none;stroke:#fff;stroke-miterlimit:10;stroke-width:2px"/><path d="M97.57,231.08c0,.63,0,1.27,0,1.9,0,.24-.24.46-.37.7a2.07,2.07,0,0,1-.36-.71c-.1-1.23-.16-2.47-.18-3.71,0-.19.32-.38.5-.57.14.15.39.28.4.44,0,.64,0,1.3,0,2Z" style="fill:none;stroke:#fff;stroke-miterlimit:10;stroke-width:2px"/><path d="M70.69,231.07c0,.65,0,1.31,0,2,0,.24-.22.46-.34.69-.12-.23-.33-.45-.35-.68,0-.65,0-1.3,0-1.95s0-1.3,0-2c0-.17.22-.32.34-.48.13.16.34.31.35.47,0,.65,0,1.3,0,1.95Z" style="fill:none;stroke:#fff;stroke-miterlimit:10;stroke-width:2px"/><path d="M97.64,237c-.07.64-.12,1.28-.22,1.92s-.44.36-.55.07a3.89,3.89,0,0,1-.19-1.28c0-.49,0-1,0-1.48a2.17,2.17,0,0,1,0-.8.87.87,0,0,1,.56-.39c.07,0,.32.27.34.43,0,.5,0,1,0,1.52Z" style="fill:none;stroke:#fff;stroke-miterlimit:10;stroke-width:2px"/><path d="M52.65,191.58a13.34,13.34,0,0,1,0,1.79c0,.18-.38.32-.58.47a2.08,2.08,0,0,1-.18-.51c0-1.18-.06-2.37,0-3.55,0-.16.24-.32.37-.49.15.13.43.25.44.4C52.68,190.32,52.65,191,52.65,191.58Z" style="fill:none;stroke:#fff;stroke-miterlimit:10;stroke-width:2px"/><path d="M70,237c0-.49,0-1,0-1.46,0-.18.2-.34.31-.51.09.14.24.28.25.42,0,1.19,0,2.38,0,3.57,0,.09-.13.18-.21.27,0-.09-.15-.17-.16-.26-.1-.68-.18-1.35-.26-2Z" style="fill:none;stroke:#fff;stroke-miterlimit:10;stroke-width:2px"/><path d="M33.43,228.69c.13.2.37.4.36.59,0,.95-.18,1.9-.27,2.86,0,.26,0,.54,0,.81a1.14,1.14,0,0,1-.27.49.41.41,0,0,1-.31-.11,1.32,1.32,0,0,1-.11-.55c0-1.13,0-2.26,0-3.39a2.24,2.24,0,0,1,.25-.68Z" style="fill:none;stroke:#fff;stroke-miterlimit:10;stroke-width:2px"/><path d="M49.39,200c0-1.05,0-2.1,0-3.15a1.1,1.1,0,0,1,.1-.34c.07.09.2.19.2.28,0,.44-.09.89-.07,1.33,0,1.6.13,3.21.18,4.81,0,.21-.15.42-.22.63a2,2,0,0,1-.18-.62c0-1,0-2,0-2.94Z" style="fill:none;stroke:#fff;stroke-miterlimit:10;stroke-width:2px"/><path d="M33.44,236.77c.08.54.19,1.08.22,1.63,0,.12-.25.34-.4.36s-.45-.16-.46-.27c0-.65,0-1.31,0-2a1.7,1.7,0,0,1,0-.64,4.17,4.17,0,0,1,.48-.73,3.53,3.53,0,0,1,.24.69,5.64,5.64,0,0,1,0,.92Z" style="fill:none;stroke:#fff;stroke-miterlimit:10;stroke-width:2px"/><path d="M71.91,141.25c.11.3.33.6.3.88-.06.55.55,1.29-.39,1.6a.44.44,0,0,1-.36-.22c0-.64-.06-1.29,0-1.93a1.61,1.61,0,0,1,.15-.47Z" style="fill:none;stroke:#fff;stroke-miterlimit:10;stroke-width:2px"/><path d="M44.6,231c0-.58,0-1.16,0-1.74a.65.65,0,0,1,.24-.42c.08-.06.26,0,.4.06,0,.14-.08.29-.11.44a3.44,3.44,0,0,0-.1.63c0,1,0,2,0,2.94,0,.13-.13.25-.2.38-.07-.13-.2-.26-.2-.39,0-.63,0-1.27,0-1.9Z" style="fill:none;stroke:#fff;stroke-miterlimit:10;stroke-width:2px"/><path d="M82.23,231.08c0,.61,0,1.23,0,1.84,0,.13-.14.25-.21.37-.07-.12-.19-.23-.19-.34,0-1.25,0-2.49,0-3.74,0-.12.15-.24.23-.36.06.13.19.26.19.39,0,.61,0,1.23,0,1.84Z" style="fill:none;stroke:#fff;stroke-miterlimit:10;stroke-width:2px"/><path d="M32.74,142.57a2.35,2.35,0,0,1,0,.65,1.92,1.92,0,0,1-.36.46c-.17-.19-.47-.36-.49-.55a4.68,4.68,0,0,1,.12-1.34,2.47,2.47,0,0,1,.3-.58c.12.15.3.28.35.46a5.13,5.13,0,0,1,.14.9Z" style="fill:none;stroke:#fff;stroke-miterlimit:10;stroke-width:2px"/><path d="M58.41,237.1c0-.5,0-1,0-1.51,0-.16.17-.3.26-.45.09.14.26.28.25.41,0,.56-.18,1.11-.22,1.67,0,.34.08.69.09,1a1.84,1.84,0,0,1-.1.56c0,.06-.12.09-.19.14a4.59,4.59,0,0,1-.1-.51C58.4,238,58.41,237.55,58.41,237.1Z" style="fill:none;stroke:#fff;stroke-miterlimit:10;stroke-width:2px"/><path d="M54.58,196.52a4,4,0,0,1,0,.49c0,2,0,3.89,0,5.83a1.54,1.54,0,0,1-.13.5.55.55,0,0,1-.18,0c0-.16,0-.33,0-.5s.08-.65.08-1c0-1.6,0-3.19,0-4.79a4.9,4.9,0,0,1,0-.54Z" style="fill:none;stroke:#fff;stroke-miterlimit:10;stroke-width:2px"/><path d="M44.62,236.9c0-.47,0-.94,0-1.41,0-.11.13-.21.21-.31.06.09.18.18.18.28,0,1,0,2,0,3,0,.09-.12.19-.18.28-.08-.1-.21-.2-.22-.31,0-.5,0-1,0-1.51Z" style="fill:none;stroke:#fff;stroke-miterlimit:10;stroke-width:2px"/><path d="M82.24,237c0,.47,0,.94,0,1.4,0,.13-.14.25-.21.37-.07-.11-.2-.22-.2-.33q0-1.46,0-2.91c0-.11.14-.22.21-.32.07.11.19.22.19.33,0,.48,0,1,0,1.46Z" style="fill:none;stroke:#fff;stroke-miterlimit:10;stroke-width:2px"/><path d="M58.48,231.45c-.08-.75-.16-1.5-.21-2.26a.44.44,0,0,1,.15-.35.41.41,0,0,1,.39,0,.71.71,0,0,1,.11.44c0,1.22,0,2.45,0,3.67,0,.15-.17.3-.27.45-.07-.11-.2-.23-.2-.35,0-.55,0-1.09,0-1.63Z" style="fill:none;stroke:#fff;stroke-miterlimit:10;stroke-width:2px"/><path d="M21.42,235c0,1.34,0,2.41,0,3.49,0,.07-.15.15-.22.23s-.13-.14-.12-.21c.05-1,.1-2.08.16-3.11A3.3,3.3,0,0,1,21.42,235Z" style="fill:none;stroke:#fff;stroke-miterlimit:10;stroke-width:2px"/><path d="M87.34,220.43l-.49-.39c.14-.09.28-.26.43-.26s.31.14.46.22Z" style="fill:none;stroke:#fff;stroke-miterlimit:10;stroke-width:2px"/><path d="M63.7,219.62l.45.4c-.14.09-.29.25-.44.25s-.3-.15-.46-.24Z" style="fill:none;stroke:#fff;stroke-miterlimit:10;stroke-width:2px"/><path d="M40,220.64c0-.23-.16-.46-.11-.61a.58.58,0,0,1,.48-.26c.13,0,.27.18.4.28Z" style="fill:none;stroke:#fff;stroke-miterlimit:10;stroke-width:2px"/><path d="M52.45,219.48a2,2,0,0,1,.14.56.44.44,0,0,1-.34.23,1.82,1.82,0,0,1-.44-.32Z" style="fill:none;stroke:#fff;stroke-miterlimit:10;stroke-width:2px"/><path d="M52.13,142.14l-.39-.33c.14-.07.29-.2.43-.19s.28.14.41.22Z" style="fill:none;stroke:#fff;stroke-miterlimit:10;stroke-width:2px"/><path d="M29.22,220.05c-.3.12-.44.24-.56.22s-.22-.17-.32-.27c.12-.08.24-.21.36-.22S28.94,219.9,29.22,220.05Z" style="fill:none;stroke:#fff;stroke-miterlimit:10;stroke-width:2px"/><path d="M76.19,220c-.26.14-.4.27-.5.25s-.25-.18-.37-.27c.12-.08.24-.21.36-.22S75.93,219.89,76.19,220Z" style="fill:none;stroke:#fff;stroke-miterlimit:10;stroke-width:2px"/><path d="M21.27,233.17v-1.36h.11v1.36Z" style="fill:none;stroke:#fff;stroke-miterlimit:10;stroke-width:2px"/><path d="M67.54,200.37c-.1-.17-.24-.29-.23-.39s.19-.25.28-.24.21.16.32.25Z" style="fill:none;stroke:#fff;stroke-miterlimit:10;stroke-width:2px"/><path d="M21.29,228.74a1.69,1.69,0,0,1,.13.45c0,.08-.1.15-.15.23a1.86,1.86,0,0,1-.22-.38S21.16,228.9,21.29,228.74Z" style="fill:none;stroke:#fff;stroke-miterlimit:10;stroke-width:2px"/><path d="M52.16,164.36l-.32-.34c.06,0,.15-.1.18-.08a1.77,1.77,0,0,1,.28.27Z" style="fill:none;stroke:#fff;stroke-miterlimit:10;stroke-width:2px"/><path d="M50.06,143.78c.1,0,.18-.1.23-.07a1,1,0,0,1,.21.2c-.06.05-.13.15-.17.14S50.21,143.94,50.06,143.78Z" style="fill:none;stroke:#fff;stroke-miterlimit:10;stroke-width:2px"/><path d="M37.08,200.18l-.21-.18c.06,0,.12-.11.19-.12s.11.06.16.09Z" style="fill:none;stroke:#fff;stroke-miterlimit:10;stroke-width:2px"/><path d="M16.49,219.73a2.11,2.11,0,0,1,.13.31s-.08.08-.12.12a1,1,0,0,1-.16-.25S16.41,219.82,16.49,219.73Z" style="fill:none;stroke:#fff;stroke-miterlimit:10;stroke-width:2px"/><path d="M50.52,146c-.08.09-.12.16-.18.18s-.1-.06-.14-.09.06-.13.11-.15S50.42,145.94,50.52,146Z" style="fill:none;stroke:#fff;stroke-miterlimit:10;stroke-width:2px"/><path d="M37.3,143.27l-.07.15s-.09-.07-.09-.1,0-.1,0-.15Z" style="fill:none;stroke:#fff;stroke-miterlimit:10;stroke-width:2px"/><path d="M53.89,143.82l-.14.17c0-.05-.09-.09-.1-.15s0-.08.06-.13Z" style="fill:none;stroke:#fff;stroke-miterlimit:10;stroke-width:2px"/><path d="M37.27,156.72l0,.09a.73.73,0,0,1-.09-.08s0,0,.05-.08Z" style="fill:none;stroke:#fff;stroke-miterlimit:10;stroke-width:2px"/><path d="M53.73,145.92c.05.07.09.11.08.15s-.06.06-.09.09,0-.06,0-.08A.67.67,0,0,1,53.73,145.92Z" style="fill:none;stroke:#fff;stroke-miterlimit:10;stroke-width:2px"/><path d="M34.44,200l0,.09-.07-.06s0,0,0,0Z" style="fill:none;stroke:#fff;stroke-miterlimit:10;stroke-width:2px"/><path d="M59.56,62.15a3.09,3.09,0,0,1,3.13,3.23,3.28,3.28,0,1,1-6.56-.11A3.19,3.19,0,0,1,59.56,62.15Zm-.22,4.48c.93,0,1.38-.37,1.38-1.18a1.17,1.17,0,0,0-1.26-1.33c-1,0-1.23.22-1.25,1.22S58.52,66.62,59.34,66.63Z" style="fill:none;stroke:#fff;stroke-miterlimit:10;stroke-width:2px"/><path d="M70,92.3a2.72,2.72,0,0,1,2.71,2.49c.05,1-1.58,2.51-2.76,2.51a2.81,2.81,0,0,1-2.51-2.67A2.27,2.27,0,0,1,70,92.3Zm1.48,2.4a1.43,1.43,0,0,0-1.58-1.61,1.6,1.6,0,0,0-1.46,1.46A2.12,2.12,0,0,0,70,96.32,1.72,1.72,0,0,0,71.48,94.7Z" style="fill:none;stroke:#fff;stroke-miterlimit:10;stroke-width:2px"/><path d="M59.34,66.63c-.82,0-1.16-.4-1.13-1.29s.26-1.23,1.25-1.22a1.17,1.17,0,0,1,1.26,1.33C60.72,66.26,60.27,66.64,59.34,66.63Z" style="fill:none;stroke:#fff;stroke-miterlimit:10;stroke-width:2px"/><path d="M71.48,94.7A1.72,1.72,0,0,1,70,96.32a2.12,2.12,0,0,1-1.57-1.77,1.6,1.6,0,0,1,1.46-1.46A1.43,1.43,0,0,1,71.48,94.7Z" style="fill:none;stroke:#fff;stroke-miterlimit:10;stroke-width:2px"/></g><g id="bucket-forward"><rect x="7.95" y="202.11" width="87.68" height="33.06" style="fill:none"/></g><g id="bucket-reverse"><rect x="7.95" y="201.82" width="87.68" height="33.06" style="fill:none"/></g><g id="right_wheels-forward"><path d="M26.31,178.9H11.84V149.14H26.31Zm-8.68-45.07H11.84v15.31h5.79Z" style="fill:none"/></g><g id="right_wheels-reverse"><rect x="12.08" y="39.01" width="5.17" height="44.48" style="fill:none"/></g><g id="left_wheels-reverse"><rect x="86.77" y="38.88" width="5.54" height="44.6" style="fill:none"/></g><g id="left_wheels-forward"><path d="M92.19,178.9H78.09V149.14h14.1Zm-5.54-29.76h5.54V134.21H86.65Z" style="fill:none"/></g></svg>